{"glyphs":{"0":{"ha":810,"x_min":58,"x_max":752,"o":"m 116 868 l 174 868 l 174 810 l 116 810 l 116 868 m 174 868 l 231 868 l 231 810 l 174 810 l 174 868 m 231 868 l 289 868 l 289 810 l 231 810 l 231 868 m 231 810 l 289 810 l 289 752 l 231 752 l 231 810 m 231 752 l 289 752 l 289 694 l 231 694 l 231 752 m 174 752 l 231 752 l 231 694 l 174 694 l 174 752 m 116 752 l 174 752 l 174 694 l 116 694 l 116 752 m 116 810 l 174 810 l 174 752 l 116 752 l 116 810 m 174 810 l 231 810 l 231 752 l 174 752 l 174 810 m 289 637 l 347 637 l 347 579 l 289 579 l 289 637 m 347 637 l 405 637 l 405 579 l 347 579 l 347 637 m 405 637 l 463 637 l 463 579 l 405 579 l 405 637 m 405 579 l 463 579 l 463 521 l 405 521 l 405 579 m 405 521 l 463 521 l 463 463 l 405 463 l 405 521 m 347 521 l 405 521 l 405 463 l 347 463 l 347 521 m 289 579 l 347 579 l 347 521 l 289 521 l 289 579 m 347 579 l 405 579 l 405 521 l 347 521 l 347 579 m 289 521 l 347 521 l 347 463 l 289 463 l 289 521 m 521 752 l 579 752 l 579 694 l 521 694 l 521 752 m 521 810 l 579 810 l 579 752 l 521 752 l 521 810 m 521 868 l 579 868 l 579 810 l 521 810 l 521 868 m 579 868 l 637 868 l 637 810 l 579 810 l 579 868 m 637 868 l 694 868 l 694 810 l 637 810 l 637 868 m 637 810 l 694 810 l 694 752 l 637 752 l 637 810 m 637 752 l 694 752 l 694 694 l 637 694 l 637 752 m 579 810 l 637 810 l 637 752 l 579 752 l 579 810 m 579 752 l 637 752 l 637 694 l 579 694 l 579 752 m 521 463 l 579 463 l 579 405 l 521 405 l 521 463 m 579 463 l 637 463 l 637 405 l 579 405 l 579 463 m 579 405 l 637 405 l 637 347 l 579 347 l 579 405 m 637 405 l 694 405 l 694 347 l 637 347 l 637 405 m 637 347 l 694 347 l 694 289 l 637 289 l 637 347 m 579 347 l 637 347 l 637 289 l 579 289 l 579 347 m 521 347 l 579 347 l 579 289 l 521 289 l 521 347 m 521 405 l 579 405 l 579 347 l 521 347 l 521 405 m 637 463 l 694 463 l 694 405 l 637 405 l 637 463 m 231 463 l 289 463 l 289 405 l 231 405 l 231 463 m 231 405 l 289 405 l 289 347 l 231 347 l 231 405 m 174 347 l 231 347 l 231 289 l 174 289 l 174 347 m 116 347 l 174 347 l 174 289 l 116 289 l 116 347 m 116 405 l 174 405 l 174 347 l 116 347 l 116 405 m 116 463 l 174 463 l 174 405 l 116 405 l 116 463 m 174 463 l 231 463 l 231 405 l 174 405 l 174 463 m 174 405 l 231 405 l 231 347 l 174 347 l 174 405 m 231 347 l 289 347 l 289 289 l 231 289 l 231 347 m 521 926 l 579 926 l 579 868 l 521 868 l 521 926 m 579 926 l 637 926 l 637 868 l 579 868 l 579 926 m 637 926 l 694 926 l 694 868 l 637 868 l 637 926 m 694 926 l 752 926 l 752 868 l 694 868 l 694 926 m 694 868 l 752 868 l 752 810 l 694 810 l 694 868 m 694 810 l 752 810 l 752 752 l 694 752 l 694 810 m 694 752 l 752 752 l 752 694 l 694 694 l 694 752 m 694 463 l 752 463 l 752 405 l 694 405 l 694 463 m 694 405 l 752 405 l 752 347 l 694 347 l 694 405 m 694 347 l 752 347 l 752 289 l 694 289 l 694 347 m 694 289 l 752 289 l 752 231 l 694 231 l 694 289 m 637 289 l 694 289 l 694 231 l 637 231 l 637 289 m 579 289 l 637 289 l 637 231 l 579 231 l 579 289 m 521 289 l 579 289 l 579 231 l 521 231 l 521 289 m 231 289 l 289 289 l 289 231 l 231 231 l 231 289 m 174 289 l 231 289 l 231 231 l 174 231 l 174 289 m 116 289 l 174 289 l 174 231 l 116 231 l 116 289 m 58 347 l 116 347 l 116 289 l 58 289 l 58 347 m 58 289 l 116 289 l 116 231 l 58 231 l 58 289 m 58 405 l 116 405 l 116 347 l 58 347 l 58 405 m 58 463 l 116 463 l 116 405 l 58 405 l 58 463 m 231 926 l 289 926 l 289 868 l 231 868 l 231 926 m 174 926 l 231 926 l 231 868 l 174 868 l 174 926 m 116 926 l 174 926 l 174 868 l 116 868 l 116 926 m 58 926 l 116 926 l 116 868 l 58 868 l 58 926 m 58 868 l 116 868 l 116 810 l 58 810 l 58 868 m 58 810 l 116 810 l 116 752 l 58 752 l 58 810 m 58 752 l 116 752 l 116 694 l 58 694 l 58 752 m 289 694 l 347 694 l 347 637 l 289 637 l 289 694 m 347 694 l 405 694 l 405 637 l 347 637 l 347 694 m 405 694 l 463 694 l 463 637 l 405 637 l 405 694 m 463 694 l 521 694 l 521 637 l 463 637 l 463 694 m 463 637 l 521 637 l 521 579 l 463 579 l 463 637 m 463 579 l 521 579 l 521 521 l 463 521 l 463 579 m 463 521 l 521 521 l 521 463 l 463 463 l 463 521 z "},"1":{"ha":810,"x_min":58,"x_max":752,"o":"m 58 694 l 116 694 l 116 637 l 58 637 l 58 694 m 116 694 l 174 694 l 174 637 l 116 637 l 116 694 m 174 694 l 231 694 l 231 637 l 174 637 l 174 694 m 231 694 l 289 694 l 289 637 l 231 637 l 231 694 m 231 637 l 289 637 l 289 579 l 231 579 l 231 637 m 231 579 l 289 579 l 289 521 l 231 521 l 231 579 m 231 521 l 289 521 l 289 463 l 231 463 l 231 521 m 174 521 l 231 521 l 231 463 l 174 463 l 174 521 m 116 521 l 174 521 l 174 463 l 116 463 l 116 521 m 58 521 l 116 521 l 116 463 l 58 463 l 58 521 m 58 579 l 116 579 l 116 521 l 58 521 l 58 579 m 58 637 l 116 637 l 116 579 l 58 579 l 58 637 m 116 637 l 174 637 l 174 579 l 116 579 l 116 637 m 174 637 l 231 637 l 231 579 l 174 579 l 174 637 m 174 579 l 231 579 l 231 521 l 174 521 l 174 579 m 116 579 l 174 579 l 174 521 l 116 521 l 116 579 m 289 752 l 347 752 l 347 694 l 289 694 l 289 752 m 289 810 l 347 810 l 347 752 l 289 752 l 289 810 m 289 868 l 347 868 l 347 810 l 289 810 l 289 868 m 289 926 l 347 926 l 347 868 l 289 868 l 289 926 m 347 926 l 405 926 l 405 868 l 347 868 l 347 926 m 405 926 l 463 926 l 463 868 l 405 868 l 405 926 m 405 868 l 463 868 l 463 810 l 405 810 l 405 868 m 463 868 l 521 868 l 521 810 l 463 810 l 463 868 m 463 810 l 521 810 l 521 752 l 463 752 l 463 810 m 463 926 l 521 926 l 521 868 l 463 868 l 463 926 m 463 752 l 521 752 l 521 694 l 463 694 l 463 752 m 405 752 l 463 752 l 463 694 l 405 694 l 405 752 m 347 752 l 405 752 l 405 694 l 347 694 l 347 752 m 347 810 l 405 810 l 405 752 l 347 752 l 347 810 m 347 868 l 405 868 l 405 810 l 347 810 l 347 868 m 405 810 l 463 810 l 463 752 l 405 752 l 405 810 m 694 694 l 752 694 l 752 637 l 694 637 l 694 694 m 637 694 l 694 694 l 694 637 l 637 637 l 637 694 m 579 694 l 637 694 l 637 637 l 579 637 l 579 694 m 579 637 l 637 637 l 637 579 l 579 579 l 579 637 m 579 579 l 637 579 l 637 521 l 579 521 l 579 579 m 579 521 l 637 521 l 637 463 l 579 463 l 579 521 m 521 637 l 579 637 l 579 579 l 521 579 l 521 637 m 521 694 l 579 694 l 579 637 l 521 637 l 521 694 m 637 521 l 694 521 l 694 463 l 637 463 l 637 521 m 694 521 l 752 521 l 752 463 l 694 463 l 694 521 m 694 579 l 752 579 l 752 521 l 694 521 l 694 579 m 694 637 l 752 637 l 752 579 l 694 579 l 694 637 m 637 637 l 694 637 l 694 579 l 637 579 l 637 637 m 637 579 l 694 579 l 694 521 l 637 521 l 637 579 m 289 463 l 347 463 l 347 405 l 289 405 l 289 463 m 347 463 l 405 463 l 405 405 l 347 405 l 347 463 m 405 463 l 463 463 l 463 405 l 405 405 l 405 463 m 463 463 l 521 463 l 521 405 l 463 405 l 463 463 m 463 405 l 521 405 l 521 347 l 463 347 l 463 405 m 463 347 l 521 347 l 521 289 l 463 289 l 463 347 m 463 289 l 521 289 l 521 231 l 463 231 l 463 289 m 405 289 l 463 289 l 463 231 l 405 231 l 405 289 m 347 289 l 405 289 l 405 231 l 347 231 l 347 289 m 289 289 l 347 289 l 347 231 l 289 231 l 289 289 m 289 347 l 347 347 l 347 289 l 289 289 l 289 347 m 289 405 l 347 405 l 347 347 l 289 347 l 289 405 m 347 405 l 405 405 l 405 347 l 347 347 l 347 405 m 405 405 l 463 405 l 463 347 l 405 347 l 405 405 m 405 347 l 463 347 l 463 289 l 405 289 l 405 347 m 347 347 l 405 347 l 405 289 l 347 289 l 347 347 m 521 579 l 579 579 l 579 521 l 521 521 l 521 579 m 521 521 l 579 521 l 579 463 l 521 463 l 521 521 z "},"2":{"ha":810,"x_min":58,"x_max":752,"o":"m 58 694 l 116 694 l 116 637 l 58 637 l 58 694 m 116 694 l 174 694 l 174 637 l 116 637 l 116 694 m 174 694 l 231 694 l 231 637 l 174 637 l 174 694 m 231 694 l 289 694 l 289 637 l 231 637 l 231 694 m 231 637 l 289 637 l 289 579 l 231 579 l 231 637 m 231 579 l 289 579 l 289 521 l 231 521 l 231 579 m 231 521 l 289 521 l 289 463 l 231 463 l 231 521 m 174 521 l 231 521 l 231 463 l 174 463 l 174 521 m 116 521 l 174 521 l 174 463 l 116 463 l 116 521 m 58 521 l 116 521 l 116 463 l 58 463 l 58 521 m 58 579 l 116 579 l 116 521 l 58 521 l 58 579 m 58 637 l 116 637 l 116 579 l 58 579 l 58 637 m 116 637 l 174 637 l 174 579 l 116 579 l 116 637 m 174 637 l 231 637 l 231 579 l 174 579 l 174 637 m 174 579 l 231 579 l 231 521 l 174 521 l 174 579 m 116 579 l 174 579 l 174 521 l 116 521 l 116 579 m 289 752 l 347 752 l 347 694 l 289 694 l 289 752 m 289 810 l 347 810 l 347 752 l 289 752 l 289 810 m 289 868 l 347 868 l 347 810 l 289 810 l 289 868 m 289 926 l 347 926 l 347 868 l 289 868 l 289 926 m 347 926 l 405 926 l 405 868 l 347 868 l 347 926 m 405 926 l 463 926 l 463 868 l 405 868 l 405 926 m 405 868 l 463 868 l 463 810 l 405 810 l 405 868 m 463 868 l 521 868 l 521 810 l 463 810 l 463 868 m 463 810 l 521 810 l 521 752 l 463 752 l 463 810 m 463 926 l 521 926 l 521 868 l 463 868 l 463 926 m 463 752 l 521 752 l 521 694 l 463 694 l 463 752 m 405 752 l 463 752 l 463 694 l 405 694 l 405 752 m 347 752 l 405 752 l 405 694 l 347 694 l 347 752 m 347 810 l 405 810 l 405 752 l 347 752 l 347 810 m 347 868 l 405 868 l 405 810 l 347 810 l 347 868 m 405 810 l 463 810 l 463 752 l 405 752 l 405 810 m 694 694 l 752 694 l 752 637 l 694 637 l 694 694 m 637 694 l 694 694 l 694 637 l 637 637 l 637 694 m 579 694 l 637 694 l 637 637 l 579 637 l 579 694 m 579 637 l 637 637 l 637 579 l 579 579 l 579 637 m 579 579 l 637 579 l 637 521 l 579 521 l 579 579 m 579 521 l 637 521 l 637 463 l 579 463 l 579 521 m 521 637 l 579 637 l 579 579 l 521 579 l 521 637 m 521 694 l 579 694 l 579 637 l 521 637 l 521 694 m 637 521 l 694 521 l 694 463 l 637 463 l 637 521 m 694 521 l 752 521 l 752 463 l 694 463 l 694 521 m 694 579 l 752 579 l 752 521 l 694 521 l 694 579 m 694 637 l 752 637 l 752 579 l 694 579 l 694 637 m 637 637 l 694 637 l 694 579 l 637 579 l 637 637 m 637 579 l 694 579 l 694 521 l 637 521 l 637 579 m 289 463 l 347 463 l 347 405 l 289 405 l 289 463 m 347 463 l 405 463 l 405 405 l 347 405 l 347 463 m 405 463 l 463 463 l 463 405 l 405 405 l 405 463 m 463 463 l 521 463 l 521 405 l 463 405 l 463 463 m 463 405 l 521 405 l 521 347 l 463 347 l 463 405 m 463 347 l 521 347 l 521 289 l 463 289 l 463 347 m 463 289 l 521 289 l 521 231 l 463 231 l 463 289 m 405 289 l 463 289 l 463 231 l 405 231 l 405 289 m 347 289 l 405 289 l 405 231 l 347 231 l 347 289 m 289 289 l 347 289 l 347 231 l 289 231 l 289 289 m 289 347 l 347 347 l 347 289 l 289 289 l 289 347 m 289 405 l 347 405 l 347 347 l 289 347 l 289 405 m 347 405 l 405 405 l 405 347 l 347 347 l 347 405 m 405 405 l 463 405 l 463 347 l 405 347 l 405 405 m 405 347 l 463 347 l 463 289 l 405 289 l 405 347 m 347 347 l 405 347 l 405 289 l 347 289 l 347 347 m 521 579 l 579 579 l 579 521 l 521 521 l 521 579 m 521 521 l 579 521 l 579 463 l 521 463 l 521 521 m 289 694 l 347 694 l 347 637 l 289 637 l 289 694 m 347 694 l 405 694 l 405 637 l 347 637 l 347 694 m 405 694 l 463 694 l 463 637 l 405 637 l 405 694 m 463 694 l 521 694 l 521 637 l 463 637 l 463 694 m 463 637 l 521 637 l 521 579 l 463 579 l 463 637 m 463 579 l 521 579 l 521 521 l 463 521 l 463 579 m 405 579 l 463 579 l 463 521 l 405 521 l 405 579 m 347 579 l 405 579 l 405 521 l 347 521 l 347 579 m 347 637 l 405 637 l 405 579 l 347 579 l 347 637 m 289 637 l 347 637 l 347 579 l 289 579 l 289 637 m 405 637 l 463 637 l 463 579 l 405 579 l 405 637 m 289 579 l 347 579 l 347 521 l 289 521 l 289 579 m 289 521 l 347 521 l 347 463 l 289 463 l 289 521 m 347 521 l 405 521 l 405 463 l 347 463 l 347 521 m 405 521 l 463 521 l 463 463 l 405 463 l 405 521 m 463 521 l 521 521 l 521 463 l 463 463 l 463 521 z "},"3":{"ha":984,"x_min":58,"x_max":926,"o":"m 405 637 l 463 637 l 463 579 l 405 579 l 405 637 m 405 579 l 463 579 l 463 521 l 405 521 l 405 579 m 405 521 l 463 521 l 463 463 l 405 463 l 405 521 m 463 521 l 521 521 l 521 463 l 463 463 l 463 521 m 521 521 l 579 521 l 579 463 l 521 463 l 521 521 m 521 579 l 579 579 l 579 521 l 521 521 l 521 579 m 521 637 l 579 637 l 579 579 l 521 579 l 521 637 m 463 637 l 521 637 l 521 579 l 463 579 l 463 637 m 463 579 l 521 579 l 521 521 l 463 521 l 463 579 m 347 694 l 405 694 l 405 637 l 347 637 l 347 694 m 347 752 l 405 752 l 405 694 l 347 694 l 347 752 m 347 810 l 405 810 l 405 752 l 347 752 l 347 810 m 347 868 l 405 868 l 405 810 l 347 810 l 347 868 m 347 926 l 405 926 l 405 868 l 347 868 l 347 926 m 347 984 l 405 984 l 405 926 l 347 926 l 347 984 m 289 694 l 347 694 l 347 637 l 289 637 l 289 694 m 289 752 l 347 752 l 347 694 l 289 694 l 289 752 m 289 810 l 347 810 l 347 752 l 289 752 l 289 810 m 289 868 l 347 868 l 347 810 l 289 810 l 289 868 m 289 926 l 347 926 l 347 868 l 289 868 l 289 926 m 289 984 l 347 984 l 347 926 l 289 926 l 289 984 m 231 984 l 289 984 l 289 926 l 231 926 l 231 984 m 231 926 l 289 926 l 289 868 l 231 868 l 231 926 m 231 868 l 289 868 l 289 810 l 231 810 l 231 868 m 231 810 l 289 810 l 289 752 l 231 752 l 231 810 m 231 752 l 289 752 l 289 694 l 231 694 l 231 752 m 231 694 l 289 694 l 289 637 l 231 637 l 231 694 m 174 694 l 231 694 l 231 637 l 174 637 l 174 694 m 116 694 l 174 694 l 174 637 l 116 637 l 116 694 m 58 694 l 116 694 l 116 637 l 58 637 l 58 694 m 58 752 l 116 752 l 116 694 l 58 694 l 58 752 m 116 810 l 174 810 l 174 752 l 116 752 l 116 810 m 174 810 l 231 810 l 231 752 l 174 752 l 174 810 m 174 752 l 231 752 l 231 694 l 174 694 l 174 752 m 116 752 l 174 752 l 174 694 l 116 694 l 116 752 m 58 810 l 116 810 l 116 752 l 58 752 l 58 810 m 347 463 l 405 463 l 405 405 l 347 405 l 347 463 m 347 405 l 405 405 l 405 347 l 347 347 l 347 405 m 347 347 l 405 347 l 405 289 l 347 289 l 347 347 m 347 289 l 405 289 l 405 231 l 347 231 l 347 289 m 347 231 l 405 231 l 405 174 l 347 174 l 347 231 m 347 174 l 405 174 l 405 116 l 347 116 l 347 174 m 289 174 l 347 174 l 347 116 l 289 116 l 289 174 m 231 174 l 289 174 l 289 116 l 231 116 l 231 174 m 231 231 l 289 231 l 289 174 l 231 174 l 231 231 m 231 289 l 289 289 l 289 231 l 231 231 l 231 289 m 231 347 l 289 347 l 289 289 l 231 289 l 231 347 m 231 405 l 289 405 l 289 347 l 231 347 l 231 405 m 231 463 l 289 463 l 289 405 l 231 405 l 231 463 m 289 463 l 347 463 l 347 405 l 289 405 l 289 463 m 289 405 l 347 405 l 347 347 l 289 347 l 289 405 m 289 347 l 347 347 l 347 289 l 289 289 l 289 347 m 289 289 l 347 289 l 347 231 l 289 231 l 289 289 m 289 231 l 347 231 l 347 174 l 289 174 l 289 231 m 116 463 l 174 463 l 174 405 l 116 405 l 116 463 m 58 463 l 116 463 l 116 405 l 58 405 l 58 463 m 58 405 l 116 405 l 116 347 l 58 347 l 58 405 m 58 347 l 116 347 l 116 289 l 58 289 l 58 347 m 116 347 l 174 347 l 174 289 l 116 289 l 116 347 m 116 405 l 174 405 l 174 347 l 116 347 l 116 405 m 174 463 l 231 463 l 231 405 l 174 405 l 174 463 m 174 405 l 231 405 l 231 347 l 174 347 l 174 405 m 174 347 l 231 347 l 231 289 l 174 289 l 174 347 m 579 694 l 637 694 l 637 637 l 579 637 l 579 694 m 579 752 l 637 752 l 637 694 l 579 694 l 579 752 m 579 810 l 637 810 l 637 752 l 579 752 l 579 810 m 579 868 l 637 868 l 637 810 l 579 810 l 579 868 m 579 926 l 637 926 l 637 868 l 579 868 l 579 926 m 579 984 l 637 984 l 637 926 l 579 926 l 579 984 m 752 810 l 810 810 l 810 752 l 752 752 l 752 810 m 752 752 l 810 752 l 810 694 l 752 694 l 752 752 m 752 694 l 810 694 l 810 637 l 752 637 l 752 694 m 694 694 l 752 694 l 752 637 l 694 637 l 694 694 m 637 694 l 694 694 l 694 637 l 637 637 l 637 694 m 637 752 l 694 752 l 694 694 l 637 694 l 637 752 m 637 810 l 694 810 l 694 752 l 637 752 l 637 810 m 637 868 l 694 868 l 694 810 l 637 810 l 637 868 m 637 926 l 694 926 l 694 868 l 637 868 l 637 926 m 637 984 l 694 984 l 694 926 l 637 926 l 637 984 m 694 984 l 752 984 l 752 926 l 694 926 l 694 984 m 694 926 l 752 926 l 752 868 l 694 868 l 694 926 m 694 868 l 752 868 l 752 810 l 694 810 l 694 868 m 694 810 l 752 810 l 752 752 l 694 752 l 694 810 m 694 752 l 752 752 l 752 694 l 694 694 l 694 752 m 810 694 l 868 694 l 868 637 l 810 637 l 810 694 m 810 752 l 868 752 l 868 694 l 810 694 l 810 752 m 810 810 l 868 810 l 868 752 l 810 752 l 810 810 m 868 694 l 926 694 l 926 637 l 868 637 l 868 694 m 868 752 l 926 752 l 926 694 l 868 694 l 868 752 m 868 810 l 926 810 l 926 752 l 868 752 l 868 810 m 579 463 l 637 463 l 637 405 l 579 405 l 579 463 m 579 405 l 637 405 l 637 347 l 579 347 l 579 405 m 579 347 l 637 347 l 637 289 l 579 289 l 579 347 m 579 289 l 637 289 l 637 231 l 579 231 l 579 289 m 579 231 l 637 231 l 637 174 l 579 174 l 579 231 m 579 174 l 637 174 l 637 116 l 579 116 l 579 174 m 752 347 l 810 347 l 810 289 l 752 289 l 752 347 m 752 405 l 810 405 l 810 347 l 752 347 l 752 405 m 694 405 l 752 405 l 752 347 l 694 347 l 694 405 m 694 463 l 752 463 l 752 405 l 694 405 l 694 463 m 752 463 l 810 463 l 810 405 l 752 405 l 752 463 m 637 463 l 694 463 l 694 405 l 637 405 l 637 463 m 637 405 l 694 405 l 694 347 l 637 347 l 637 405 m 637 347 l 694 347 l 694 289 l 637 289 l 637 347 m 637 289 l 694 289 l 694 231 l 637 231 l 637 289 m 637 231 l 694 231 l 694 174 l 637 174 l 637 231 m 637 174 l 694 174 l 694 116 l 637 116 l 637 174 m 694 174 l 752 174 l 752 116 l 694 116 l 694 174 m 694 231 l 752 231 l 752 174 l 694 174 l 694 231 m 694 289 l 752 289 l 752 231 l 694 231 l 694 289 m 694 347 l 752 347 l 752 289 l 694 289 l 694 347 m 810 463 l 868 463 l 868 405 l 810 405 l 810 463 m 868 463 l 926 463 l 926 405 l 868 405 l 868 463 m 810 347 l 868 347 l 868 289 l 810 289 l 810 347 m 810 405 l 868 405 l 868 347 l 810 347 l 810 405 m 868 405 l 926 405 l 926 347 l 868 347 l 868 405 m 868 347 l 926 347 l 926 289 l 868 289 l 868 347 z "},"4":{"ha":984,"x_min":58,"x_max":926,"o":"m 579 521 l 637 521 l 637 463 l 579 463 l 579 521 m 579 579 l 637 579 l 637 521 l 579 521 l 579 579 m 637 579 l 694 579 l 694 521 l 637 521 l 637 579 m 637 521 l 694 521 l 694 463 l 637 463 l 637 521 m 694 521 l 752 521 l 752 463 l 694 463 l 694 521 m 694 579 l 752 579 l 752 521 l 694 521 l 694 579 m 694 637 l 752 637 l 752 579 l 694 579 l 694 637 m 637 637 l 694 637 l 694 579 l 637 579 l 637 637 m 579 637 l 637 637 l 637 579 l 579 579 l 579 637 m 347 521 l 405 521 l 405 463 l 347 463 l 347 521 m 347 579 l 405 579 l 405 521 l 347 521 l 347 579 m 347 637 l 405 637 l 405 579 l 347 579 l 347 637 m 289 637 l 347 637 l 347 579 l 289 579 l 289 637 m 231 637 l 289 637 l 289 579 l 231 579 l 231 637 m 231 579 l 289 579 l 289 521 l 231 521 l 231 579 m 231 521 l 289 521 l 289 463 l 231 463 l 231 521 m 289 521 l 347 521 l 347 463 l 289 463 l 289 521 m 289 579 l 347 579 l 347 521 l 289 521 l 289 579 m 405 694 l 463 694 l 463 637 l 405 637 l 405 694 m 405 752 l 463 752 l 463 694 l 405 694 l 405 752 m 405 810 l 463 810 l 463 752 l 405 752 l 405 810 m 463 810 l 521 810 l 521 752 l 463 752 l 463 810 m 521 810 l 579 810 l 579 752 l 521 752 l 521 810 m 521 752 l 579 752 l 579 694 l 521 694 l 521 752 m 463 752 l 521 752 l 521 694 l 463 694 l 463 752 m 463 694 l 521 694 l 521 637 l 463 637 l 463 694 m 521 694 l 579 694 l 579 637 l 521 637 l 521 694 m 405 463 l 463 463 l 463 405 l 405 405 l 405 463 m 463 463 l 521 463 l 521 405 l 463 405 l 463 463 m 521 463 l 579 463 l 579 405 l 521 405 l 521 463 m 521 405 l 579 405 l 579 347 l 521 347 l 521 405 m 521 347 l 579 347 l 579 289 l 521 289 l 521 347 m 463 347 l 521 347 l 521 289 l 463 289 l 463 347 m 405 347 l 463 347 l 463 289 l 405 289 l 405 347 m 405 405 l 463 405 l 463 347 l 405 347 l 405 405 m 463 405 l 521 405 l 521 347 l 463 347 l 463 405 m 347 868 l 405 868 l 405 810 l 347 810 l 347 868 m 289 868 l 347 868 l 347 810 l 289 810 l 289 868 m 231 868 l 289 868 l 289 810 l 231 810 l 231 868 m 231 926 l 289 926 l 289 868 l 231 868 l 231 926 m 231 984 l 289 984 l 289 926 l 231 926 l 231 984 m 289 984 l 347 984 l 347 926 l 289 926 l 289 984 m 347 984 l 405 984 l 405 926 l 347 926 l 347 984 m 405 984 l 463 984 l 463 926 l 405 926 l 405 984 m 463 984 l 521 984 l 521 926 l 463 926 l 463 984 m 521 984 l 579 984 l 579 926 l 521 926 l 521 984 m 579 984 l 637 984 l 637 926 l 579 926 l 579 984 m 637 984 l 694 984 l 694 926 l 637 926 l 637 984 m 694 984 l 752 984 l 752 926 l 694 926 l 694 984 m 694 926 l 752 926 l 752 868 l 694 868 l 694 926 m 694 868 l 752 868 l 752 810 l 694 810 l 694 868 m 637 868 l 694 868 l 694 810 l 637 810 l 637 868 m 579 868 l 637 868 l 637 810 l 579 810 l 579 868 m 521 868 l 579 868 l 579 810 l 521 810 l 521 868 m 463 868 l 521 868 l 521 810 l 463 810 l 463 868 m 405 868 l 463 868 l 463 810 l 405 810 l 405 868 m 347 926 l 405 926 l 405 868 l 347 868 l 347 926 m 289 926 l 347 926 l 347 868 l 289 868 l 289 926 m 405 926 l 463 926 l 463 868 l 405 868 l 405 926 m 463 926 l 521 926 l 521 868 l 463 868 l 463 926 m 521 926 l 579 926 l 579 868 l 521 868 l 521 926 m 579 926 l 637 926 l 637 868 l 579 868 l 579 926 m 637 926 l 694 926 l 694 868 l 637 868 l 637 926 m 752 810 l 810 810 l 810 752 l 752 752 l 752 810 m 752 752 l 810 752 l 810 694 l 752 694 l 752 752 m 752 694 l 810 694 l 810 637 l 752 637 l 752 694 m 752 637 l 810 637 l 810 579 l 752 579 l 752 637 m 752 579 l 810 579 l 810 521 l 752 521 l 752 579 m 752 521 l 810 521 l 810 463 l 752 463 l 752 521 m 752 463 l 810 463 l 810 405 l 752 405 l 752 463 m 752 405 l 810 405 l 810 347 l 752 347 l 752 405 m 752 347 l 810 347 l 810 289 l 752 289 l 752 347 m 810 347 l 868 347 l 868 289 l 810 289 l 810 347 m 868 347 l 926 347 l 926 289 l 868 289 l 868 347 m 868 405 l 926 405 l 926 347 l 868 347 l 868 405 m 868 463 l 926 463 l 926 405 l 868 405 l 868 463 m 868 521 l 926 521 l 926 463 l 868 463 l 868 521 m 868 579 l 926 579 l 926 521 l 868 521 l 868 579 m 868 637 l 926 637 l 926 579 l 868 579 l 868 637 m 868 694 l 926 694 l 926 637 l 868 637 l 868 694 m 868 752 l 926 752 l 926 694 l 868 694 l 868 752 m 868 810 l 926 810 l 926 752 l 868 752 l 868 810 m 810 810 l 868 810 l 868 752 l 810 752 l 810 810 m 810 752 l 868 752 l 868 694 l 810 694 l 810 752 m 810 694 l 868 694 l 868 637 l 810 637 l 810 694 m 810 637 l 868 637 l 868 579 l 810 579 l 810 637 m 810 579 l 868 579 l 868 521 l 810 521 l 810 579 m 810 521 l 868 521 l 868 463 l 810 463 l 810 521 m 810 463 l 868 463 l 868 405 l 810 405 l 810 463 m 810 405 l 868 405 l 868 347 l 810 347 l 810 405 m 694 289 l 752 289 l 752 231 l 694 231 l 694 289 m 637 289 l 694 289 l 694 231 l 637 231 l 637 289 m 579 289 l 637 289 l 637 231 l 579 231 l 579 289 m 521 289 l 579 289 l 579 231 l 521 231 l 521 289 m 463 289 l 521 289 l 521 231 l 463 231 l 463 289 m 405 289 l 463 289 l 463 231 l 405 231 l 405 289 m 347 289 l 405 289 l 405 231 l 347 231 l 347 289 m 289 289 l 347 289 l 347 231 l 289 231 l 289 289 m 231 289 l 289 289 l 289 231 l 231 231 l 231 289 m 231 231 l 289 231 l 289 174 l 231 174 l 231 231 m 231 174 l 289 174 l 289 116 l 231 116 l 231 174 m 289 174 l 347 174 l 347 116 l 289 116 l 289 174 m 347 174 l 405 174 l 405 116 l 347 116 l 347 174 m 405 174 l 463 174 l 463 116 l 405 116 l 405 174 m 463 174 l 521 174 l 521 116 l 463 116 l 463 174 m 521 174 l 579 174 l 579 116 l 521 116 l 521 174 m 579 174 l 637 174 l 637 116 l 579 116 l 579 174 m 637 174 l 694 174 l 694 116 l 637 116 l 637 174 m 694 174 l 752 174 l 752 116 l 694 116 l 694 174 m 694 231 l 752 231 l 752 174 l 694 174 l 694 231 m 637 231 l 694 231 l 694 174 l 637 174 l 637 231 m 579 231 l 637 231 l 637 174 l 579 174 l 579 231 m 521 231 l 579 231 l 579 174 l 521 174 l 521 231 m 463 231 l 521 231 l 521 174 l 463 174 l 463 231 m 405 231 l 463 231 l 463 174 l 405 174 l 405 231 m 347 231 l 405 231 l 405 174 l 347 174 l 347 231 m 289 231 l 347 231 l 347 174 l 289 174 l 289 231 m 174 347 l 231 347 l 231 289 l 174 289 l 174 347 m 174 405 l 231 405 l 231 347 l 174 347 l 174 405 m 174 463 l 231 463 l 231 405 l 174 405 l 174 463 m 174 521 l 231 521 l 231 463 l 174 463 l 174 521 m 174 579 l 231 579 l 231 521 l 174 521 l 174 579 m 174 637 l 231 637 l 231 579 l 174 579 l 174 637 m 174 694 l 231 694 l 231 637 l 174 637 l 174 694 m 174 752 l 231 752 l 231 694 l 174 694 l 174 752 m 174 810 l 231 810 l 231 752 l 174 752 l 174 810 m 116 810 l 174 810 l 174 752 l 116 752 l 116 810 m 58 810 l 116 810 l 116 752 l 58 752 l 58 810 m 58 752 l 116 752 l 116 694 l 58 694 l 58 752 m 58 694 l 116 694 l 116 637 l 58 637 l 58 694 m 58 637 l 116 637 l 116 579 l 58 579 l 58 637 m 58 579 l 116 579 l 116 521 l 58 521 l 58 579 m 58 521 l 116 521 l 116 463 l 58 463 l 58 521 m 58 463 l 116 463 l 116 405 l 58 405 l 58 463 m 58 405 l 116 405 l 116 347 l 58 347 l 58 405 m 58 347 l 116 347 l 116 289 l 58 289 l 58 347 m 116 347 l 174 347 l 174 289 l 116 289 l 116 347 m 116 405 l 174 405 l 174 347 l 116 347 l 116 405 m 116 463 l 174 463 l 174 405 l 116 405 l 116 463 m 116 521 l 174 521 l 174 463 l 116 463 l 116 521 m 116 579 l 174 579 l 174 521 l 116 521 l 116 579 m 116 637 l 174 637 l 174 579 l 116 579 l 116 637 m 116 694 l 174 694 l 174 637 l 116 637 l 116 694 m 116 752 l 174 752 l 174 694 l 116 694 l 116 752 z "},"5":{"ha":984,"x_min":58,"x_max":926,"o":"m 405 694 l 463 694 l 463 637 l 405 637 l 405 694 m 463 694 l 521 694 l 521 637 l 463 637 l 463 694 m 521 694 l 579 694 l 579 637 l 521 637 l 521 694 m 579 694 l 637 694 l 637 637 l 579 637 l 579 694 m 637 694 l 694 694 l 694 637 l 637 637 l 637 694 m 694 694 l 752 694 l 752 637 l 694 637 l 694 694 m 579 810 l 637 810 l 637 752 l 579 752 l 579 810 m 579 752 l 637 752 l 637 694 l 579 694 l 579 752 m 637 752 l 694 752 l 694 694 l 637 694 l 637 752 m 694 752 l 752 752 l 752 694 l 694 694 l 694 752 m 694 810 l 752 810 l 752 752 l 694 752 l 694 810 m 637 810 l 694 810 l 694 752 l 637 752 l 637 810 m 347 694 l 405 694 l 405 637 l 347 637 l 347 694 m 347 752 l 405 752 l 405 694 l 347 694 l 347 752 m 347 810 l 405 810 l 405 752 l 347 752 l 347 810 m 521 810 l 579 810 l 579 752 l 521 752 l 521 810 m 521 752 l 579 752 l 579 694 l 521 694 l 521 752 m 463 752 l 521 752 l 521 694 l 463 694 l 463 752 m 463 810 l 521 810 l 521 752 l 463 752 l 463 810 m 405 810 l 463 810 l 463 752 l 405 752 l 405 810 m 405 752 l 463 752 l 463 694 l 405 694 l 405 752 m 289 694 l 347 694 l 347 637 l 289 637 l 289 694 m 289 752 l 347 752 l 347 694 l 289 694 l 289 752 m 289 810 l 347 810 l 347 752 l 289 752 l 289 810 m 231 694 l 289 694 l 289 637 l 231 637 l 231 694 m 231 752 l 289 752 l 289 694 l 231 694 l 231 752 m 231 810 l 289 810 l 289 752 l 231 752 l 231 810 m 231 463 l 289 463 l 289 405 l 231 405 l 231 463 m 289 521 l 347 521 l 347 463 l 289 463 l 289 521 m 289 579 l 347 579 l 347 521 l 289 521 l 289 579 m 289 637 l 347 637 l 347 579 l 289 579 l 289 637 m 289 463 l 347 463 l 347 405 l 289 405 l 289 463 m 231 521 l 289 521 l 289 463 l 231 463 l 231 521 m 231 637 l 289 637 l 289 579 l 231 579 l 231 637 m 231 579 l 289 579 l 289 521 l 231 521 l 231 579 m 231 405 l 289 405 l 289 347 l 231 347 l 231 405 m 231 347 l 289 347 l 289 289 l 231 289 l 231 347 m 289 347 l 347 347 l 347 289 l 289 289 l 289 347 m 289 405 l 347 405 l 347 347 l 289 347 l 289 405 m 347 347 l 405 347 l 405 289 l 347 289 l 347 347 m 347 405 l 405 405 l 405 347 l 347 347 l 347 405 m 405 405 l 463 405 l 463 347 l 405 347 l 405 405 m 463 405 l 521 405 l 521 347 l 463 347 l 463 405 m 521 405 l 579 405 l 579 347 l 521 347 l 521 405 m 521 347 l 579 347 l 579 289 l 521 289 l 521 347 m 405 347 l 463 347 l 463 289 l 405 289 l 405 347 m 463 347 l 521 347 l 521 289 l 463 289 l 463 347 m 579 347 l 637 347 l 637 289 l 579 289 l 579 347 m 579 405 l 637 405 l 637 347 l 579 347 l 579 405 m 579 463 l 637 463 l 637 405 l 579 405 l 579 463 m 579 521 l 637 521 l 637 463 l 579 463 l 579 521 m 579 579 l 637 579 l 637 521 l 579 521 l 579 579 m 637 579 l 694 579 l 694 521 l 637 521 l 637 579 m 637 637 l 694 637 l 694 579 l 637 579 l 637 637 m 694 637 l 752 637 l 752 579 l 694 579 l 694 637 m 579 637 l 637 637 l 637 579 l 579 579 l 579 637 m 637 347 l 694 347 l 694 289 l 637 289 l 637 347 m 637 405 l 694 405 l 694 347 l 637 347 l 637 405 m 637 463 l 694 463 l 694 405 l 637 405 l 637 463 m 637 521 l 694 521 l 694 463 l 637 463 l 637 521 m 694 521 l 752 521 l 752 463 l 694 463 l 694 521 m 694 579 l 752 579 l 752 521 l 694 521 l 694 579 m 694 463 l 752 463 l 752 405 l 694 405 l 694 463 m 694 405 l 752 405 l 752 347 l 694 347 l 694 405 m 694 347 l 752 347 l 752 289 l 694 289 l 694 347 m 347 637 l 405 637 l 405 579 l 347 579 l 347 637 m 347 579 l 405 579 l 405 521 l 347 521 l 347 579 m 347 521 l 405 521 l 405 463 l 347 463 l 347 521 m 347 463 l 405 463 l 405 405 l 347 405 l 347 463 m 405 463 l 463 463 l 463 405 l 405 405 l 405 463 m 463 463 l 521 463 l 521 405 l 463 405 l 463 463 m 521 463 l 579 463 l 579 405 l 521 405 l 521 463 m 405 868 l 463 868 l 463 810 l 405 810 l 405 868 m 405 926 l 463 926 l 463 868 l 405 868 l 405 926 m 405 984 l 463 984 l 463 926 l 405 926 l 405 984 m 463 984 l 521 984 l 521 926 l 463 926 l 463 984 m 521 984 l 579 984 l 579 926 l 521 926 l 521 984 m 521 926 l 579 926 l 579 868 l 521 868 l 521 926 m 521 868 l 579 868 l 579 810 l 521 810 l 521 868 m 463 868 l 521 868 l 521 810 l 463 810 l 463 868 m 463 926 l 521 926 l 521 868 l 463 868 l 463 926 m 752 637 l 810 637 l 810 579 l 752 579 l 752 637 m 810 637 l 868 637 l 868 579 l 810 579 l 810 637 m 810 579 l 868 579 l 868 521 l 810 521 l 810 579 m 868 579 l 926 579 l 926 521 l 868 521 l 868 579 m 868 521 l 926 521 l 926 463 l 868 463 l 868 521 m 868 463 l 926 463 l 926 405 l 868 405 l 868 463 m 810 463 l 868 463 l 868 405 l 810 405 l 810 463 m 752 463 l 810 463 l 810 405 l 752 405 l 752 463 m 752 521 l 810 521 l 810 463 l 752 463 l 752 521 m 752 579 l 810 579 l 810 521 l 752 521 l 752 579 m 810 521 l 868 521 l 868 463 l 810 463 l 810 521 m 868 637 l 926 637 l 926 579 l 868 579 l 868 637 m 521 289 l 579 289 l 579 231 l 521 231 l 521 289 m 463 289 l 521 289 l 521 231 l 463 231 l 463 289 m 405 289 l 463 289 l 463 231 l 405 231 l 405 289 m 405 231 l 463 231 l 463 174 l 405 174 l 405 231 m 405 174 l 463 174 l 463 116 l 405 116 l 405 174 m 463 174 l 521 174 l 521 116 l 463 116 l 463 174 m 521 174 l 579 174 l 579 116 l 521 116 l 521 174 m 521 231 l 579 231 l 579 174 l 521 174 l 521 231 m 463 231 l 521 231 l 521 174 l 463 174 l 463 231 m 174 521 l 231 521 l 231 463 l 174 463 l 174 521 m 174 579 l 231 579 l 231 521 l 174 521 l 174 579 m 174 637 l 231 637 l 231 579 l 174 579 l 174 637 m 116 637 l 174 637 l 174 579 l 116 579 l 116 637 m 58 637 l 116 637 l 116 579 l 58 579 l 58 637 m 58 579 l 116 579 l 116 521 l 58 521 l 58 579 m 58 521 l 116 521 l 116 463 l 58 463 l 58 521 m 116 521 l 174 521 l 174 463 l 116 463 l 116 521 m 116 579 l 174 579 l 174 521 l 116 521 l 116 579 z "},"6":{"ha":1157,"x_min":58,"x_max":1100,"o":"m 405 637 l 463 637 l 463 579 l 405 579 l 405 637 m 405 579 l 463 579 l 463 521 l 405 521 l 405 579 m 463 579 l 521 579 l 521 521 l 463 521 l 463 579 m 463 637 l 521 637 l 521 579 l 463 579 l 463 637 m 521 694 l 579 694 l 579 637 l 521 637 l 521 694 m 521 752 l 579 752 l 579 694 l 521 694 l 521 752 m 579 752 l 637 752 l 637 694 l 579 694 l 579 752 m 579 694 l 637 694 l 637 637 l 579 637 l 579 694 m 637 637 l 694 637 l 694 579 l 637 579 l 637 637 m 637 579 l 694 579 l 694 521 l 637 521 l 637 579 m 694 579 l 752 579 l 752 521 l 694 521 l 694 579 m 694 637 l 752 637 l 752 579 l 694 579 l 694 637 m 579 521 l 637 521 l 637 463 l 579 463 l 579 521 m 521 521 l 579 521 l 579 463 l 521 463 l 521 521 m 521 463 l 579 463 l 579 405 l 521 405 l 521 463 m 579 463 l 637 463 l 637 405 l 579 405 l 579 463 m 521 289 l 579 289 l 579 231 l 521 231 l 521 289 m 579 289 l 637 289 l 637 231 l 579 231 l 579 289 m 579 231 l 637 231 l 637 174 l 579 174 l 579 231 m 521 231 l 579 231 l 579 174 l 521 174 l 521 231 m 521 926 l 579 926 l 579 868 l 521 868 l 521 926 m 521 984 l 579 984 l 579 926 l 521 926 l 521 984 m 579 984 l 637 984 l 637 926 l 579 926 l 579 984 m 579 926 l 637 926 l 637 868 l 579 868 l 579 926 m 231 637 l 289 637 l 289 579 l 231 579 l 231 637 m 174 637 l 231 637 l 231 579 l 174 579 l 174 637 m 174 579 l 231 579 l 231 521 l 174 521 l 174 579 m 174 521 l 231 521 l 231 463 l 174 463 l 174 521 m 231 579 l 289 579 l 289 521 l 231 521 l 231 579 m 868 637 l 926 637 l 926 579 l 868 579 l 868 637 m 926 637 l 984 637 l 984 579 l 926 579 l 926 637 m 926 579 l 984 579 l 984 521 l 926 521 l 926 579 m 868 579 l 926 579 l 926 521 l 868 521 l 868 579 m 868 521 l 926 521 l 926 463 l 868 463 l 868 521 m 868 463 l 926 463 l 926 405 l 868 405 l 868 463 m 868 405 l 926 405 l 926 347 l 868 347 l 868 405 m 868 347 l 926 347 l 926 289 l 868 289 l 868 347 m 868 289 l 926 289 l 926 231 l 868 231 l 868 289 m 810 289 l 868 289 l 868 231 l 810 231 l 810 289 m 752 289 l 810 289 l 810 231 l 752 231 l 752 289 m 694 289 l 752 289 l 752 231 l 694 231 l 694 289 m 637 289 l 694 289 l 694 231 l 637 231 l 637 289 m 637 231 l 694 231 l 694 174 l 637 174 l 637 231 m 694 231 l 752 231 l 752 174 l 694 174 l 694 231 m 752 231 l 810 231 l 810 174 l 752 174 l 752 231 m 810 231 l 868 231 l 868 174 l 810 174 l 810 231 m 868 231 l 926 231 l 926 174 l 868 174 l 868 231 m 926 231 l 984 231 l 984 174 l 926 174 l 926 231 m 926 289 l 984 289 l 984 231 l 926 231 l 926 289 m 926 521 l 984 521 l 984 463 l 926 463 l 926 521 m 926 463 l 984 463 l 984 405 l 926 405 l 926 463 m 926 405 l 984 405 l 984 347 l 926 347 l 926 405 m 926 347 l 984 347 l 984 289 l 926 289 l 926 347 m 926 694 l 984 694 l 984 637 l 926 637 l 926 694 m 926 752 l 984 752 l 984 694 l 926 694 l 926 752 m 926 810 l 984 810 l 984 752 l 926 752 l 926 810 m 926 868 l 984 868 l 984 810 l 926 810 l 926 868 m 926 926 l 984 926 l 984 868 l 926 868 l 926 926 m 926 984 l 984 984 l 984 926 l 926 926 l 926 984 m 868 984 l 926 984 l 926 926 l 868 926 l 868 984 m 810 984 l 868 984 l 868 926 l 810 926 l 810 984 m 752 984 l 810 984 l 810 926 l 752 926 l 752 984 m 694 984 l 752 984 l 752 926 l 694 926 l 694 984 m 637 984 l 694 984 l 694 926 l 637 926 l 637 984 m 637 926 l 694 926 l 694 868 l 637 868 l 637 926 m 694 926 l 752 926 l 752 868 l 694 868 l 694 926 m 752 926 l 810 926 l 810 868 l 752 868 l 752 926 m 810 926 l 868 926 l 868 868 l 810 868 l 810 926 m 868 926 l 926 926 l 926 868 l 868 868 l 868 926 m 868 868 l 926 868 l 926 810 l 868 810 l 868 868 m 868 810 l 926 810 l 926 752 l 868 752 l 868 810 m 868 752 l 926 752 l 926 694 l 868 694 l 868 752 m 868 694 l 926 694 l 926 637 l 868 637 l 868 694 m 463 984 l 521 984 l 521 926 l 463 926 l 463 984 m 463 926 l 521 926 l 521 868 l 463 868 l 463 926 m 405 926 l 463 926 l 463 868 l 405 868 l 405 926 m 347 926 l 405 926 l 405 868 l 347 868 l 347 926 m 289 926 l 347 926 l 347 868 l 289 868 l 289 926 m 231 926 l 289 926 l 289 868 l 231 868 l 231 926 m 174 926 l 231 926 l 231 868 l 174 868 l 174 926 m 174 984 l 231 984 l 231 926 l 174 926 l 174 984 m 231 984 l 289 984 l 289 926 l 231 926 l 231 984 m 289 984 l 347 984 l 347 926 l 289 926 l 289 984 m 347 984 l 405 984 l 405 926 l 347 926 l 347 984 m 405 984 l 463 984 l 463 926 l 405 926 l 405 984 m 231 868 l 289 868 l 289 810 l 231 810 l 231 868 m 231 810 l 289 810 l 289 752 l 231 752 l 231 810 m 231 752 l 289 752 l 289 694 l 231 694 l 231 752 m 231 694 l 289 694 l 289 637 l 231 637 l 231 694 m 174 694 l 231 694 l 231 637 l 174 637 l 174 694 m 174 752 l 231 752 l 231 694 l 174 694 l 174 752 m 174 810 l 231 810 l 231 752 l 174 752 l 174 810 m 174 868 l 231 868 l 231 810 l 174 810 l 174 868 m 231 521 l 289 521 l 289 463 l 231 463 l 231 521 m 231 463 l 289 463 l 289 405 l 231 405 l 231 463 m 231 405 l 289 405 l 289 347 l 231 347 l 231 405 m 231 347 l 289 347 l 289 289 l 231 289 l 231 347 m 231 289 l 289 289 l 289 231 l 231 231 l 231 289 m 289 289 l 347 289 l 347 231 l 289 231 l 289 289 m 347 289 l 405 289 l 405 231 l 347 231 l 347 289 m 405 289 l 463 289 l 463 231 l 405 231 l 405 289 m 463 289 l 521 289 l 521 231 l 463 231 l 463 289 m 463 231 l 521 231 l 521 174 l 463 174 l 463 231 m 405 231 l 463 231 l 463 174 l 405 174 l 405 231 m 347 231 l 405 231 l 405 174 l 347 174 l 347 231 m 289 231 l 347 231 l 347 174 l 289 174 l 289 231 m 231 231 l 289 231 l 289 174 l 231 174 l 231 231 m 174 231 l 231 231 l 231 174 l 174 174 l 174 231 m 174 289 l 231 289 l 231 231 l 174 231 l 174 289 m 174 347 l 231 347 l 231 289 l 174 289 l 174 347 m 174 405 l 231 405 l 231 347 l 174 347 l 174 405 m 174 463 l 231 463 l 231 405 l 174 405 l 174 463 m 521 637 l 579 637 l 579 579 l 521 579 l 521 637 m 579 637 l 637 637 l 637 579 l 579 579 l 579 637 m 579 579 l 637 579 l 637 521 l 579 521 l 579 579 m 521 579 l 579 579 l 579 521 l 521 521 l 521 579 m 926 1042 l 984 1042 l 984 984 l 926 984 l 926 1042 m 868 1042 l 926 1042 l 926 984 l 868 984 l 868 1042 m 810 1042 l 868 1042 l 868 984 l 810 984 l 810 1042 m 694 1042 l 752 1042 l 752 984 l 694 984 l 694 1042 m 579 1042 l 637 1042 l 637 984 l 579 984 l 579 1042 m 521 1042 l 579 1042 l 579 984 l 521 984 l 521 1042 m 463 1042 l 521 1042 l 521 984 l 463 984 l 463 1042 m 405 1042 l 463 1042 l 463 984 l 405 984 l 405 1042 m 347 1042 l 405 1042 l 405 984 l 347 984 l 347 1042 m 289 1042 l 347 1042 l 347 984 l 289 984 l 289 1042 m 231 1042 l 289 1042 l 289 984 l 231 984 l 231 1042 m 231 1100 l 289 1100 l 289 1042 l 231 1042 l 231 1100 m 174 1100 l 231 1100 l 231 1042 l 174 1042 l 174 1100 m 174 1042 l 231 1042 l 231 984 l 174 984 l 174 1042 m 289 1100 l 347 1100 l 347 1042 l 289 1042 l 289 1100 m 347 1100 l 405 1100 l 405 1042 l 347 1042 l 347 1100 m 405 1100 l 463 1100 l 463 1042 l 405 1042 l 405 1100 m 463 1100 l 521 1100 l 521 1042 l 463 1042 l 463 1100 m 521 1100 l 579 1100 l 579 1042 l 521 1042 l 521 1100 m 579 1100 l 637 1100 l 637 1042 l 579 1042 l 579 1100 m 637 1100 l 694 1100 l 694 1042 l 637 1042 l 637 1100 m 694 1100 l 752 1100 l 752 1042 l 694 1042 l 694 1100 m 752 1100 l 810 1100 l 810 1042 l 752 1042 l 752 1100 m 926 1100 l 984 1100 l 984 1042 l 926 1042 l 926 1100 m 868 1100 l 926 1100 l 926 1042 l 868 1042 l 868 1100 m 810 1100 l 868 1100 l 868 1042 l 810 1042 l 810 1100 m 637 1042 l 694 1042 l 694 984 l 637 984 l 637 1042 m 752 1042 l 810 1042 l 810 984 l 752 984 l 752 1042 m 174 174 l 231 174 l 231 116 l 174 116 l 174 174 m 231 174 l 289 174 l 289 116 l 231 116 l 231 174 m 289 174 l 347 174 l 347 116 l 289 116 l 289 174 m 347 174 l 405 174 l 405 116 l 347 116 l 347 174 m 405 174 l 463 174 l 463 116 l 405 116 l 405 174 m 463 174 l 521 174 l 521 116 l 463 116 l 463 174 m 521 174 l 579 174 l 579 116 l 521 116 l 521 174 m 579 174 l 637 174 l 637 116 l 579 116 l 579 174 m 637 174 l 694 174 l 694 116 l 637 116 l 637 174 m 694 174 l 752 174 l 752 116 l 694 116 l 694 174 m 752 174 l 810 174 l 810 116 l 752 116 l 752 174 m 810 174 l 868 174 l 868 116 l 810 116 l 810 174 m 868 174 l 926 174 l 926 116 l 868 116 l 868 174 m 926 174 l 984 174 l 984 116 l 926 116 l 926 174 m 926 116 l 984 116 l 984 58 l 926 58 l 926 116 m 868 116 l 926 116 l 926 58 l 868 58 l 868 116 m 810 116 l 868 116 l 868 58 l 810 58 l 810 116 m 752 116 l 810 116 l 810 58 l 752 58 l 752 116 m 694 116 l 752 116 l 752 58 l 694 58 l 694 116 m 637 116 l 694 116 l 694 58 l 637 58 l 637 116 m 579 116 l 637 116 l 637 58 l 579 58 l 579 116 m 521 116 l 579 116 l 579 58 l 521 58 l 521 116 m 463 116 l 521 116 l 521 58 l 463 58 l 463 116 m 405 116 l 463 116 l 463 58 l 405 58 l 405 116 m 347 116 l 405 116 l 405 58 l 347 58 l 347 116 m 289 116 l 347 116 l 347 58 l 289 58 l 289 116 m 231 116 l 289 116 l 289 58 l 231 58 l 231 116 m 174 116 l 231 116 l 231 58 l 174 58 l 174 116 m 116 116 l 174 116 l 174 58 l 116 58 l 116 116 m 116 174 l 174 174 l 174 116 l 116 116 l 116 174 m 116 231 l 174 231 l 174 174 l 116 174 l 116 231 m 116 289 l 174 289 l 174 231 l 116 231 l 116 289 m 116 347 l 174 347 l 174 289 l 116 289 l 116 347 m 116 405 l 174 405 l 174 347 l 116 347 l 116 405 m 116 463 l 174 463 l 174 405 l 116 405 l 116 463 m 116 521 l 174 521 l 174 463 l 116 463 l 116 521 m 116 579 l 174 579 l 174 521 l 116 521 l 116 579 m 116 637 l 174 637 l 174 579 l 116 579 l 116 637 m 116 694 l 174 694 l 174 637 l 116 637 l 116 694 m 116 752 l 174 752 l 174 694 l 116 694 l 116 752 m 116 810 l 174 810 l 174 752 l 116 752 l 116 810 m 116 868 l 174 868 l 174 810 l 116 810 l 116 868 m 116 926 l 174 926 l 174 868 l 116 868 l 116 926 m 116 984 l 174 984 l 174 926 l 116 926 l 116 984 m 116 1042 l 174 1042 l 174 984 l 116 984 l 116 1042 m 116 1100 l 174 1100 l 174 1042 l 116 1042 l 116 1100 m 58 1100 l 116 1100 l 116 1042 l 58 1042 l 58 1100 m 58 1042 l 116 1042 l 116 984 l 58 984 l 58 1042 m 58 984 l 116 984 l 116 926 l 58 926 l 58 984 m 58 926 l 116 926 l 116 868 l 58 868 l 58 926 m 58 868 l 116 868 l 116 810 l 58 810 l 58 868 m 58 810 l 116 810 l 116 752 l 58 752 l 58 810 m 58 752 l 116 752 l 116 694 l 58 694 l 58 752 m 58 694 l 116 694 l 116 637 l 58 637 l 58 694 m 58 637 l 116 637 l 116 579 l 58 579 l 58 637 m 58 579 l 116 579 l 116 521 l 58 521 l 58 579 m 58 521 l 116 521 l 116 463 l 58 463 l 58 521 m 58 463 l 116 463 l 116 405 l 58 405 l 58 463 m 58 405 l 116 405 l 116 347 l 58 347 l 58 405 m 58 347 l 116 347 l 116 289 l 58 289 l 58 347 m 58 289 l 116 289 l 116 231 l 58 231 l 58 289 m 58 231 l 116 231 l 116 174 l 58 174 l 58 231 m 58 174 l 116 174 l 116 116 l 58 116 l 58 174 m 58 116 l 116 116 l 116 58 l 58 58 l 58 116 m 984 116 l 1042 116 l 1042 58 l 984 58 l 984 116 m 1042 116 l 1100 116 l 1100 58 l 1042 58 l 1042 116 m 1042 174 l 1100 174 l 1100 116 l 1042 116 l 1042 174 m 1042 231 l 1100 231 l 1100 174 l 1042 174 l 1042 231 m 1042 289 l 1100 289 l 1100 231 l 1042 231 l 1042 289 m 1042 347 l 1100 347 l 1100 289 l 1042 289 l 1042 347 m 1042 405 l 1100 405 l 1100 347 l 1042 347 l 1042 405 m 1042 463 l 1100 463 l 1100 405 l 1042 405 l 1042 463 m 1042 521 l 1100 521 l 1100 463 l 1042 463 l 1042 521 m 1042 579 l 1100 579 l 1100 521 l 1042 521 l 1042 579 m 1042 637 l 1100 637 l 1100 579 l 1042 579 l 1042 637 m 1042 694 l 1100 694 l 1100 637 l 1042 637 l 1042 694 m 1042 752 l 1100 752 l 1100 694 l 1042 694 l 1042 752 m 1042 810 l 1100 810 l 1100 752 l 1042 752 l 1042 810 m 1042 868 l 1100 868 l 1100 810 l 1042 810 l 1042 868 m 1042 926 l 1100 926 l 1100 868 l 1042 868 l 1042 926 m 1042 984 l 1100 984 l 1100 926 l 1042 926 l 1042 984 m 1042 1042 l 1100 1042 l 1100 984 l 1042 984 l 1042 1042 m 1042 1100 l 1100 1100 l 1100 1042 l 1042 1042 l 1042 1100 m 984 1100 l 1042 1100 l 1042 1042 l 984 1042 l 984 1100 m 984 1042 l 1042 1042 l 1042 984 l 984 984 l 984 1042 m 984 463 l 1042 463 l 1042 405 l 984 405 l 984 463 m 984 521 l 1042 521 l 1042 463 l 984 463 l 984 521 m 984 579 l 1042 579 l 1042 521 l 984 521 l 984 579 m 984 637 l 1042 637 l 1042 579 l 984 579 l 984 637 m 984 694 l 1042 694 l 1042 637 l 984 637 l 984 694 m 984 752 l 1042 752 l 1042 694 l 984 694 l 984 752 m 984 810 l 1042 810 l 1042 752 l 984 752 l 984 810 m 984 868 l 1042 868 l 1042 810 l 984 810 l 984 868 m 984 926 l 1042 926 l 1042 868 l 984 868 l 984 926 m 984 984 l 1042 984 l 1042 926 l 984 926 l 984 984 m 984 405 l 1042 405 l 1042 347 l 984 347 l 984 405 m 984 347 l 1042 347 l 1042 289 l 984 289 l 984 347 m 984 289 l 1042 289 l 1042 231 l 984 231 l 984 289 m 984 231 l 1042 231 l 1042 174 l 984 174 l 984 231 m 984 174 l 1042 174 l 1042 116 l 984 116 l 984 174 z "},"7":{"ha":1157,"x_min":58,"x_max":1100,"o":"m 463 694 l 521 694 l 521 637 l 463 637 l 463 694 m 463 752 l 521 752 l 521 694 l 463 694 l 463 752 m 463 810 l 521 810 l 521 752 l 463 752 l 463 810 m 463 868 l 521 868 l 521 810 l 463 810 l 463 868 m 463 926 l 521 926 l 521 868 l 463 868 l 463 926 m 463 984 l 521 984 l 521 926 l 463 926 l 463 984 m 405 694 l 463 694 l 463 637 l 405 637 l 405 694 m 405 752 l 463 752 l 463 694 l 405 694 l 405 752 m 405 810 l 463 810 l 463 752 l 405 752 l 405 810 m 405 868 l 463 868 l 463 810 l 405 810 l 405 868 m 405 926 l 463 926 l 463 868 l 405 868 l 405 926 m 405 984 l 463 984 l 463 926 l 405 926 l 405 984 m 347 984 l 405 984 l 405 926 l 347 926 l 347 984 m 347 926 l 405 926 l 405 868 l 347 868 l 347 926 m 347 868 l 405 868 l 405 810 l 347 810 l 347 868 m 347 810 l 405 810 l 405 752 l 347 752 l 347 810 m 347 752 l 405 752 l 405 694 l 347 694 l 347 752 m 347 694 l 405 694 l 405 637 l 347 637 l 347 694 m 289 694 l 347 694 l 347 637 l 289 637 l 289 694 m 231 694 l 289 694 l 289 637 l 231 637 l 231 694 m 174 694 l 231 694 l 231 637 l 174 637 l 174 694 m 174 752 l 231 752 l 231 694 l 174 694 l 174 752 m 231 810 l 289 810 l 289 752 l 231 752 l 231 810 m 289 810 l 347 810 l 347 752 l 289 752 l 289 810 m 289 752 l 347 752 l 347 694 l 289 694 l 289 752 m 231 752 l 289 752 l 289 694 l 231 694 l 231 752 m 174 810 l 231 810 l 231 752 l 174 752 l 174 810 m 463 521 l 521 521 l 521 463 l 463 463 l 463 521 m 463 463 l 521 463 l 521 405 l 463 405 l 463 463 m 463 405 l 521 405 l 521 347 l 463 347 l 463 405 m 463 347 l 521 347 l 521 289 l 463 289 l 463 347 m 463 289 l 521 289 l 521 231 l 463 231 l 463 289 m 463 231 l 521 231 l 521 174 l 463 174 l 463 231 m 405 231 l 463 231 l 463 174 l 405 174 l 405 231 m 347 231 l 405 231 l 405 174 l 347 174 l 347 231 m 347 289 l 405 289 l 405 231 l 347 231 l 347 289 m 347 347 l 405 347 l 405 289 l 347 289 l 347 347 m 347 405 l 405 405 l 405 347 l 347 347 l 347 405 m 347 463 l 405 463 l 405 405 l 347 405 l 347 463 m 347 521 l 405 521 l 405 463 l 347 463 l 347 521 m 405 521 l 463 521 l 463 463 l 405 463 l 405 521 m 405 463 l 463 463 l 463 405 l 405 405 l 405 463 m 405 405 l 463 405 l 463 347 l 405 347 l 405 405 m 405 347 l 463 347 l 463 289 l 405 289 l 405 347 m 405 289 l 463 289 l 463 231 l 405 231 l 405 289 m 231 521 l 289 521 l 289 463 l 231 463 l 231 521 m 174 521 l 231 521 l 231 463 l 174 463 l 174 521 m 174 463 l 231 463 l 231 405 l 174 405 l 174 463 m 174 405 l 231 405 l 231 347 l 174 347 l 174 405 m 231 405 l 289 405 l 289 347 l 231 347 l 231 405 m 231 463 l 289 463 l 289 405 l 231 405 l 231 463 m 289 521 l 347 521 l 347 463 l 289 463 l 289 521 m 289 463 l 347 463 l 347 405 l 289 405 l 289 463 m 289 405 l 347 405 l 347 347 l 289 347 l 289 405 m 637 694 l 694 694 l 694 637 l 637 637 l 637 694 m 637 752 l 694 752 l 694 694 l 637 694 l 637 752 m 637 810 l 694 810 l 694 752 l 637 752 l 637 810 m 637 868 l 694 868 l 694 810 l 637 810 l 637 868 m 637 926 l 694 926 l 694 868 l 637 868 l 637 926 m 637 984 l 694 984 l 694 926 l 637 926 l 637 984 m 810 810 l 868 810 l 868 752 l 810 752 l 810 810 m 810 752 l 868 752 l 868 694 l 810 694 l 810 752 m 810 694 l 868 694 l 868 637 l 810 637 l 810 694 m 752 694 l 810 694 l 810 637 l 752 637 l 752 694 m 694 694 l 752 694 l 752 637 l 694 637 l 694 694 m 694 752 l 752 752 l 752 694 l 694 694 l 694 752 m 694 810 l 752 810 l 752 752 l 694 752 l 694 810 m 694 868 l 752 868 l 752 810 l 694 810 l 694 868 m 694 926 l 752 926 l 752 868 l 694 868 l 694 926 m 694 984 l 752 984 l 752 926 l 694 926 l 694 984 m 752 984 l 810 984 l 810 926 l 752 926 l 752 984 m 752 926 l 810 926 l 810 868 l 752 868 l 752 926 m 752 868 l 810 868 l 810 810 l 752 810 l 752 868 m 752 810 l 810 810 l 810 752 l 752 752 l 752 810 m 752 752 l 810 752 l 810 694 l 752 694 l 752 752 m 868 694 l 926 694 l 926 637 l 868 637 l 868 694 m 868 752 l 926 752 l 926 694 l 868 694 l 868 752 m 868 810 l 926 810 l 926 752 l 868 752 l 868 810 m 926 694 l 984 694 l 984 637 l 926 637 l 926 694 m 926 752 l 984 752 l 984 694 l 926 694 l 926 752 m 926 810 l 984 810 l 984 752 l 926 752 l 926 810 m 637 521 l 694 521 l 694 463 l 637 463 l 637 521 m 637 463 l 694 463 l 694 405 l 637 405 l 637 463 m 637 405 l 694 405 l 694 347 l 637 347 l 637 405 m 637 347 l 694 347 l 694 289 l 637 289 l 637 347 m 637 289 l 694 289 l 694 231 l 637 231 l 637 289 m 637 231 l 694 231 l 694 174 l 637 174 l 637 231 m 810 405 l 868 405 l 868 347 l 810 347 l 810 405 m 810 463 l 868 463 l 868 405 l 810 405 l 810 463 m 752 463 l 810 463 l 810 405 l 752 405 l 752 463 m 752 521 l 810 521 l 810 463 l 752 463 l 752 521 m 810 521 l 868 521 l 868 463 l 810 463 l 810 521 m 694 521 l 752 521 l 752 463 l 694 463 l 694 521 m 694 463 l 752 463 l 752 405 l 694 405 l 694 463 m 694 405 l 752 405 l 752 347 l 694 347 l 694 405 m 694 347 l 752 347 l 752 289 l 694 289 l 694 347 m 694 289 l 752 289 l 752 231 l 694 231 l 694 289 m 694 231 l 752 231 l 752 174 l 694 174 l 694 231 m 752 231 l 810 231 l 810 174 l 752 174 l 752 231 m 752 289 l 810 289 l 810 231 l 752 231 l 752 289 m 752 347 l 810 347 l 810 289 l 752 289 l 752 347 m 752 405 l 810 405 l 810 347 l 752 347 l 752 405 m 868 521 l 926 521 l 926 463 l 868 463 l 868 521 m 926 521 l 984 521 l 984 463 l 926 463 l 926 521 m 868 405 l 926 405 l 926 347 l 868 347 l 868 405 m 868 463 l 926 463 l 926 405 l 868 405 l 868 463 m 926 463 l 984 463 l 984 405 l 926 405 l 926 463 m 926 405 l 984 405 l 984 347 l 926 347 l 926 405 m 637 1042 l 694 1042 l 694 984 l 637 984 l 637 1042 m 694 1042 l 752 1042 l 752 984 l 694 984 l 694 1042 m 694 1100 l 752 1100 l 752 1042 l 694 1042 l 694 1100 m 637 1100 l 694 1100 l 694 1042 l 637 1042 l 637 1100 m 752 1042 l 810 1042 l 810 984 l 752 984 l 752 1042 m 752 1100 l 810 1100 l 810 1042 l 752 1042 l 752 1100 m 637 174 l 694 174 l 694 116 l 637 116 l 637 174 m 694 174 l 752 174 l 752 116 l 694 116 l 694 174 m 752 174 l 810 174 l 810 116 l 752 116 l 752 174 m 752 116 l 810 116 l 810 58 l 752 58 l 752 116 m 694 116 l 752 116 l 752 58 l 694 58 l 694 116 m 637 116 l 694 116 l 694 58 l 637 58 l 637 116 m 347 174 l 405 174 l 405 116 l 347 116 l 347 174 m 405 174 l 463 174 l 463 116 l 405 116 l 405 174 m 463 174 l 521 174 l 521 116 l 463 116 l 463 174 m 463 116 l 521 116 l 521 58 l 463 58 l 463 116 m 405 116 l 463 116 l 463 58 l 405 58 l 405 116 m 347 116 l 405 116 l 405 58 l 347 58 l 347 116 m 347 1042 l 405 1042 l 405 984 l 347 984 l 347 1042 m 347 1100 l 405 1100 l 405 1042 l 347 1042 l 347 1100 m 405 1100 l 463 1100 l 463 1042 l 405 1042 l 405 1100 m 463 1042 l 521 1042 l 521 984 l 463 984 l 463 1042 m 405 1042 l 463 1042 l 463 984 l 405 984 l 405 1042 m 463 1100 l 521 1100 l 521 1042 l 463 1042 l 463 1100 m 984 810 l 1042 810 l 1042 752 l 984 752 l 984 810 m 1042 810 l 1100 810 l 1100 752 l 1042 752 l 1042 810 m 1042 752 l 1100 752 l 1100 694 l 1042 694 l 1042 752 m 984 752 l 1042 752 l 1042 694 l 984 694 l 984 752 m 984 694 l 1042 694 l 1042 637 l 984 637 l 984 694 m 1042 694 l 1100 694 l 1100 637 l 1042 637 l 1042 694 m 984 521 l 1042 521 l 1042 463 l 984 463 l 984 521 m 1042 521 l 1100 521 l 1100 463 l 1042 463 l 1042 521 m 1042 463 l 1100 463 l 1100 405 l 1042 405 l 1042 463 m 1042 405 l 1100 405 l 1100 347 l 1042 347 l 1042 405 m 984 405 l 1042 405 l 1042 347 l 984 347 l 984 405 m 984 463 l 1042 463 l 1042 405 l 984 405 l 984 463 m 116 521 l 174 521 l 174 463 l 116 463 l 116 521 m 116 463 l 174 463 l 174 405 l 116 405 l 116 463 m 116 405 l 174 405 l 174 347 l 116 347 l 116 405 m 58 405 l 116 405 l 116 347 l 58 347 l 58 405 m 58 463 l 116 463 l 116 405 l 58 405 l 58 463 m 58 521 l 116 521 l 116 463 l 58 463 l 58 521 m 116 694 l 174 694 l 174 637 l 116 637 l 116 694 m 116 752 l 174 752 l 174 694 l 116 694 l 116 752 m 116 810 l 174 810 l 174 752 l 116 752 l 116 810 m 58 810 l 116 810 l 116 752 l 58 752 l 58 810 m 58 752 l 116 752 l 116 694 l 58 694 l 58 752 m 58 694 l 116 694 l 116 637 l 58 637 l 58 694 z "},"8":{"ha":1157,"x_min":58,"x_max":1100,"o":"m 463 868 l 521 868 l 521 810 l 463 810 l 463 868 m 463 926 l 521 926 l 521 868 l 463 868 l 463 926 m 463 984 l 521 984 l 521 926 l 463 926 l 463 984 m 405 868 l 463 868 l 463 810 l 405 810 l 405 868 m 405 926 l 463 926 l 463 868 l 405 868 l 405 926 m 405 984 l 463 984 l 463 926 l 405 926 l 405 984 m 347 984 l 405 984 l 405 926 l 347 926 l 347 984 m 347 926 l 405 926 l 405 868 l 347 868 l 347 926 m 347 868 l 405 868 l 405 810 l 347 810 l 347 868 m 289 694 l 347 694 l 347 637 l 289 637 l 289 694 m 231 694 l 289 694 l 289 637 l 231 637 l 231 694 m 174 694 l 231 694 l 231 637 l 174 637 l 174 694 m 174 752 l 231 752 l 231 694 l 174 694 l 174 752 m 231 810 l 289 810 l 289 752 l 231 752 l 231 810 m 289 810 l 347 810 l 347 752 l 289 752 l 289 810 m 289 752 l 347 752 l 347 694 l 289 694 l 289 752 m 231 752 l 289 752 l 289 694 l 231 694 l 231 752 m 174 810 l 231 810 l 231 752 l 174 752 l 174 810 m 463 347 l 521 347 l 521 289 l 463 289 l 463 347 m 463 289 l 521 289 l 521 231 l 463 231 l 463 289 m 463 231 l 521 231 l 521 174 l 463 174 l 463 231 m 405 231 l 463 231 l 463 174 l 405 174 l 405 231 m 347 231 l 405 231 l 405 174 l 347 174 l 347 231 m 347 289 l 405 289 l 405 231 l 347 231 l 347 289 m 347 347 l 405 347 l 405 289 l 347 289 l 347 347 m 405 347 l 463 347 l 463 289 l 405 289 l 405 347 m 405 289 l 463 289 l 463 231 l 405 231 l 405 289 m 231 521 l 289 521 l 289 463 l 231 463 l 231 521 m 174 521 l 231 521 l 231 463 l 174 463 l 174 521 m 174 463 l 231 463 l 231 405 l 174 405 l 174 463 m 174 405 l 231 405 l 231 347 l 174 347 l 174 405 m 231 405 l 289 405 l 289 347 l 231 347 l 231 405 m 231 463 l 289 463 l 289 405 l 231 405 l 231 463 m 289 521 l 347 521 l 347 463 l 289 463 l 289 521 m 289 463 l 347 463 l 347 405 l 289 405 l 289 463 m 289 405 l 347 405 l 347 347 l 289 347 l 289 405 m 637 868 l 694 868 l 694 810 l 637 810 l 637 868 m 637 926 l 694 926 l 694 868 l 637 868 l 637 926 m 637 984 l 694 984 l 694 926 l 637 926 l 637 984 m 810 810 l 868 810 l 868 752 l 810 752 l 810 810 m 810 752 l 868 752 l 868 694 l 810 694 l 810 752 m 810 694 l 868 694 l 868 637 l 810 637 l 810 694 m 694 868 l 752 868 l 752 810 l 694 810 l 694 868 m 694 926 l 752 926 l 752 868 l 694 868 l 694 926 m 694 984 l 752 984 l 752 926 l 694 926 l 694 984 m 752 984 l 810 984 l 810 926 l 752 926 l 752 984 m 752 926 l 810 926 l 810 868 l 752 868 l 752 926 m 752 868 l 810 868 l 810 810 l 752 810 l 752 868 m 868 694 l 926 694 l 926 637 l 868 637 l 868 694 m 868 752 l 926 752 l 926 694 l 868 694 l 868 752 m 868 810 l 926 810 l 926 752 l 868 752 l 868 810 m 926 694 l 984 694 l 984 637 l 926 637 l 926 694 m 926 752 l 984 752 l 984 694 l 926 694 l 926 752 m 926 810 l 984 810 l 984 752 l 926 752 l 926 810 m 637 347 l 694 347 l 694 289 l 637 289 l 637 347 m 637 289 l 694 289 l 694 231 l 637 231 l 637 289 m 637 231 l 694 231 l 694 174 l 637 174 l 637 231 m 810 405 l 868 405 l 868 347 l 810 347 l 810 405 m 810 463 l 868 463 l 868 405 l 810 405 l 810 463 m 810 521 l 868 521 l 868 463 l 810 463 l 810 521 m 694 347 l 752 347 l 752 289 l 694 289 l 694 347 m 694 289 l 752 289 l 752 231 l 694 231 l 694 289 m 694 231 l 752 231 l 752 174 l 694 174 l 694 231 m 752 231 l 810 231 l 810 174 l 752 174 l 752 231 m 752 289 l 810 289 l 810 231 l 752 231 l 752 289 m 752 347 l 810 347 l 810 289 l 752 289 l 752 347 m 868 521 l 926 521 l 926 463 l 868 463 l 868 521 m 926 521 l 984 521 l 984 463 l 926 463 l 926 521 m 868 405 l 926 405 l 926 347 l 868 347 l 868 405 m 868 463 l 926 463 l 926 405 l 868 405 l 868 463 m 926 463 l 984 463 l 984 405 l 926 405 l 926 463 m 926 405 l 984 405 l 984 347 l 926 347 l 926 405 m 637 1042 l 694 1042 l 694 984 l 637 984 l 637 1042 m 694 1042 l 752 1042 l 752 984 l 694 984 l 694 1042 m 694 1100 l 752 1100 l 752 1042 l 694 1042 l 694 1100 m 637 1100 l 694 1100 l 694 1042 l 637 1042 l 637 1100 m 752 1042 l 810 1042 l 810 984 l 752 984 l 752 1042 m 752 1100 l 810 1100 l 810 1042 l 752 1042 l 752 1100 m 637 174 l 694 174 l 694 116 l 637 116 l 637 174 m 694 174 l 752 174 l 752 116 l 694 116 l 694 174 m 752 174 l 810 174 l 810 116 l 752 116 l 752 174 m 752 116 l 810 116 l 810 58 l 752 58 l 752 116 m 694 116 l 752 116 l 752 58 l 694 58 l 694 116 m 637 116 l 694 116 l 694 58 l 637 58 l 637 116 m 347 174 l 405 174 l 405 116 l 347 116 l 347 174 m 405 174 l 463 174 l 463 116 l 405 116 l 405 174 m 463 174 l 521 174 l 521 116 l 463 116 l 463 174 m 463 116 l 521 116 l 521 58 l 463 58 l 463 116 m 405 116 l 463 116 l 463 58 l 405 58 l 405 116 m 347 116 l 405 116 l 405 58 l 347 58 l 347 116 m 347 1042 l 405 1042 l 405 984 l 347 984 l 347 1042 m 347 1100 l 405 1100 l 405 1042 l 347 1042 l 347 1100 m 405 1100 l 463 1100 l 463 1042 l 405 1042 l 405 1100 m 463 1042 l 521 1042 l 521 984 l 463 984 l 463 1042 m 405 1042 l 463 1042 l 463 984 l 405 984 l 405 1042 m 463 1100 l 521 1100 l 521 1042 l 463 1042 l 463 1100 m 984 810 l 1042 810 l 1042 752 l 984 752 l 984 810 m 1042 810 l 1100 810 l 1100 752 l 1042 752 l 1042 810 m 1042 752 l 1100 752 l 1100 694 l 1042 694 l 1042 752 m 984 752 l 1042 752 l 1042 694 l 984 694 l 984 752 m 984 694 l 1042 694 l 1042 637 l 984 637 l 984 694 m 1042 694 l 1100 694 l 1100 637 l 1042 637 l 1042 694 m 984 521 l 1042 521 l 1042 463 l 984 463 l 984 521 m 1042 521 l 1100 521 l 1100 463 l 1042 463 l 1042 521 m 1042 463 l 1100 463 l 1100 405 l 1042 405 l 1042 463 m 1042 405 l 1100 405 l 1100 347 l 1042 347 l 1042 405 m 984 405 l 1042 405 l 1042 347 l 984 347 l 984 405 m 984 463 l 1042 463 l 1042 405 l 984 405 l 984 463 m 116 521 l 174 521 l 174 463 l 116 463 l 116 521 m 116 463 l 174 463 l 174 405 l 116 405 l 116 463 m 116 405 l 174 405 l 174 347 l 116 347 l 116 405 m 58 405 l 116 405 l 116 347 l 58 347 l 58 405 m 58 463 l 116 463 l 116 405 l 58 405 l 58 463 m 58 521 l 116 521 l 116 463 l 58 463 l 58 521 m 116 694 l 174 694 l 174 637 l 116 637 l 116 694 m 116 752 l 174 752 l 174 694 l 116 694 l 116 752 m 116 810 l 174 810 l 174 752 l 116 752 l 116 810 m 58 810 l 116 810 l 116 752 l 58 752 l 58 810 m 58 752 l 116 752 l 116 694 l 58 694 l 58 752 m 58 694 l 116 694 l 116 637 l 58 637 l 58 694 m 810 347 l 868 347 l 868 289 l 810 289 l 810 347 m 868 347 l 926 347 l 926 289 l 868 289 l 868 347 m 926 347 l 984 347 l 984 289 l 926 289 l 926 347 m 926 289 l 984 289 l 984 231 l 926 231 l 926 289 m 926 231 l 984 231 l 984 174 l 926 174 l 926 231 m 868 231 l 926 231 l 926 174 l 868 174 l 868 231 m 810 231 l 868 231 l 868 174 l 810 174 l 810 231 m 810 289 l 868 289 l 868 231 l 810 231 l 810 289 m 868 289 l 926 289 l 926 231 l 868 231 l 868 289 m 810 868 l 868 868 l 868 810 l 810 810 l 810 868 m 810 926 l 868 926 l 868 868 l 810 868 l 810 926 m 810 984 l 868 984 l 868 926 l 810 926 l 810 984 m 868 984 l 926 984 l 926 926 l 868 926 l 868 984 m 926 984 l 984 984 l 984 926 l 926 926 l 926 984 m 926 926 l 984 926 l 984 868 l 926 868 l 926 926 m 926 868 l 984 868 l 984 810 l 926 810 l 926 868 m 868 868 l 926 868 l 926 810 l 868 810 l 868 868 m 868 926 l 926 926 l 926 868 l 868 868 l 868 926 m 289 868 l 347 868 l 347 810 l 289 810 l 289 868 m 289 926 l 347 926 l 347 868 l 289 868 l 289 926 m 289 984 l 347 984 l 347 926 l 289 926 l 289 984 m 231 984 l 289 984 l 289 926 l 231 926 l 231 984 m 231 926 l 289 926 l 289 868 l 231 868 l 231 926 m 174 926 l 231 926 l 231 868 l 174 868 l 174 926 m 174 868 l 231 868 l 231 810 l 174 810 l 174 868 m 231 868 l 289 868 l 289 810 l 231 810 l 231 868 m 174 984 l 231 984 l 231 926 l 174 926 l 174 984 m 289 347 l 347 347 l 347 289 l 289 289 l 289 347 m 231 347 l 289 347 l 289 289 l 231 289 l 231 347 m 174 347 l 231 347 l 231 289 l 174 289 l 174 347 m 174 289 l 231 289 l 231 231 l 174 231 l 174 289 m 174 231 l 231 231 l 231 174 l 174 174 l 174 231 m 231 231 l 289 231 l 289 174 l 231 174 l 231 231 m 231 289 l 289 289 l 289 231 l 231 231 l 231 289 m 289 289 l 347 289 l 347 231 l 289 231 l 289 289 m 289 231 l 347 231 l 347 174 l 289 174 l 289 231 m 521 637 l 579 637 l 579 579 l 521 579 l 521 637 m 579 637 l 637 637 l 637 579 l 579 579 l 579 637 m 579 579 l 637 579 l 637 521 l 579 521 l 579 579 m 521 579 l 579 579 l 579 521 l 521 521 l 521 579 m 463 521 l 521 521 l 521 463 l 463 463 l 463 521 m 463 579 l 521 579 l 521 521 l 463 521 l 463 579 m 463 637 l 521 637 l 521 579 l 463 579 l 463 637 m 463 694 l 521 694 l 521 637 l 463 637 l 463 694 m 521 694 l 579 694 l 579 637 l 521 637 l 521 694 m 579 694 l 637 694 l 637 637 l 579 637 l 579 694 m 637 694 l 694 694 l 694 637 l 637 637 l 637 694 m 637 637 l 694 637 l 694 579 l 637 579 l 637 637 m 637 579 l 694 579 l 694 521 l 637 521 l 637 579 m 637 521 l 694 521 l 694 463 l 637 463 l 637 521 m 579 521 l 637 521 l 637 463 l 579 463 l 579 521 m 521 521 l 579 521 l 579 463 l 521 463 l 521 521 z "},"9":{"ha":1100,"x_min":58,"x_max":1042,"o":"m 637 521 l 694 521 l 694 463 l 637 463 l 637 521 m 637 579 l 694 579 l 694 521 l 637 521 l 637 579 m 694 579 l 752 579 l 752 521 l 694 521 l 694 579 m 694 521 l 752 521 l 752 463 l 694 463 l 694 521 m 752 521 l 810 521 l 810 463 l 752 463 l 752 521 m 752 579 l 810 579 l 810 521 l 752 521 l 752 579 m 752 637 l 810 637 l 810 579 l 752 579 l 752 637 m 694 637 l 752 637 l 752 579 l 694 579 l 694 637 m 637 637 l 694 637 l 694 579 l 637 579 l 637 637 m 405 521 l 463 521 l 463 463 l 405 463 l 405 521 m 405 579 l 463 579 l 463 521 l 405 521 l 405 579 m 405 637 l 463 637 l 463 579 l 405 579 l 405 637 m 347 637 l 405 637 l 405 579 l 347 579 l 347 637 m 289 637 l 347 637 l 347 579 l 289 579 l 289 637 m 289 579 l 347 579 l 347 521 l 289 521 l 289 579 m 289 521 l 347 521 l 347 463 l 289 463 l 289 521 m 347 521 l 405 521 l 405 463 l 347 463 l 347 521 m 347 579 l 405 579 l 405 521 l 347 521 l 347 579 m 463 694 l 521 694 l 521 637 l 463 637 l 463 694 m 463 752 l 521 752 l 521 694 l 463 694 l 463 752 m 463 810 l 521 810 l 521 752 l 463 752 l 463 810 m 521 810 l 579 810 l 579 752 l 521 752 l 521 810 m 579 810 l 637 810 l 637 752 l 579 752 l 579 810 m 579 752 l 637 752 l 637 694 l 579 694 l 579 752 m 521 752 l 579 752 l 579 694 l 521 694 l 521 752 m 521 694 l 579 694 l 579 637 l 521 637 l 521 694 m 579 694 l 637 694 l 637 637 l 579 637 l 579 694 m 463 463 l 521 463 l 521 405 l 463 405 l 463 463 m 521 463 l 579 463 l 579 405 l 521 405 l 521 463 m 579 463 l 637 463 l 637 405 l 579 405 l 579 463 m 579 405 l 637 405 l 637 347 l 579 347 l 579 405 m 579 347 l 637 347 l 637 289 l 579 289 l 579 347 m 521 347 l 579 347 l 579 289 l 521 289 l 521 347 m 463 347 l 521 347 l 521 289 l 463 289 l 463 347 m 463 405 l 521 405 l 521 347 l 463 347 l 463 405 m 521 405 l 579 405 l 579 347 l 521 347 l 521 405 m 405 868 l 463 868 l 463 810 l 405 810 l 405 868 m 347 868 l 405 868 l 405 810 l 347 810 l 347 868 m 289 868 l 347 868 l 347 810 l 289 810 l 289 868 m 405 984 l 463 984 l 463 926 l 405 926 l 405 984 m 463 984 l 521 984 l 521 926 l 463 926 l 463 984 m 521 984 l 579 984 l 579 926 l 521 926 l 521 984 m 579 984 l 637 984 l 637 926 l 579 926 l 579 984 m 637 984 l 694 984 l 694 926 l 637 926 l 637 984 m 752 868 l 810 868 l 810 810 l 752 810 l 752 868 m 694 868 l 752 868 l 752 810 l 694 810 l 694 868 m 637 868 l 694 868 l 694 810 l 637 810 l 637 868 m 579 868 l 637 868 l 637 810 l 579 810 l 579 868 m 521 868 l 579 868 l 579 810 l 521 810 l 521 868 m 463 868 l 521 868 l 521 810 l 463 810 l 463 868 m 405 926 l 463 926 l 463 868 l 405 868 l 405 926 m 347 926 l 405 926 l 405 868 l 347 868 l 347 926 m 463 926 l 521 926 l 521 868 l 463 868 l 463 926 m 521 926 l 579 926 l 579 868 l 521 868 l 521 926 m 579 926 l 637 926 l 637 868 l 579 868 l 579 926 m 637 926 l 694 926 l 694 868 l 637 868 l 637 926 m 694 926 l 752 926 l 752 868 l 694 868 l 694 926 m 810 810 l 868 810 l 868 752 l 810 752 l 810 810 m 810 752 l 868 752 l 868 694 l 810 694 l 810 752 m 810 694 l 868 694 l 868 637 l 810 637 l 810 694 m 810 637 l 868 637 l 868 579 l 810 579 l 810 637 m 810 579 l 868 579 l 868 521 l 810 521 l 810 579 m 810 521 l 868 521 l 868 463 l 810 463 l 810 521 m 810 463 l 868 463 l 868 405 l 810 405 l 810 463 m 810 405 l 868 405 l 868 347 l 810 347 l 810 405 m 810 347 l 868 347 l 868 289 l 810 289 l 810 347 m 926 463 l 984 463 l 984 405 l 926 405 l 926 463 m 926 521 l 984 521 l 984 463 l 926 463 l 926 521 m 926 579 l 984 579 l 984 521 l 926 521 l 926 579 m 926 637 l 984 637 l 984 579 l 926 579 l 926 637 m 926 694 l 984 694 l 984 637 l 926 637 l 926 694 m 868 752 l 926 752 l 926 694 l 868 694 l 868 752 m 868 694 l 926 694 l 926 637 l 868 637 l 868 694 m 868 637 l 926 637 l 926 579 l 868 579 l 868 637 m 868 579 l 926 579 l 926 521 l 868 521 l 868 579 m 868 521 l 926 521 l 926 463 l 868 463 l 868 521 m 868 463 l 926 463 l 926 405 l 868 405 l 868 463 m 868 405 l 926 405 l 926 347 l 868 347 l 868 405 m 694 289 l 752 289 l 752 231 l 694 231 l 694 289 m 637 289 l 694 289 l 694 231 l 637 231 l 637 289 m 579 289 l 637 289 l 637 231 l 579 231 l 579 289 m 521 289 l 579 289 l 579 231 l 521 231 l 521 289 m 463 289 l 521 289 l 521 231 l 463 231 l 463 289 m 405 289 l 463 289 l 463 231 l 405 231 l 405 289 m 347 289 l 405 289 l 405 231 l 347 231 l 347 289 m 289 289 l 347 289 l 347 231 l 289 231 l 289 289 m 405 174 l 463 174 l 463 116 l 405 116 l 405 174 m 463 174 l 521 174 l 521 116 l 463 116 l 463 174 m 521 174 l 579 174 l 579 116 l 521 116 l 521 174 m 579 174 l 637 174 l 637 116 l 579 116 l 579 174 m 637 231 l 694 231 l 694 174 l 637 174 l 637 231 m 579 231 l 637 231 l 637 174 l 579 174 l 579 231 m 521 231 l 579 231 l 579 174 l 521 174 l 521 231 m 463 231 l 521 231 l 521 174 l 463 174 l 463 231 m 405 231 l 463 231 l 463 174 l 405 174 l 405 231 m 347 231 l 405 231 l 405 174 l 347 174 l 347 231 m 231 347 l 289 347 l 289 289 l 231 289 l 231 347 m 231 405 l 289 405 l 289 347 l 231 347 l 231 405 m 231 463 l 289 463 l 289 405 l 231 405 l 231 463 m 231 521 l 289 521 l 289 463 l 231 463 l 231 521 m 231 579 l 289 579 l 289 521 l 231 521 l 231 579 m 231 637 l 289 637 l 289 579 l 231 579 l 231 637 m 231 694 l 289 694 l 289 637 l 231 637 l 231 694 m 231 752 l 289 752 l 289 694 l 231 694 l 231 752 m 231 810 l 289 810 l 289 752 l 231 752 l 231 810 m 116 694 l 174 694 l 174 637 l 116 637 l 116 694 m 116 637 l 174 637 l 174 579 l 116 579 l 116 637 m 116 579 l 174 579 l 174 521 l 116 521 l 116 579 m 116 521 l 174 521 l 174 463 l 116 463 l 116 521 m 116 463 l 174 463 l 174 405 l 116 405 l 116 463 m 174 405 l 231 405 l 231 347 l 174 347 l 174 405 m 174 463 l 231 463 l 231 405 l 174 405 l 174 463 m 174 521 l 231 521 l 231 463 l 174 463 l 174 521 m 174 579 l 231 579 l 231 521 l 174 521 l 174 579 m 174 637 l 231 637 l 231 579 l 174 579 l 174 637 m 174 694 l 231 694 l 231 637 l 174 637 l 174 694 m 174 752 l 231 752 l 231 694 l 174 694 l 174 752 m 58 637 l 116 637 l 116 579 l 58 579 l 58 637 m 58 579 l 116 579 l 116 521 l 58 521 l 58 579 m 58 521 l 116 521 l 116 463 l 58 463 l 58 521 m 463 1042 l 521 1042 l 521 984 l 463 984 l 463 1042 m 521 1042 l 579 1042 l 579 984 l 521 984 l 521 1042 m 579 1042 l 637 1042 l 637 984 l 579 984 l 579 1042 m 984 637 l 1042 637 l 1042 579 l 984 579 l 984 637 m 984 579 l 1042 579 l 1042 521 l 984 521 l 984 579 m 984 521 l 1042 521 l 1042 463 l 984 463 l 984 521 m 463 116 l 521 116 l 521 58 l 463 58 l 463 116 m 521 116 l 579 116 l 579 58 l 521 58 l 521 116 m 752 289 l 810 289 l 810 231 l 752 231 l 752 289 m 694 231 l 752 231 l 752 174 l 694 174 l 694 231 m 637 174 l 694 174 l 694 116 l 637 116 l 637 174 m 579 116 l 637 116 l 637 58 l 579 58 l 579 116 z "},"A":{"ha":1273,"x_min":58,"x_max":1215,"o":"m 58 694 l 116 694 l 116 637 l 58 637 l 58 694 m 58 637 l 116 637 l 116 579 l 58 579 l 58 637 m 58 579 l 116 579 l 116 521 l 58 521 l 58 579 m 58 521 l 116 521 l 116 463 l 58 463 l 58 521 m 116 521 l 174 521 l 174 463 l 116 463 l 116 521 m 174 521 l 231 521 l 231 463 l 174 463 l 174 521 m 231 521 l 289 521 l 289 463 l 231 463 l 231 521 m 289 521 l 347 521 l 347 463 l 289 463 l 289 521 m 347 521 l 405 521 l 405 463 l 347 463 l 347 521 m 405 521 l 463 521 l 463 463 l 405 463 l 405 521 m 463 521 l 521 521 l 521 463 l 463 463 l 463 521 m 463 579 l 521 579 l 521 521 l 463 521 l 463 579 m 463 637 l 521 637 l 521 579 l 463 579 l 463 637 m 463 694 l 521 694 l 521 637 l 463 637 l 463 694 m 405 694 l 463 694 l 463 637 l 405 637 l 405 694 m 347 694 l 405 694 l 405 637 l 347 637 l 347 694 m 289 694 l 347 694 l 347 637 l 289 637 l 289 694 m 231 694 l 289 694 l 289 637 l 231 637 l 231 694 m 174 694 l 231 694 l 231 637 l 174 637 l 174 694 m 174 637 l 231 637 l 231 579 l 174 579 l 174 637 m 116 637 l 174 637 l 174 579 l 116 579 l 116 637 m 116 579 l 174 579 l 174 521 l 116 521 l 116 579 m 116 694 l 174 694 l 174 637 l 116 637 l 116 694 m 174 579 l 231 579 l 231 521 l 174 521 l 174 579 m 231 579 l 289 579 l 289 521 l 231 521 l 231 579 m 289 579 l 347 579 l 347 521 l 289 521 l 289 579 m 347 579 l 405 579 l 405 521 l 347 521 l 347 579 m 405 579 l 463 579 l 463 521 l 405 521 l 405 579 m 405 637 l 463 637 l 463 579 l 405 579 l 405 637 m 347 637 l 405 637 l 405 579 l 347 579 l 347 637 m 289 637 l 347 637 l 347 579 l 289 579 l 289 637 m 231 637 l 289 637 l 289 579 l 231 579 l 231 637 m 521 463 l 579 463 l 579 405 l 521 405 l 521 463 m 521 405 l 579 405 l 579 347 l 521 347 l 521 405 m 521 347 l 579 347 l 579 289 l 521 289 l 521 347 m 521 289 l 579 289 l 579 231 l 521 231 l 521 289 m 521 231 l 579 231 l 579 174 l 521 174 l 521 231 m 521 174 l 579 174 l 579 116 l 521 116 l 521 174 m 521 116 l 579 116 l 579 58 l 521 58 l 521 116 m 521 58 l 579 58 l 579 0 l 521 0 l 521 58 m 579 58 l 637 58 l 637 0 l 579 0 l 579 58 m 637 58 l 694 58 l 694 0 l 637 0 l 637 58 m 694 58 l 752 58 l 752 0 l 694 0 l 694 58 m 694 116 l 752 116 l 752 58 l 694 58 l 694 116 m 694 174 l 752 174 l 752 116 l 694 116 l 694 174 m 694 231 l 752 231 l 752 174 l 694 174 l 694 231 m 694 289 l 752 289 l 752 231 l 694 231 l 694 289 m 694 347 l 752 347 l 752 289 l 694 289 l 694 347 m 694 405 l 752 405 l 752 347 l 694 347 l 694 405 m 694 463 l 752 463 l 752 405 l 694 405 l 694 463 m 637 463 l 694 463 l 694 405 l 637 405 l 637 463 m 579 463 l 637 463 l 637 405 l 579 405 l 579 463 m 579 405 l 637 405 l 637 347 l 579 347 l 579 405 m 579 347 l 637 347 l 637 289 l 579 289 l 579 347 m 579 289 l 637 289 l 637 231 l 579 231 l 579 289 m 579 231 l 637 231 l 637 174 l 579 174 l 579 231 m 579 174 l 637 174 l 637 116 l 579 116 l 579 174 m 579 116 l 637 116 l 637 58 l 579 58 l 579 116 m 637 116 l 694 116 l 694 58 l 637 58 l 637 116 m 637 174 l 694 174 l 694 116 l 637 116 l 637 174 m 637 231 l 694 231 l 694 174 l 637 174 l 637 231 m 637 289 l 694 289 l 694 231 l 637 231 l 637 289 m 637 347 l 694 347 l 694 289 l 637 289 l 637 347 m 637 405 l 694 405 l 694 347 l 637 347 l 637 405 m 521 752 l 579 752 l 579 694 l 521 694 l 521 752 m 579 752 l 637 752 l 637 694 l 579 694 l 579 752 m 637 752 l 694 752 l 694 694 l 637 694 l 637 752 m 694 752 l 752 752 l 752 694 l 694 694 l 694 752 m 694 810 l 752 810 l 752 752 l 694 752 l 694 810 m 694 868 l 752 868 l 752 810 l 694 810 l 694 868 m 694 926 l 752 926 l 752 868 l 694 868 l 694 926 m 694 984 l 752 984 l 752 926 l 694 926 l 694 984 m 694 1042 l 752 1042 l 752 984 l 694 984 l 694 1042 m 694 1157 l 752 1157 l 752 1100 l 694 1100 l 694 1157 m 694 1100 l 752 1100 l 752 1042 l 694 1042 l 694 1100 m 637 1157 l 694 1157 l 694 1100 l 637 1100 l 637 1157 m 579 1157 l 637 1157 l 637 1100 l 579 1100 l 579 1157 m 521 1157 l 579 1157 l 579 1100 l 521 1100 l 521 1157 m 521 810 l 579 810 l 579 752 l 521 752 l 521 810 m 521 868 l 579 868 l 579 810 l 521 810 l 521 868 m 521 926 l 579 926 l 579 868 l 521 868 l 521 926 m 521 984 l 579 984 l 579 926 l 521 926 l 521 984 m 521 1042 l 579 1042 l 579 984 l 521 984 l 521 1042 m 521 1100 l 579 1100 l 579 1042 l 521 1042 l 521 1100 m 579 1100 l 637 1100 l 637 1042 l 579 1042 l 579 1100 m 637 1100 l 694 1100 l 694 1042 l 637 1042 l 637 1100 m 637 1042 l 694 1042 l 694 984 l 637 984 l 637 1042 m 637 984 l 694 984 l 694 926 l 637 926 l 637 984 m 637 926 l 694 926 l 694 868 l 637 868 l 637 926 m 637 868 l 694 868 l 694 810 l 637 810 l 637 868 m 637 810 l 694 810 l 694 752 l 637 752 l 637 810 m 579 810 l 637 810 l 637 752 l 579 752 l 579 810 m 579 868 l 637 868 l 637 810 l 579 810 l 579 868 m 579 926 l 637 926 l 637 868 l 579 868 l 579 926 m 579 984 l 637 984 l 637 926 l 579 926 l 579 984 m 579 1042 l 637 1042 l 637 984 l 579 984 l 579 1042 m 752 694 l 810 694 l 810 637 l 752 637 l 752 694 m 752 637 l 810 637 l 810 579 l 752 579 l 752 637 m 752 579 l 810 579 l 810 521 l 752 521 l 752 579 m 752 521 l 810 521 l 810 463 l 752 463 l 752 521 m 810 521 l 868 521 l 868 463 l 810 463 l 810 521 m 868 521 l 926 521 l 926 463 l 868 463 l 868 521 m 926 521 l 984 521 l 984 463 l 926 463 l 926 521 m 984 521 l 1042 521 l 1042 463 l 984 463 l 984 521 m 1042 521 l 1100 521 l 1100 463 l 1042 463 l 1042 521 m 1100 521 l 1157 521 l 1157 463 l 1100 463 l 1100 521 m 1157 521 l 1215 521 l 1215 463 l 1157 463 l 1157 521 m 1157 579 l 1215 579 l 1215 521 l 1157 521 l 1157 579 m 1100 637 l 1157 637 l 1157 579 l 1100 579 l 1100 637 m 1100 694 l 1157 694 l 1157 637 l 1100 637 l 1100 694 m 1042 694 l 1100 694 l 1100 637 l 1042 637 l 1042 694 m 984 694 l 1042 694 l 1042 637 l 984 637 l 984 694 m 926 694 l 984 694 l 984 637 l 926 637 l 926 694 m 868 694 l 926 694 l 926 637 l 868 637 l 868 694 m 810 694 l 868 694 l 868 637 l 810 637 l 810 694 m 810 637 l 868 637 l 868 579 l 810 579 l 810 637 m 868 637 l 926 637 l 926 579 l 868 579 l 868 637 m 926 637 l 984 637 l 984 579 l 926 579 l 926 637 m 984 637 l 1042 637 l 1042 579 l 984 579 l 984 637 m 1042 637 l 1100 637 l 1100 579 l 1042 579 l 1042 637 m 1157 637 l 1215 637 l 1215 579 l 1157 579 l 1157 637 m 1157 694 l 1215 694 l 1215 637 l 1157 637 l 1157 694 m 1100 579 l 1157 579 l 1157 521 l 1100 521 l 1100 579 m 1042 579 l 1100 579 l 1100 521 l 1042 521 l 1042 579 m 984 579 l 1042 579 l 1042 521 l 984 521 l 984 579 m 926 579 l 984 579 l 984 521 l 926 521 l 926 579 m 868 579 l 926 579 l 926 521 l 868 521 l 868 579 m 810 579 l 868 579 l 868 521 l 810 521 l 810 579 z "},"B":{"ha":1273,"x_min":58,"x_max":1215,"o":"m 58 694 l 116 694 l 116 637 l 58 637 l 58 694 m 58 637 l 116 637 l 116 579 l 58 579 l 58 637 m 58 579 l 116 579 l 116 521 l 58 521 l 58 579 m 58 521 l 116 521 l 116 463 l 58 463 l 58 521 m 116 521 l 174 521 l 174 463 l 116 463 l 116 521 m 174 521 l 231 521 l 231 463 l 174 463 l 174 521 m 231 521 l 289 521 l 289 463 l 231 463 l 231 521 m 289 521 l 347 521 l 347 463 l 289 463 l 289 521 m 347 521 l 405 521 l 405 463 l 347 463 l 347 521 m 405 521 l 463 521 l 463 463 l 405 463 l 405 521 m 405 694 l 463 694 l 463 637 l 405 637 l 405 694 m 347 694 l 405 694 l 405 637 l 347 637 l 347 694 m 289 694 l 347 694 l 347 637 l 289 637 l 289 694 m 231 694 l 289 694 l 289 637 l 231 637 l 231 694 m 174 694 l 231 694 l 231 637 l 174 637 l 174 694 m 174 637 l 231 637 l 231 579 l 174 579 l 174 637 m 116 637 l 174 637 l 174 579 l 116 579 l 116 637 m 116 579 l 174 579 l 174 521 l 116 521 l 116 579 m 116 694 l 174 694 l 174 637 l 116 637 l 116 694 m 174 579 l 231 579 l 231 521 l 174 521 l 174 579 m 231 579 l 289 579 l 289 521 l 231 521 l 231 579 m 289 579 l 347 579 l 347 521 l 289 521 l 289 579 m 347 579 l 405 579 l 405 521 l 347 521 l 347 579 m 405 579 l 463 579 l 463 521 l 405 521 l 405 579 m 405 637 l 463 637 l 463 579 l 405 579 l 405 637 m 347 637 l 405 637 l 405 579 l 347 579 l 347 637 m 289 637 l 347 637 l 347 579 l 289 579 l 289 637 m 231 637 l 289 637 l 289 579 l 231 579 l 231 637 m 521 405 l 579 405 l 579 347 l 521 347 l 521 405 m 521 347 l 579 347 l 579 289 l 521 289 l 521 347 m 521 289 l 579 289 l 579 231 l 521 231 l 521 289 m 521 231 l 579 231 l 579 174 l 521 174 l 521 231 m 521 174 l 579 174 l 579 116 l 521 116 l 521 174 m 521 116 l 579 116 l 579 58 l 521 58 l 521 116 m 521 58 l 579 58 l 579 0 l 521 0 l 521 58 m 579 58 l 637 58 l 637 0 l 579 0 l 579 58 m 637 58 l 694 58 l 694 0 l 637 0 l 637 58 m 694 58 l 752 58 l 752 0 l 694 0 l 694 58 m 694 116 l 752 116 l 752 58 l 694 58 l 694 116 m 694 174 l 752 174 l 752 116 l 694 116 l 694 174 m 694 231 l 752 231 l 752 174 l 694 174 l 694 231 m 694 289 l 752 289 l 752 231 l 694 231 l 694 289 m 694 347 l 752 347 l 752 289 l 694 289 l 694 347 m 694 405 l 752 405 l 752 347 l 694 347 l 694 405 m 579 405 l 637 405 l 637 347 l 579 347 l 579 405 m 579 347 l 637 347 l 637 289 l 579 289 l 579 347 m 579 289 l 637 289 l 637 231 l 579 231 l 579 289 m 579 231 l 637 231 l 637 174 l 579 174 l 579 231 m 579 174 l 637 174 l 637 116 l 579 116 l 579 174 m 579 116 l 637 116 l 637 58 l 579 58 l 579 116 m 637 116 l 694 116 l 694 58 l 637 58 l 637 116 m 637 174 l 694 174 l 694 116 l 637 116 l 637 174 m 637 231 l 694 231 l 694 174 l 637 174 l 637 231 m 637 289 l 694 289 l 694 231 l 637 231 l 637 289 m 637 347 l 694 347 l 694 289 l 637 289 l 637 347 m 637 405 l 694 405 l 694 347 l 637 347 l 637 405 m 694 810 l 752 810 l 752 752 l 694 752 l 694 810 m 694 868 l 752 868 l 752 810 l 694 810 l 694 868 m 694 926 l 752 926 l 752 868 l 694 868 l 694 926 m 694 984 l 752 984 l 752 926 l 694 926 l 694 984 m 694 1042 l 752 1042 l 752 984 l 694 984 l 694 1042 m 694 1157 l 752 1157 l 752 1100 l 694 1100 l 694 1157 m 694 1100 l 752 1100 l 752 1042 l 694 1042 l 694 1100 m 637 1157 l 694 1157 l 694 1100 l 637 1100 l 637 1157 m 579 1157 l 637 1157 l 637 1100 l 579 1100 l 579 1157 m 521 1157 l 579 1157 l 579 1100 l 521 1100 l 521 1157 m 521 810 l 579 810 l 579 752 l 521 752 l 521 810 m 521 868 l 579 868 l 579 810 l 521 810 l 521 868 m 521 926 l 579 926 l 579 868 l 521 868 l 521 926 m 521 984 l 579 984 l 579 926 l 521 926 l 521 984 m 521 1042 l 579 1042 l 579 984 l 521 984 l 521 1042 m 521 1100 l 579 1100 l 579 1042 l 521 1042 l 521 1100 m 579 1100 l 637 1100 l 637 1042 l 579 1042 l 579 1100 m 637 1100 l 694 1100 l 694 1042 l 637 1042 l 637 1100 m 637 1042 l 694 1042 l 694 984 l 637 984 l 637 1042 m 637 984 l 694 984 l 694 926 l 637 926 l 637 984 m 637 926 l 694 926 l 694 868 l 637 868 l 637 926 m 637 868 l 694 868 l 694 810 l 637 810 l 637 868 m 637 810 l 694 810 l 694 752 l 637 752 l 637 810 m 579 810 l 637 810 l 637 752 l 579 752 l 579 810 m 579 868 l 637 868 l 637 810 l 579 810 l 579 868 m 579 926 l 637 926 l 637 868 l 579 868 l 579 926 m 579 984 l 637 984 l 637 926 l 579 926 l 579 984 m 579 1042 l 637 1042 l 637 984 l 579 984 l 579 1042 m 810 521 l 868 521 l 868 463 l 810 463 l 810 521 m 868 521 l 926 521 l 926 463 l 868 463 l 868 521 m 926 521 l 984 521 l 984 463 l 926 463 l 926 521 m 984 521 l 1042 521 l 1042 463 l 984 463 l 984 521 m 1042 521 l 1100 521 l 1100 463 l 1042 463 l 1042 521 m 1100 521 l 1157 521 l 1157 463 l 1100 463 l 1100 521 m 1157 521 l 1215 521 l 1215 463 l 1157 463 l 1157 521 m 1157 579 l 1215 579 l 1215 521 l 1157 521 l 1157 579 m 1100 637 l 1157 637 l 1157 579 l 1100 579 l 1100 637 m 1100 694 l 1157 694 l 1157 637 l 1100 637 l 1100 694 m 1042 694 l 1100 694 l 1100 637 l 1042 637 l 1042 694 m 984 694 l 1042 694 l 1042 637 l 984 637 l 984 694 m 926 694 l 984 694 l 984 637 l 926 637 l 926 694 m 868 694 l 926 694 l 926 637 l 868 637 l 868 694 m 810 694 l 868 694 l 868 637 l 810 637 l 810 694 m 810 637 l 868 637 l 868 579 l 810 579 l 810 637 m 868 637 l 926 637 l 926 579 l 868 579 l 868 637 m 926 637 l 984 637 l 984 579 l 926 579 l 926 637 m 984 637 l 1042 637 l 1042 579 l 984 579 l 984 637 m 1042 637 l 1100 637 l 1100 579 l 1042 579 l 1042 637 m 1157 637 l 1215 637 l 1215 579 l 1157 579 l 1157 637 m 1157 694 l 1215 694 l 1215 637 l 1157 637 l 1157 694 m 1100 579 l 1157 579 l 1157 521 l 1100 521 l 1100 579 m 1042 579 l 1100 579 l 1100 521 l 1042 521 l 1042 579 m 984 579 l 1042 579 l 1042 521 l 984 521 l 984 579 m 926 579 l 984 579 l 984 521 l 926 521 l 926 579 m 868 579 l 926 579 l 926 521 l 868 521 l 868 579 m 810 579 l 868 579 l 868 521 l 810 521 l 810 579 m 58 752 l 116 752 l 116 694 l 58 694 l 58 752 m 174 752 l 231 752 l 231 694 l 174 694 l 174 752 m 231 752 l 289 752 l 289 694 l 231 694 l 231 752 m 289 752 l 347 752 l 347 694 l 289 694 l 289 752 m 347 752 l 405 752 l 405 694 l 347 694 l 347 752 m 405 752 l 463 752 l 463 694 l 405 694 l 405 752 m 116 752 l 174 752 l 174 694 l 116 694 l 116 752 m 405 463 l 463 463 l 463 405 l 405 405 l 405 463 m 347 463 l 405 463 l 405 405 l 347 405 l 347 463 m 289 463 l 347 463 l 347 405 l 289 405 l 289 463 m 231 463 l 289 463 l 289 405 l 231 405 l 231 463 m 174 463 l 231 463 l 231 405 l 174 405 l 174 463 m 116 463 l 174 463 l 174 405 l 116 405 l 116 463 m 58 463 l 116 463 l 116 405 l 58 405 l 58 463 m 463 810 l 521 810 l 521 752 l 463 752 l 463 810 m 463 868 l 521 868 l 521 810 l 463 810 l 463 868 m 463 926 l 521 926 l 521 868 l 463 868 l 463 926 m 463 984 l 521 984 l 521 926 l 463 926 l 463 984 m 463 1042 l 521 1042 l 521 984 l 463 984 l 463 1042 m 463 1100 l 521 1100 l 521 1042 l 463 1042 l 463 1100 m 463 1157 l 521 1157 l 521 1100 l 463 1100 l 463 1157 m 752 1157 l 810 1157 l 810 1100 l 752 1100 l 752 1157 m 752 1100 l 810 1100 l 810 1042 l 752 1042 l 752 1100 m 752 1042 l 810 1042 l 810 984 l 752 984 l 752 1042 m 752 984 l 810 984 l 810 926 l 752 926 l 752 984 m 752 926 l 810 926 l 810 868 l 752 868 l 752 926 m 752 868 l 810 868 l 810 810 l 752 810 l 752 868 m 752 810 l 810 810 l 810 752 l 752 752 l 752 810 m 1157 463 l 1215 463 l 1215 405 l 1157 405 l 1157 463 m 1100 463 l 1157 463 l 1157 405 l 1100 405 l 1100 463 m 1042 463 l 1100 463 l 1100 405 l 1042 405 l 1042 463 m 984 463 l 1042 463 l 1042 405 l 984 405 l 984 463 m 926 463 l 984 463 l 984 405 l 926 405 l 926 463 m 868 463 l 926 463 l 926 405 l 868 405 l 868 463 m 810 463 l 868 463 l 868 405 l 810 405 l 810 463 m 752 405 l 810 405 l 810 347 l 752 347 l 752 405 m 752 347 l 810 347 l 810 289 l 752 289 l 752 347 m 752 289 l 810 289 l 810 231 l 752 231 l 752 289 m 752 231 l 810 231 l 810 174 l 752 174 l 752 231 m 752 174 l 810 174 l 810 116 l 752 116 l 752 174 m 752 116 l 810 116 l 810 58 l 752 58 l 752 116 m 752 58 l 810 58 l 810 0 l 752 0 l 752 58 m 463 405 l 521 405 l 521 347 l 463 347 l 463 405 m 463 347 l 521 347 l 521 289 l 463 289 l 463 347 m 463 289 l 521 289 l 521 231 l 463 231 l 463 289 m 463 231 l 521 231 l 521 174 l 463 174 l 463 231 m 463 174 l 521 174 l 521 116 l 463 116 l 463 174 m 463 116 l 521 116 l 521 58 l 463 58 l 463 116 m 463 58 l 521 58 l 521 0 l 463 0 l 463 58 m 810 752 l 868 752 l 868 694 l 810 694 l 810 752 m 868 752 l 926 752 l 926 694 l 868 694 l 868 752 m 926 752 l 984 752 l 984 694 l 926 694 l 926 752 m 984 752 l 1042 752 l 1042 694 l 984 694 l 984 752 m 1042 752 l 1100 752 l 1100 694 l 1042 694 l 1042 752 m 1100 752 l 1157 752 l 1157 694 l 1100 694 l 1100 752 m 1157 752 l 1215 752 l 1215 694 l 1157 694 l 1157 752 z "},"C":{"ha":1273,"x_min":58,"x_max":1215,"o":"m 58 694 l 116 694 l 116 637 l 58 637 l 58 694 m 58 637 l 116 637 l 116 579 l 58 579 l 58 637 m 58 579 l 116 579 l 116 521 l 58 521 l 58 579 m 58 521 l 116 521 l 116 463 l 58 463 l 58 521 m 116 521 l 174 521 l 174 463 l 116 463 l 116 521 m 174 637 l 231 637 l 231 579 l 174 579 l 174 637 m 116 637 l 174 637 l 174 579 l 116 579 l 116 637 m 116 579 l 174 579 l 174 521 l 116 521 l 116 579 m 116 694 l 174 694 l 174 637 l 116 637 l 116 694 m 174 579 l 231 579 l 231 521 l 174 521 l 174 579 m 231 579 l 289 579 l 289 521 l 231 521 l 231 579 m 289 579 l 347 579 l 347 521 l 289 521 l 289 579 m 347 579 l 405 579 l 405 521 l 347 521 l 347 579 m 405 579 l 463 579 l 463 521 l 405 521 l 405 579 m 405 637 l 463 637 l 463 579 l 405 579 l 405 637 m 347 637 l 405 637 l 405 579 l 347 579 l 347 637 m 289 637 l 347 637 l 347 579 l 289 579 l 289 637 m 231 637 l 289 637 l 289 579 l 231 579 l 231 637 m 521 116 l 579 116 l 579 58 l 521 58 l 521 116 m 521 58 l 579 58 l 579 0 l 521 0 l 521 58 m 579 58 l 637 58 l 637 0 l 579 0 l 579 58 m 637 58 l 694 58 l 694 0 l 637 0 l 637 58 m 694 58 l 752 58 l 752 0 l 694 0 l 694 58 m 694 116 l 752 116 l 752 58 l 694 58 l 694 116 m 579 405 l 637 405 l 637 347 l 579 347 l 579 405 m 579 347 l 637 347 l 637 289 l 579 289 l 579 347 m 579 289 l 637 289 l 637 231 l 579 231 l 579 289 m 579 231 l 637 231 l 637 174 l 579 174 l 579 231 m 579 174 l 637 174 l 637 116 l 579 116 l 579 174 m 579 116 l 637 116 l 637 58 l 579 58 l 579 116 m 637 116 l 694 116 l 694 58 l 637 58 l 637 116 m 637 174 l 694 174 l 694 116 l 637 116 l 637 174 m 637 231 l 694 231 l 694 174 l 637 174 l 637 231 m 637 289 l 694 289 l 694 231 l 637 231 l 637 289 m 637 347 l 694 347 l 694 289 l 637 289 l 637 347 m 637 405 l 694 405 l 694 347 l 637 347 l 637 405 m 694 1157 l 752 1157 l 752 1100 l 694 1100 l 694 1157 m 694 1100 l 752 1100 l 752 1042 l 694 1042 l 694 1100 m 637 1157 l 694 1157 l 694 1100 l 637 1100 l 637 1157 m 579 1157 l 637 1157 l 637 1100 l 579 1100 l 579 1157 m 521 1157 l 579 1157 l 579 1100 l 521 1100 l 521 1157 m 521 1100 l 579 1100 l 579 1042 l 521 1042 l 521 1100 m 579 1100 l 637 1100 l 637 1042 l 579 1042 l 579 1100 m 637 1100 l 694 1100 l 694 1042 l 637 1042 l 637 1100 m 637 1042 l 694 1042 l 694 984 l 637 984 l 637 1042 m 637 984 l 694 984 l 694 926 l 637 926 l 637 984 m 637 926 l 694 926 l 694 868 l 637 868 l 637 926 m 637 868 l 694 868 l 694 810 l 637 810 l 637 868 m 637 810 l 694 810 l 694 752 l 637 752 l 637 810 m 579 810 l 637 810 l 637 752 l 579 752 l 579 810 m 579 868 l 637 868 l 637 810 l 579 810 l 579 868 m 579 926 l 637 926 l 637 868 l 579 868 l 579 926 m 579 984 l 637 984 l 637 926 l 579 926 l 579 984 m 579 1042 l 637 1042 l 637 984 l 579 984 l 579 1042 m 1100 521 l 1157 521 l 1157 463 l 1100 463 l 1100 521 m 1157 521 l 1215 521 l 1215 463 l 1157 463 l 1157 521 m 1157 579 l 1215 579 l 1215 521 l 1157 521 l 1157 579 m 1100 637 l 1157 637 l 1157 579 l 1100 579 l 1100 637 m 1100 694 l 1157 694 l 1157 637 l 1100 637 l 1100 694 m 810 637 l 868 637 l 868 579 l 810 579 l 810 637 m 868 637 l 926 637 l 926 579 l 868 579 l 868 637 m 926 637 l 984 637 l 984 579 l 926 579 l 926 637 m 984 637 l 1042 637 l 1042 579 l 984 579 l 984 637 m 1042 637 l 1100 637 l 1100 579 l 1042 579 l 1042 637 m 1157 637 l 1215 637 l 1215 579 l 1157 579 l 1157 637 m 1157 694 l 1215 694 l 1215 637 l 1157 637 l 1157 694 m 1100 579 l 1157 579 l 1157 521 l 1100 521 l 1100 579 m 1042 579 l 1100 579 l 1100 521 l 1042 521 l 1042 579 m 984 579 l 1042 579 l 1042 521 l 984 521 l 984 579 m 926 579 l 984 579 l 984 521 l 926 521 l 926 579 m 868 579 l 926 579 l 926 521 l 868 521 l 868 579 m 810 579 l 868 579 l 868 521 l 810 521 l 810 579 m 58 752 l 116 752 l 116 694 l 58 694 l 58 752 m 116 752 l 174 752 l 174 694 l 116 694 l 116 752 m 116 463 l 174 463 l 174 405 l 116 405 l 116 463 m 58 463 l 116 463 l 116 405 l 58 405 l 58 463 m 463 1100 l 521 1100 l 521 1042 l 463 1042 l 463 1100 m 463 1157 l 521 1157 l 521 1100 l 463 1100 l 463 1157 m 752 1157 l 810 1157 l 810 1100 l 752 1100 l 752 1157 m 752 1100 l 810 1100 l 810 1042 l 752 1042 l 752 1100 m 1157 463 l 1215 463 l 1215 405 l 1157 405 l 1157 463 m 1100 463 l 1157 463 l 1157 405 l 1100 405 l 1100 463 m 752 58 l 810 58 l 810 0 l 752 0 l 752 58 m 463 116 l 521 116 l 521 58 l 463 58 l 463 116 m 463 58 l 521 58 l 521 0 l 463 0 l 463 58 m 1100 752 l 1157 752 l 1157 694 l 1100 694 l 1100 752 m 1157 752 l 1215 752 l 1215 694 l 1157 694 l 1157 752 m 752 116 l 810 116 l 810 58 l 752 58 l 752 116 m 579 463 l 637 463 l 637 405 l 579 405 l 579 463 m 579 521 l 637 521 l 637 463 l 579 463 l 579 521 m 579 579 l 637 579 l 637 521 l 579 521 l 579 579 m 579 637 l 637 637 l 637 579 l 579 579 l 579 637 m 579 694 l 637 694 l 637 637 l 579 637 l 579 694 m 579 752 l 637 752 l 637 694 l 579 694 l 579 752 m 637 752 l 694 752 l 694 694 l 637 694 l 637 752 m 637 694 l 694 694 l 694 637 l 637 637 l 637 694 m 637 637 l 694 637 l 694 579 l 637 579 l 637 637 m 637 579 l 694 579 l 694 521 l 637 521 l 637 579 m 637 521 l 694 521 l 694 463 l 637 463 l 637 521 m 637 463 l 694 463 l 694 405 l 637 405 l 637 463 m 752 637 l 810 637 l 810 579 l 752 579 l 752 637 m 694 637 l 752 637 l 752 579 l 694 579 l 694 637 m 521 637 l 579 637 l 579 579 l 521 579 l 521 637 m 463 637 l 521 637 l 521 579 l 463 579 l 463 637 m 463 579 l 521 579 l 521 521 l 463 521 l 463 579 m 521 579 l 579 579 l 579 521 l 521 521 l 521 579 m 694 579 l 752 579 l 752 521 l 694 521 l 694 579 m 752 579 l 810 579 l 810 521 l 752 521 l 752 579 z "},"D":{"ha":1273,"x_min":58,"x_max":1215,"o":"m 58 694 l 116 694 l 116 637 l 58 637 l 58 694 m 58 637 l 116 637 l 116 579 l 58 579 l 58 637 m 58 579 l 116 579 l 116 521 l 58 521 l 58 579 m 58 521 l 116 521 l 116 463 l 58 463 l 58 521 m 116 521 l 174 521 l 174 463 l 116 463 l 116 521 m 174 637 l 231 637 l 231 579 l 174 579 l 174 637 m 116 637 l 174 637 l 174 579 l 116 579 l 116 637 m 116 579 l 174 579 l 174 521 l 116 521 l 116 579 m 116 694 l 174 694 l 174 637 l 116 637 l 116 694 m 174 579 l 231 579 l 231 521 l 174 521 l 174 579 m 231 579 l 289 579 l 289 521 l 231 521 l 231 579 m 289 579 l 347 579 l 347 521 l 289 521 l 289 579 m 347 579 l 405 579 l 405 521 l 347 521 l 347 579 m 405 579 l 463 579 l 463 521 l 405 521 l 405 579 m 405 637 l 463 637 l 463 579 l 405 579 l 405 637 m 347 637 l 405 637 l 405 579 l 347 579 l 347 637 m 289 637 l 347 637 l 347 579 l 289 579 l 289 637 m 231 637 l 289 637 l 289 579 l 231 579 l 231 637 m 521 116 l 579 116 l 579 58 l 521 58 l 521 116 m 521 58 l 579 58 l 579 0 l 521 0 l 521 58 m 579 58 l 637 58 l 637 0 l 579 0 l 579 58 m 637 58 l 694 58 l 694 0 l 637 0 l 637 58 m 694 58 l 752 58 l 752 0 l 694 0 l 694 58 m 694 116 l 752 116 l 752 58 l 694 58 l 694 116 m 579 405 l 637 405 l 637 347 l 579 347 l 579 405 m 579 347 l 637 347 l 637 289 l 579 289 l 579 347 m 579 289 l 637 289 l 637 231 l 579 231 l 579 289 m 579 231 l 637 231 l 637 174 l 579 174 l 579 231 m 579 174 l 637 174 l 637 116 l 579 116 l 579 174 m 579 116 l 637 116 l 637 58 l 579 58 l 579 116 m 637 116 l 694 116 l 694 58 l 637 58 l 637 116 m 637 174 l 694 174 l 694 116 l 637 116 l 637 174 m 637 231 l 694 231 l 694 174 l 637 174 l 637 231 m 637 289 l 694 289 l 694 231 l 637 231 l 637 289 m 637 347 l 694 347 l 694 289 l 637 289 l 637 347 m 637 405 l 694 405 l 694 347 l 637 347 l 637 405 m 694 1157 l 752 1157 l 752 1100 l 694 1100 l 694 1157 m 694 1100 l 752 1100 l 752 1042 l 694 1042 l 694 1100 m 637 1157 l 694 1157 l 694 1100 l 637 1100 l 637 1157 m 579 1157 l 637 1157 l 637 1100 l 579 1100 l 579 1157 m 521 1157 l 579 1157 l 579 1100 l 521 1100 l 521 1157 m 521 1100 l 579 1100 l 579 1042 l 521 1042 l 521 1100 m 579 1100 l 637 1100 l 637 1042 l 579 1042 l 579 1100 m 637 1100 l 694 1100 l 694 1042 l 637 1042 l 637 1100 m 637 1042 l 694 1042 l 694 984 l 637 984 l 637 1042 m 637 984 l 694 984 l 694 926 l 637 926 l 637 984 m 637 926 l 694 926 l 694 868 l 637 868 l 637 926 m 637 868 l 694 868 l 694 810 l 637 810 l 637 868 m 637 810 l 694 810 l 694 752 l 637 752 l 637 810 m 579 810 l 637 810 l 637 752 l 579 752 l 579 810 m 579 868 l 637 868 l 637 810 l 579 810 l 579 868 m 579 926 l 637 926 l 637 868 l 579 868 l 579 926 m 579 984 l 637 984 l 637 926 l 579 926 l 579 984 m 579 1042 l 637 1042 l 637 984 l 579 984 l 579 1042 m 1100 521 l 1157 521 l 1157 463 l 1100 463 l 1100 521 m 1157 521 l 1215 521 l 1215 463 l 1157 463 l 1157 521 m 1157 579 l 1215 579 l 1215 521 l 1157 521 l 1157 579 m 1100 637 l 1157 637 l 1157 579 l 1100 579 l 1100 637 m 1100 694 l 1157 694 l 1157 637 l 1100 637 l 1100 694 m 810 637 l 868 637 l 868 579 l 810 579 l 810 637 m 868 637 l 926 637 l 926 579 l 868 579 l 868 637 m 926 637 l 984 637 l 984 579 l 926 579 l 926 637 m 984 637 l 1042 637 l 1042 579 l 984 579 l 984 637 m 1042 637 l 1100 637 l 1100 579 l 1042 579 l 1042 637 m 1157 637 l 1215 637 l 1215 579 l 1157 579 l 1157 637 m 1157 694 l 1215 694 l 1215 637 l 1157 637 l 1157 694 m 1100 579 l 1157 579 l 1157 521 l 1100 521 l 1100 579 m 1042 579 l 1100 579 l 1100 521 l 1042 521 l 1042 579 m 984 579 l 1042 579 l 1042 521 l 984 521 l 984 579 m 926 579 l 984 579 l 984 521 l 926 521 l 926 579 m 868 579 l 926 579 l 926 521 l 868 521 l 868 579 m 810 579 l 868 579 l 868 521 l 810 521 l 810 579 m 58 752 l 116 752 l 116 694 l 58 694 l 58 752 m 116 752 l 174 752 l 174 694 l 116 694 l 116 752 m 116 463 l 174 463 l 174 405 l 116 405 l 116 463 m 58 463 l 116 463 l 116 405 l 58 405 l 58 463 m 463 1100 l 521 1100 l 521 1042 l 463 1042 l 463 1100 m 463 1157 l 521 1157 l 521 1100 l 463 1100 l 463 1157 m 752 1157 l 810 1157 l 810 1100 l 752 1100 l 752 1157 m 752 1100 l 810 1100 l 810 1042 l 752 1042 l 752 1100 m 1157 463 l 1215 463 l 1215 405 l 1157 405 l 1157 463 m 1100 463 l 1157 463 l 1157 405 l 1100 405 l 1100 463 m 752 58 l 810 58 l 810 0 l 752 0 l 752 58 m 463 116 l 521 116 l 521 58 l 463 58 l 463 116 m 463 58 l 521 58 l 521 0 l 463 0 l 463 58 m 1100 752 l 1157 752 l 1157 694 l 1100 694 l 1100 752 m 1157 752 l 1215 752 l 1215 694 l 1157 694 l 1157 752 m 752 116 l 810 116 l 810 58 l 752 58 l 752 116 m 579 463 l 637 463 l 637 405 l 579 405 l 579 463 m 579 521 l 637 521 l 637 463 l 579 463 l 579 521 m 579 579 l 637 579 l 637 521 l 579 521 l 579 579 m 579 637 l 637 637 l 637 579 l 579 579 l 579 637 m 579 694 l 637 694 l 637 637 l 579 637 l 579 694 m 579 752 l 637 752 l 637 694 l 579 694 l 579 752 m 637 752 l 694 752 l 694 694 l 637 694 l 637 752 m 637 694 l 694 694 l 694 637 l 637 637 l 637 694 m 637 637 l 694 637 l 694 579 l 637 579 l 637 637 m 637 579 l 694 579 l 694 521 l 637 521 l 637 579 m 637 521 l 694 521 l 694 463 l 637 463 l 637 521 m 637 463 l 694 463 l 694 405 l 637 405 l 637 463 m 752 637 l 810 637 l 810 579 l 752 579 l 752 637 m 694 637 l 752 637 l 752 579 l 694 579 l 694 637 m 521 637 l 579 637 l 579 579 l 521 579 l 521 637 m 463 637 l 521 637 l 521 579 l 463 579 l 463 637 m 463 579 l 521 579 l 521 521 l 463 521 l 463 579 m 521 579 l 579 579 l 579 521 l 521 521 l 521 579 m 694 579 l 752 579 l 752 521 l 694 521 l 694 579 m 752 579 l 810 579 l 810 521 l 752 521 l 752 579 m 347 694 l 405 694 l 405 637 l 347 637 l 347 694 m 347 521 l 405 521 l 405 463 l 347 463 l 347 521 m 289 521 l 347 521 l 347 463 l 289 463 l 289 521 m 289 694 l 347 694 l 347 637 l 289 637 l 289 694 m 231 752 l 289 752 l 289 694 l 231 694 l 231 752 m 231 694 l 289 694 l 289 637 l 231 637 l 231 694 m 231 521 l 289 521 l 289 463 l 231 463 l 231 521 m 231 463 l 289 463 l 289 405 l 231 405 l 231 463 m 174 694 l 231 694 l 231 637 l 174 637 l 174 694 m 174 752 l 231 752 l 231 694 l 174 694 l 174 752 m 174 463 l 231 463 l 231 405 l 174 405 l 174 463 m 174 521 l 231 521 l 231 463 l 174 463 l 174 521 m 116 405 l 174 405 l 174 347 l 116 347 l 116 405 m 58 405 l 116 405 l 116 347 l 58 347 l 58 405 m 116 810 l 174 810 l 174 752 l 116 752 l 116 810 m 58 810 l 116 810 l 116 752 l 58 752 l 58 810 m 58 868 l 116 868 l 116 810 l 58 810 l 58 868 m 58 347 l 116 347 l 116 289 l 58 289 l 58 347 m 868 694 l 926 694 l 926 637 l 868 637 l 868 694 m 868 521 l 926 521 l 926 463 l 868 463 l 868 521 m 926 521 l 984 521 l 984 463 l 926 463 l 926 521 m 984 521 l 1042 521 l 1042 463 l 984 463 l 984 521 m 1042 521 l 1100 521 l 1100 463 l 1042 463 l 1042 521 m 1042 694 l 1100 694 l 1100 637 l 1042 637 l 1042 694 m 984 694 l 1042 694 l 1042 637 l 984 637 l 984 694 m 926 694 l 984 694 l 984 637 l 926 637 l 926 694 m 984 752 l 1042 752 l 1042 694 l 984 694 l 984 752 m 1042 752 l 1100 752 l 1100 694 l 1042 694 l 1042 752 m 984 463 l 1042 463 l 1042 405 l 984 405 l 984 463 m 1042 463 l 1100 463 l 1100 405 l 1042 405 l 1042 463 m 1100 405 l 1157 405 l 1157 347 l 1100 347 l 1100 405 m 1157 405 l 1215 405 l 1215 347 l 1157 347 l 1157 405 m 1157 347 l 1215 347 l 1215 289 l 1157 289 l 1157 347 m 1100 810 l 1157 810 l 1157 752 l 1100 752 l 1100 810 m 1157 810 l 1215 810 l 1215 752 l 1157 752 l 1157 810 m 1157 868 l 1215 868 l 1215 810 l 1157 810 l 1157 868 m 521 868 l 579 868 l 579 810 l 521 810 l 521 868 m 694 868 l 752 868 l 752 810 l 694 810 l 694 868 m 694 926 l 752 926 l 752 868 l 694 868 l 694 926 m 694 984 l 752 984 l 752 926 l 694 926 l 694 984 m 694 1042 l 752 1042 l 752 984 l 694 984 l 694 1042 m 521 1042 l 579 1042 l 579 984 l 521 984 l 521 1042 m 463 1042 l 521 1042 l 521 984 l 463 984 l 463 1042 m 521 984 l 579 984 l 579 926 l 521 926 l 521 984 m 521 926 l 579 926 l 579 868 l 521 868 l 521 926 m 752 984 l 810 984 l 810 926 l 752 926 l 752 984 m 752 1042 l 810 1042 l 810 984 l 752 984 l 752 1042 m 463 984 l 521 984 l 521 926 l 463 926 l 463 984 m 405 1100 l 463 1100 l 463 1042 l 405 1042 l 405 1100 m 810 1100 l 868 1100 l 868 1042 l 810 1042 l 810 1100 m 868 1157 l 926 1157 l 926 1100 l 868 1100 l 868 1157 m 810 1157 l 868 1157 l 868 1100 l 810 1100 l 810 1157 m 405 1157 l 463 1157 l 463 1100 l 405 1100 l 405 1157 m 347 1157 l 405 1157 l 405 1100 l 347 1100 l 347 1157 m 521 347 l 579 347 l 579 289 l 521 289 l 521 347 m 521 289 l 579 289 l 579 231 l 521 231 l 521 289 m 521 231 l 579 231 l 579 174 l 521 174 l 521 231 m 521 174 l 579 174 l 579 116 l 521 116 l 521 174 m 694 174 l 752 174 l 752 116 l 694 116 l 694 174 m 694 231 l 752 231 l 752 174 l 694 174 l 694 231 m 694 289 l 752 289 l 752 231 l 694 231 l 694 289 m 694 347 l 752 347 l 752 289 l 694 289 l 694 347 m 752 231 l 810 231 l 810 174 l 752 174 l 752 231 m 752 174 l 810 174 l 810 116 l 752 116 l 752 174 m 463 231 l 521 231 l 521 174 l 463 174 l 463 231 m 463 174 l 521 174 l 521 116 l 463 116 l 463 174 m 405 116 l 463 116 l 463 58 l 405 58 l 405 116 m 405 58 l 463 58 l 463 0 l 405 0 l 405 58 m 347 58 l 405 58 l 405 0 l 347 0 l 347 58 m 810 116 l 868 116 l 868 58 l 810 58 l 810 116 m 810 58 l 868 58 l 868 0 l 810 0 l 810 58 m 868 58 l 926 58 l 926 0 l 868 0 l 868 58 z "},"E":{"ha":1273,"x_min":58,"x_max":1215,"o":"m 58 694 l 116 694 l 116 637 l 58 637 l 58 694 m 58 637 l 116 637 l 116 579 l 58 579 l 58 637 m 58 579 l 116 579 l 116 521 l 58 521 l 58 579 m 58 521 l 116 521 l 116 463 l 58 463 l 58 521 m 116 521 l 174 521 l 174 463 l 116 463 l 116 521 m 174 637 l 231 637 l 231 579 l 174 579 l 174 637 m 116 637 l 174 637 l 174 579 l 116 579 l 116 637 m 116 579 l 174 579 l 174 521 l 116 521 l 116 579 m 116 694 l 174 694 l 174 637 l 116 637 l 116 694 m 174 579 l 231 579 l 231 521 l 174 521 l 174 579 m 231 579 l 289 579 l 289 521 l 231 521 l 231 579 m 289 579 l 347 579 l 347 521 l 289 521 l 289 579 m 347 579 l 405 579 l 405 521 l 347 521 l 347 579 m 405 579 l 463 579 l 463 521 l 405 521 l 405 579 m 405 637 l 463 637 l 463 579 l 405 579 l 405 637 m 347 637 l 405 637 l 405 579 l 347 579 l 347 637 m 289 637 l 347 637 l 347 579 l 289 579 l 289 637 m 231 637 l 289 637 l 289 579 l 231 579 l 231 637 m 521 116 l 579 116 l 579 58 l 521 58 l 521 116 m 521 58 l 579 58 l 579 0 l 521 0 l 521 58 m 579 58 l 637 58 l 637 0 l 579 0 l 579 58 m 637 58 l 694 58 l 694 0 l 637 0 l 637 58 m 694 58 l 752 58 l 752 0 l 694 0 l 694 58 m 694 116 l 752 116 l 752 58 l 694 58 l 694 116 m 579 405 l 637 405 l 637 347 l 579 347 l 579 405 m 579 347 l 637 347 l 637 289 l 579 289 l 579 347 m 579 289 l 637 289 l 637 231 l 579 231 l 579 289 m 579 231 l 637 231 l 637 174 l 579 174 l 579 231 m 579 174 l 637 174 l 637 116 l 579 116 l 579 174 m 579 116 l 637 116 l 637 58 l 579 58 l 579 116 m 637 116 l 694 116 l 694 58 l 637 58 l 637 116 m 637 174 l 694 174 l 694 116 l 637 116 l 637 174 m 637 231 l 694 231 l 694 174 l 637 174 l 637 231 m 637 289 l 694 289 l 694 231 l 637 231 l 637 289 m 637 347 l 694 347 l 694 289 l 637 289 l 637 347 m 637 405 l 694 405 l 694 347 l 637 347 l 637 405 m 694 1157 l 752 1157 l 752 1100 l 694 1100 l 694 1157 m 694 1100 l 752 1100 l 752 1042 l 694 1042 l 694 1100 m 637 1157 l 694 1157 l 694 1100 l 637 1100 l 637 1157 m 579 1157 l 637 1157 l 637 1100 l 579 1100 l 579 1157 m 521 1157 l 579 1157 l 579 1100 l 521 1100 l 521 1157 m 521 1100 l 579 1100 l 579 1042 l 521 1042 l 521 1100 m 579 1100 l 637 1100 l 637 1042 l 579 1042 l 579 1100 m 637 1100 l 694 1100 l 694 1042 l 637 1042 l 637 1100 m 637 1042 l 694 1042 l 694 984 l 637 984 l 637 1042 m 637 984 l 694 984 l 694 926 l 637 926 l 637 984 m 637 926 l 694 926 l 694 868 l 637 868 l 637 926 m 637 868 l 694 868 l 694 810 l 637 810 l 637 868 m 579 868 l 637 868 l 637 810 l 579 810 l 579 868 m 579 926 l 637 926 l 637 868 l 579 868 l 579 926 m 579 984 l 637 984 l 637 926 l 579 926 l 579 984 m 579 1042 l 637 1042 l 637 984 l 579 984 l 579 1042 m 1100 521 l 1157 521 l 1157 463 l 1100 463 l 1100 521 m 1157 521 l 1215 521 l 1215 463 l 1157 463 l 1157 521 m 1157 579 l 1215 579 l 1215 521 l 1157 521 l 1157 579 m 1100 637 l 1157 637 l 1157 579 l 1100 579 l 1100 637 m 1100 694 l 1157 694 l 1157 637 l 1100 637 l 1100 694 m 810 637 l 868 637 l 868 579 l 810 579 l 810 637 m 868 637 l 926 637 l 926 579 l 868 579 l 868 637 m 926 637 l 984 637 l 984 579 l 926 579 l 926 637 m 984 637 l 1042 637 l 1042 579 l 984 579 l 984 637 m 1042 637 l 1100 637 l 1100 579 l 1042 579 l 1042 637 m 1157 637 l 1215 637 l 1215 579 l 1157 579 l 1157 637 m 1157 694 l 1215 694 l 1215 637 l 1157 637 l 1157 694 m 1100 579 l 1157 579 l 1157 521 l 1100 521 l 1100 579 m 1042 579 l 1100 579 l 1100 521 l 1042 521 l 1042 579 m 984 579 l 1042 579 l 1042 521 l 984 521 l 984 579 m 926 579 l 984 579 l 984 521 l 926 521 l 926 579 m 868 579 l 926 579 l 926 521 l 868 521 l 868 579 m 810 579 l 868 579 l 868 521 l 810 521 l 810 579 m 579 463 l 637 463 l 637 405 l 579 405 l 579 463 m 579 521 l 637 521 l 637 463 l 579 463 l 579 521 m 579 579 l 637 579 l 637 521 l 579 521 l 579 579 m 579 637 l 637 637 l 637 579 l 579 579 l 579 637 m 579 694 l 637 694 l 637 637 l 579 637 l 579 694 m 579 752 l 637 752 l 637 694 l 579 694 l 579 752 m 637 752 l 694 752 l 694 694 l 637 694 l 637 752 m 637 694 l 694 694 l 694 637 l 637 637 l 637 694 m 637 637 l 694 637 l 694 579 l 637 579 l 637 637 m 637 579 l 694 579 l 694 521 l 637 521 l 637 579 m 637 521 l 694 521 l 694 463 l 637 463 l 637 521 m 637 463 l 694 463 l 694 405 l 637 405 l 637 463 m 752 637 l 810 637 l 810 579 l 752 579 l 752 637 m 694 637 l 752 637 l 752 579 l 694 579 l 694 637 m 521 637 l 579 637 l 579 579 l 521 579 l 521 637 m 463 637 l 521 637 l 521 579 l 463 579 l 463 637 m 463 579 l 521 579 l 521 521 l 463 521 l 463 579 m 521 579 l 579 579 l 579 521 l 521 521 l 521 579 m 694 579 l 752 579 l 752 521 l 694 521 l 694 579 m 752 579 l 810 579 l 810 521 l 752 521 l 752 579 m 347 694 l 405 694 l 405 637 l 347 637 l 347 694 m 347 521 l 405 521 l 405 463 l 347 463 l 347 521 m 289 521 l 347 521 l 347 463 l 289 463 l 289 521 m 289 694 l 347 694 l 347 637 l 289 637 l 289 694 m 231 694 l 289 694 l 289 637 l 231 637 l 231 694 m 231 521 l 289 521 l 289 463 l 231 463 l 231 521 m 174 694 l 231 694 l 231 637 l 174 637 l 174 694 m 174 521 l 231 521 l 231 463 l 174 463 l 174 521 m 868 694 l 926 694 l 926 637 l 868 637 l 868 694 m 868 521 l 926 521 l 926 463 l 868 463 l 868 521 m 926 521 l 984 521 l 984 463 l 926 463 l 926 521 m 984 521 l 1042 521 l 1042 463 l 984 463 l 984 521 m 1042 521 l 1100 521 l 1100 463 l 1042 463 l 1042 521 m 1042 694 l 1100 694 l 1100 637 l 1042 637 l 1042 694 m 984 694 l 1042 694 l 1042 637 l 984 637 l 984 694 m 926 694 l 984 694 l 984 637 l 926 637 l 926 694 m 521 868 l 579 868 l 579 810 l 521 810 l 521 868 m 694 868 l 752 868 l 752 810 l 694 810 l 694 868 m 694 926 l 752 926 l 752 868 l 694 868 l 694 926 m 694 984 l 752 984 l 752 926 l 694 926 l 694 984 m 694 1042 l 752 1042 l 752 984 l 694 984 l 694 1042 m 521 1042 l 579 1042 l 579 984 l 521 984 l 521 1042 m 521 984 l 579 984 l 579 926 l 521 926 l 521 984 m 521 926 l 579 926 l 579 868 l 521 868 l 521 926 m 521 347 l 579 347 l 579 289 l 521 289 l 521 347 m 521 289 l 579 289 l 579 231 l 521 231 l 521 289 m 521 231 l 579 231 l 579 174 l 521 174 l 521 231 m 521 174 l 579 174 l 579 116 l 521 116 l 521 174 m 694 174 l 752 174 l 752 116 l 694 116 l 694 174 m 694 231 l 752 231 l 752 174 l 694 174 l 694 231 m 694 289 l 752 289 l 752 231 l 694 231 l 694 289 m 694 347 l 752 347 l 752 289 l 694 289 l 694 347 m 405 694 l 463 694 l 463 637 l 405 637 l 405 694 m 405 521 l 463 521 l 463 463 l 405 463 l 405 521 m 694 810 l 752 810 l 752 752 l 694 752 l 694 810 m 637 810 l 694 810 l 694 752 l 637 752 l 637 810 m 579 810 l 637 810 l 637 752 l 579 752 l 579 810 m 521 810 l 579 810 l 579 752 l 521 752 l 521 810 m 810 694 l 868 694 l 868 637 l 810 637 l 810 694 m 810 521 l 868 521 l 868 463 l 810 463 l 810 521 m 521 405 l 579 405 l 579 347 l 521 347 l 521 405 m 694 405 l 752 405 l 752 347 l 694 347 l 694 405 m 289 752 l 347 752 l 347 694 l 289 694 l 289 752 m 231 752 l 289 752 l 289 694 l 231 694 l 231 752 m 174 752 l 231 752 l 231 694 l 174 694 l 174 752 m 116 752 l 174 752 l 174 694 l 116 694 l 116 752 m 116 463 l 174 463 l 174 405 l 116 405 l 116 463 m 174 463 l 231 463 l 231 405 l 174 405 l 174 463 m 231 463 l 289 463 l 289 405 l 231 405 l 231 463 m 289 463 l 347 463 l 347 405 l 289 405 l 289 463 m 752 1100 l 810 1100 l 810 1042 l 752 1042 l 752 1100 m 752 1042 l 810 1042 l 810 984 l 752 984 l 752 1042 m 752 984 l 810 984 l 810 926 l 752 926 l 752 984 m 752 926 l 810 926 l 810 868 l 752 868 l 752 926 m 463 1100 l 521 1100 l 521 1042 l 463 1042 l 463 1100 m 463 1042 l 521 1042 l 521 984 l 463 984 l 463 1042 m 463 984 l 521 984 l 521 926 l 463 926 l 463 984 m 463 926 l 521 926 l 521 868 l 463 868 l 463 926 m 1100 463 l 1157 463 l 1157 405 l 1100 405 l 1100 463 m 1042 463 l 1100 463 l 1100 405 l 1042 405 l 1042 463 m 984 463 l 1042 463 l 1042 405 l 984 405 l 984 463 m 926 463 l 984 463 l 984 405 l 926 405 l 926 463 m 1100 752 l 1157 752 l 1157 694 l 1100 694 l 1100 752 m 1042 752 l 1100 752 l 1100 694 l 1042 694 l 1042 752 m 984 752 l 1042 752 l 1042 694 l 984 694 l 984 752 m 926 752 l 984 752 l 984 694 l 926 694 l 926 752 m 463 289 l 521 289 l 521 231 l 463 231 l 463 289 m 463 231 l 521 231 l 521 174 l 463 174 l 463 231 m 463 174 l 521 174 l 521 116 l 463 116 l 463 174 m 463 116 l 521 116 l 521 58 l 463 58 l 463 116 m 752 289 l 810 289 l 810 231 l 752 231 l 752 289 m 752 231 l 810 231 l 810 174 l 752 174 l 752 231 m 752 174 l 810 174 l 810 116 l 752 116 l 752 174 m 752 116 l 810 116 l 810 58 l 752 58 l 752 116 z "},"F":{"ha":1273,"x_min":58,"x_max":1215,"o":"m 58 694 l 116 694 l 116 637 l 58 637 l 58 694 m 58 637 l 116 637 l 116 579 l 58 579 l 58 637 m 58 579 l 116 579 l 116 521 l 58 521 l 58 579 m 58 521 l 116 521 l 116 463 l 58 463 l 58 521 m 116 521 l 174 521 l 174 463 l 116 463 l 116 521 m 174 637 l 231 637 l 231 579 l 174 579 l 174 637 m 116 637 l 174 637 l 174 579 l 116 579 l 116 637 m 116 579 l 174 579 l 174 521 l 116 521 l 116 579 m 116 694 l 174 694 l 174 637 l 116 637 l 116 694 m 174 579 l 231 579 l 231 521 l 174 521 l 174 579 m 231 579 l 289 579 l 289 521 l 231 521 l 231 579 m 289 579 l 347 579 l 347 521 l 289 521 l 289 579 m 347 579 l 405 579 l 405 521 l 347 521 l 347 579 m 405 579 l 463 579 l 463 521 l 405 521 l 405 579 m 405 637 l 463 637 l 463 579 l 405 579 l 405 637 m 347 637 l 405 637 l 405 579 l 347 579 l 347 637 m 289 637 l 347 637 l 347 579 l 289 579 l 289 637 m 231 637 l 289 637 l 289 579 l 231 579 l 231 637 m 521 116 l 579 116 l 579 58 l 521 58 l 521 116 m 521 58 l 579 58 l 579 0 l 521 0 l 521 58 m 579 58 l 637 58 l 637 0 l 579 0 l 579 58 m 637 58 l 694 58 l 694 0 l 637 0 l 637 58 m 694 58 l 752 58 l 752 0 l 694 0 l 694 58 m 694 116 l 752 116 l 752 58 l 694 58 l 694 116 m 579 405 l 637 405 l 637 347 l 579 347 l 579 405 m 579 347 l 637 347 l 637 289 l 579 289 l 579 347 m 579 289 l 637 289 l 637 231 l 579 231 l 579 289 m 579 231 l 637 231 l 637 174 l 579 174 l 579 231 m 579 174 l 637 174 l 637 116 l 579 116 l 579 174 m 579 116 l 637 116 l 637 58 l 579 58 l 579 116 m 637 116 l 694 116 l 694 58 l 637 58 l 637 116 m 637 174 l 694 174 l 694 116 l 637 116 l 637 174 m 637 231 l 694 231 l 694 174 l 637 174 l 637 231 m 637 289 l 694 289 l 694 231 l 637 231 l 637 289 m 637 347 l 694 347 l 694 289 l 637 289 l 637 347 m 637 405 l 694 405 l 694 347 l 637 347 l 637 405 m 694 1157 l 752 1157 l 752 1100 l 694 1100 l 694 1157 m 694 1100 l 752 1100 l 752 1042 l 694 1042 l 694 1100 m 637 1157 l 694 1157 l 694 1100 l 637 1100 l 637 1157 m 579 1157 l 637 1157 l 637 1100 l 579 1100 l 579 1157 m 521 1157 l 579 1157 l 579 1100 l 521 1100 l 521 1157 m 521 1100 l 579 1100 l 579 1042 l 521 1042 l 521 1100 m 579 1100 l 637 1100 l 637 1042 l 579 1042 l 579 1100 m 637 1100 l 694 1100 l 694 1042 l 637 1042 l 637 1100 m 637 1042 l 694 1042 l 694 984 l 637 984 l 637 1042 m 637 984 l 694 984 l 694 926 l 637 926 l 637 984 m 637 926 l 694 926 l 694 868 l 637 868 l 637 926 m 637 868 l 694 868 l 694 810 l 637 810 l 637 868 m 579 868 l 637 868 l 637 810 l 579 810 l 579 868 m 579 926 l 637 926 l 637 868 l 579 868 l 579 926 m 579 984 l 637 984 l 637 926 l 579 926 l 579 984 m 579 1042 l 637 1042 l 637 984 l 579 984 l 579 1042 m 1100 521 l 1157 521 l 1157 463 l 1100 463 l 1100 521 m 1157 521 l 1215 521 l 1215 463 l 1157 463 l 1157 521 m 1157 579 l 1215 579 l 1215 521 l 1157 521 l 1157 579 m 1100 637 l 1157 637 l 1157 579 l 1100 579 l 1100 637 m 1100 694 l 1157 694 l 1157 637 l 1100 637 l 1100 694 m 810 637 l 868 637 l 868 579 l 810 579 l 810 637 m 868 637 l 926 637 l 926 579 l 868 579 l 868 637 m 926 637 l 984 637 l 984 579 l 926 579 l 926 637 m 984 637 l 1042 637 l 1042 579 l 984 579 l 984 637 m 1042 637 l 1100 637 l 1100 579 l 1042 579 l 1042 637 m 1157 637 l 1215 637 l 1215 579 l 1157 579 l 1157 637 m 1157 694 l 1215 694 l 1215 637 l 1157 637 l 1157 694 m 1100 579 l 1157 579 l 1157 521 l 1100 521 l 1100 579 m 1042 579 l 1100 579 l 1100 521 l 1042 521 l 1042 579 m 984 579 l 1042 579 l 1042 521 l 984 521 l 984 579 m 926 579 l 984 579 l 984 521 l 926 521 l 926 579 m 868 579 l 926 579 l 926 521 l 868 521 l 868 579 m 810 579 l 868 579 l 868 521 l 810 521 l 810 579 m 579 463 l 637 463 l 637 405 l 579 405 l 579 463 m 579 521 l 637 521 l 637 463 l 579 463 l 579 521 m 579 579 l 637 579 l 637 521 l 579 521 l 579 579 m 579 637 l 637 637 l 637 579 l 579 579 l 579 637 m 579 694 l 637 694 l 637 637 l 579 637 l 579 694 m 579 752 l 637 752 l 637 694 l 579 694 l 579 752 m 637 752 l 694 752 l 694 694 l 637 694 l 637 752 m 637 694 l 694 694 l 694 637 l 637 637 l 637 694 m 637 637 l 694 637 l 694 579 l 637 579 l 637 637 m 637 579 l 694 579 l 694 521 l 637 521 l 637 579 m 637 521 l 694 521 l 694 463 l 637 463 l 637 521 m 637 463 l 694 463 l 694 405 l 637 405 l 637 463 m 752 637 l 810 637 l 810 579 l 752 579 l 752 637 m 694 637 l 752 637 l 752 579 l 694 579 l 694 637 m 521 637 l 579 637 l 579 579 l 521 579 l 521 637 m 463 637 l 521 637 l 521 579 l 463 579 l 463 637 m 463 579 l 521 579 l 521 521 l 463 521 l 463 579 m 521 579 l 579 579 l 579 521 l 521 521 l 521 579 m 694 579 l 752 579 l 752 521 l 694 521 l 694 579 m 752 579 l 810 579 l 810 521 l 752 521 l 752 579 m 347 694 l 405 694 l 405 637 l 347 637 l 347 694 m 347 521 l 405 521 l 405 463 l 347 463 l 347 521 m 289 521 l 347 521 l 347 463 l 289 463 l 289 521 m 289 694 l 347 694 l 347 637 l 289 637 l 289 694 m 231 694 l 289 694 l 289 637 l 231 637 l 231 694 m 231 521 l 289 521 l 289 463 l 231 463 l 231 521 m 174 694 l 231 694 l 231 637 l 174 637 l 174 694 m 174 521 l 231 521 l 231 463 l 174 463 l 174 521 m 868 694 l 926 694 l 926 637 l 868 637 l 868 694 m 868 521 l 926 521 l 926 463 l 868 463 l 868 521 m 926 521 l 984 521 l 984 463 l 926 463 l 926 521 m 984 521 l 1042 521 l 1042 463 l 984 463 l 984 521 m 1042 521 l 1100 521 l 1100 463 l 1042 463 l 1042 521 m 1042 694 l 1100 694 l 1100 637 l 1042 637 l 1042 694 m 984 694 l 1042 694 l 1042 637 l 984 637 l 984 694 m 926 694 l 984 694 l 984 637 l 926 637 l 926 694 m 521 868 l 579 868 l 579 810 l 521 810 l 521 868 m 694 868 l 752 868 l 752 810 l 694 810 l 694 868 m 694 926 l 752 926 l 752 868 l 694 868 l 694 926 m 694 984 l 752 984 l 752 926 l 694 926 l 694 984 m 694 1042 l 752 1042 l 752 984 l 694 984 l 694 1042 m 521 1042 l 579 1042 l 579 984 l 521 984 l 521 1042 m 521 984 l 579 984 l 579 926 l 521 926 l 521 984 m 521 926 l 579 926 l 579 868 l 521 868 l 521 926 m 521 347 l 579 347 l 579 289 l 521 289 l 521 347 m 521 289 l 579 289 l 579 231 l 521 231 l 521 289 m 521 231 l 579 231 l 579 174 l 521 174 l 521 231 m 521 174 l 579 174 l 579 116 l 521 116 l 521 174 m 694 174 l 752 174 l 752 116 l 694 116 l 694 174 m 694 231 l 752 231 l 752 174 l 694 174 l 694 231 m 694 289 l 752 289 l 752 231 l 694 231 l 694 289 m 694 347 l 752 347 l 752 289 l 694 289 l 694 347 m 637 810 l 694 810 l 694 752 l 637 752 l 637 810 m 579 810 l 637 810 l 637 752 l 579 752 l 579 810 m 289 752 l 347 752 l 347 694 l 289 694 l 289 752 m 231 752 l 289 752 l 289 694 l 231 694 l 231 752 m 174 752 l 231 752 l 231 694 l 174 694 l 174 752 m 116 752 l 174 752 l 174 694 l 116 694 l 116 752 m 116 463 l 174 463 l 174 405 l 116 405 l 116 463 m 174 463 l 231 463 l 231 405 l 174 405 l 174 463 m 231 463 l 289 463 l 289 405 l 231 405 l 231 463 m 289 463 l 347 463 l 347 405 l 289 405 l 289 463 m 752 1100 l 810 1100 l 810 1042 l 752 1042 l 752 1100 m 752 1042 l 810 1042 l 810 984 l 752 984 l 752 1042 m 752 984 l 810 984 l 810 926 l 752 926 l 752 984 m 752 926 l 810 926 l 810 868 l 752 868 l 752 926 m 463 1100 l 521 1100 l 521 1042 l 463 1042 l 463 1100 m 463 1042 l 521 1042 l 521 984 l 463 984 l 463 1042 m 463 984 l 521 984 l 521 926 l 463 926 l 463 984 m 463 926 l 521 926 l 521 868 l 463 868 l 463 926 m 1100 463 l 1157 463 l 1157 405 l 1100 405 l 1100 463 m 1042 463 l 1100 463 l 1100 405 l 1042 405 l 1042 463 m 984 463 l 1042 463 l 1042 405 l 984 405 l 984 463 m 926 463 l 984 463 l 984 405 l 926 405 l 926 463 m 1100 752 l 1157 752 l 1157 694 l 1100 694 l 1100 752 m 1042 752 l 1100 752 l 1100 694 l 1042 694 l 1042 752 m 984 752 l 1042 752 l 1042 694 l 984 694 l 984 752 m 926 752 l 984 752 l 984 694 l 926 694 l 926 752 m 463 289 l 521 289 l 521 231 l 463 231 l 463 289 m 463 231 l 521 231 l 521 174 l 463 174 l 463 231 m 463 174 l 521 174 l 521 116 l 463 116 l 463 174 m 463 116 l 521 116 l 521 58 l 463 58 l 463 116 m 752 289 l 810 289 l 810 231 l 752 231 l 752 289 m 752 231 l 810 231 l 810 174 l 752 174 l 752 231 m 752 174 l 810 174 l 810 116 l 752 116 l 752 174 m 752 116 l 810 116 l 810 58 l 752 58 l 752 116 m 521 694 l 579 694 l 579 637 l 521 637 l 521 694 m 694 694 l 752 694 l 752 637 l 694 637 l 694 694 m 694 521 l 752 521 l 752 463 l 694 463 l 694 521 m 521 521 l 579 521 l 579 463 l 521 463 l 521 521 m 174 405 l 231 405 l 231 347 l 174 347 l 174 405 m 231 405 l 289 405 l 289 347 l 231 347 l 231 405 m 174 810 l 231 810 l 231 752 l 174 752 l 174 810 m 231 810 l 289 810 l 289 752 l 231 752 l 231 810 m 405 231 l 463 231 l 463 174 l 405 174 l 405 231 m 405 174 l 463 174 l 463 116 l 405 116 l 405 174 m 810 231 l 868 231 l 868 174 l 810 174 l 810 231 m 810 174 l 868 174 l 868 116 l 810 116 l 810 174 m 984 405 l 1042 405 l 1042 347 l 984 347 l 984 405 m 1042 405 l 1100 405 l 1100 347 l 1042 347 l 1042 405 m 984 810 l 1042 810 l 1042 752 l 984 752 l 984 810 m 1042 810 l 1100 810 l 1100 752 l 1042 752 l 1042 810 m 810 1042 l 868 1042 l 868 984 l 810 984 l 810 1042 m 810 984 l 868 984 l 868 926 l 810 926 l 810 984 m 405 1042 l 463 1042 l 463 984 l 405 984 l 405 1042 m 405 984 l 463 984 l 463 926 l 405 926 l 405 984 z "},"G":{"ha":1273,"x_min":58,"x_max":1215,"o":"m 58 694 l 116 694 l 116 637 l 58 637 l 58 694 m 58 637 l 116 637 l 116 579 l 58 579 l 58 637 m 58 579 l 116 579 l 116 521 l 58 521 l 58 579 m 58 521 l 116 521 l 116 463 l 58 463 l 58 521 m 116 521 l 174 521 l 174 463 l 116 463 l 116 521 m 174 637 l 231 637 l 231 579 l 174 579 l 174 637 m 116 637 l 174 637 l 174 579 l 116 579 l 116 637 m 116 579 l 174 579 l 174 521 l 116 521 l 116 579 m 116 694 l 174 694 l 174 637 l 116 637 l 116 694 m 174 579 l 231 579 l 231 521 l 174 521 l 174 579 m 231 579 l 289 579 l 289 521 l 231 521 l 231 579 m 289 579 l 347 579 l 347 521 l 289 521 l 289 579 m 347 579 l 405 579 l 405 521 l 347 521 l 347 579 m 405 579 l 463 579 l 463 521 l 405 521 l 405 579 m 405 637 l 463 637 l 463 579 l 405 579 l 405 637 m 347 637 l 405 637 l 405 579 l 347 579 l 347 637 m 289 637 l 347 637 l 347 579 l 289 579 l 289 637 m 231 637 l 289 637 l 289 579 l 231 579 l 231 637 m 521 116 l 579 116 l 579 58 l 521 58 l 521 116 m 521 58 l 579 58 l 579 0 l 521 0 l 521 58 m 579 58 l 637 58 l 637 0 l 579 0 l 579 58 m 637 58 l 694 58 l 694 0 l 637 0 l 637 58 m 694 58 l 752 58 l 752 0 l 694 0 l 694 58 m 694 116 l 752 116 l 752 58 l 694 58 l 694 116 m 579 405 l 637 405 l 637 347 l 579 347 l 579 405 m 579 347 l 637 347 l 637 289 l 579 289 l 579 347 m 579 289 l 637 289 l 637 231 l 579 231 l 579 289 m 579 231 l 637 231 l 637 174 l 579 174 l 579 231 m 579 174 l 637 174 l 637 116 l 579 116 l 579 174 m 579 116 l 637 116 l 637 58 l 579 58 l 579 116 m 637 116 l 694 116 l 694 58 l 637 58 l 637 116 m 637 174 l 694 174 l 694 116 l 637 116 l 637 174 m 637 231 l 694 231 l 694 174 l 637 174 l 637 231 m 637 289 l 694 289 l 694 231 l 637 231 l 637 289 m 637 347 l 694 347 l 694 289 l 637 289 l 637 347 m 637 405 l 694 405 l 694 347 l 637 347 l 637 405 m 694 1157 l 752 1157 l 752 1100 l 694 1100 l 694 1157 m 694 1100 l 752 1100 l 752 1042 l 694 1042 l 694 1100 m 637 1157 l 694 1157 l 694 1100 l 637 1100 l 637 1157 m 579 1157 l 637 1157 l 637 1100 l 579 1100 l 579 1157 m 521 1157 l 579 1157 l 579 1100 l 521 1100 l 521 1157 m 521 1100 l 579 1100 l 579 1042 l 521 1042 l 521 1100 m 579 1100 l 637 1100 l 637 1042 l 579 1042 l 579 1100 m 637 1100 l 694 1100 l 694 1042 l 637 1042 l 637 1100 m 637 1042 l 694 1042 l 694 984 l 637 984 l 637 1042 m 637 984 l 694 984 l 694 926 l 637 926 l 637 984 m 637 926 l 694 926 l 694 868 l 637 868 l 637 926 m 637 868 l 694 868 l 694 810 l 637 810 l 637 868 m 579 868 l 637 868 l 637 810 l 579 810 l 579 868 m 579 926 l 637 926 l 637 868 l 579 868 l 579 926 m 579 984 l 637 984 l 637 926 l 579 926 l 579 984 m 579 1042 l 637 1042 l 637 984 l 579 984 l 579 1042 m 1100 521 l 1157 521 l 1157 463 l 1100 463 l 1100 521 m 1157 521 l 1215 521 l 1215 463 l 1157 463 l 1157 521 m 1157 579 l 1215 579 l 1215 521 l 1157 521 l 1157 579 m 1100 637 l 1157 637 l 1157 579 l 1100 579 l 1100 637 m 1100 694 l 1157 694 l 1157 637 l 1100 637 l 1100 694 m 810 637 l 868 637 l 868 579 l 810 579 l 810 637 m 868 637 l 926 637 l 926 579 l 868 579 l 868 637 m 926 637 l 984 637 l 984 579 l 926 579 l 926 637 m 984 637 l 1042 637 l 1042 579 l 984 579 l 984 637 m 1042 637 l 1100 637 l 1100 579 l 1042 579 l 1042 637 m 1157 637 l 1215 637 l 1215 579 l 1157 579 l 1157 637 m 1157 694 l 1215 694 l 1215 637 l 1157 637 l 1157 694 m 1100 579 l 1157 579 l 1157 521 l 1100 521 l 1100 579 m 1042 579 l 1100 579 l 1100 521 l 1042 521 l 1042 579 m 984 579 l 1042 579 l 1042 521 l 984 521 l 984 579 m 926 579 l 984 579 l 984 521 l 926 521 l 926 579 m 868 579 l 926 579 l 926 521 l 868 521 l 868 579 m 810 579 l 868 579 l 868 521 l 810 521 l 810 579 m 579 463 l 637 463 l 637 405 l 579 405 l 579 463 m 579 521 l 637 521 l 637 463 l 579 463 l 579 521 m 579 579 l 637 579 l 637 521 l 579 521 l 579 579 m 579 637 l 637 637 l 637 579 l 579 579 l 579 637 m 579 694 l 637 694 l 637 637 l 579 637 l 579 694 m 579 752 l 637 752 l 637 694 l 579 694 l 579 752 m 637 752 l 694 752 l 694 694 l 637 694 l 637 752 m 637 694 l 694 694 l 694 637 l 637 637 l 637 694 m 637 637 l 694 637 l 694 579 l 637 579 l 637 637 m 637 579 l 694 579 l 694 521 l 637 521 l 637 579 m 637 521 l 694 521 l 694 463 l 637 463 l 637 521 m 637 463 l 694 463 l 694 405 l 637 405 l 637 463 m 752 637 l 810 637 l 810 579 l 752 579 l 752 637 m 694 637 l 752 637 l 752 579 l 694 579 l 694 637 m 521 637 l 579 637 l 579 579 l 521 579 l 521 637 m 463 637 l 521 637 l 521 579 l 463 579 l 463 637 m 463 579 l 521 579 l 521 521 l 463 521 l 463 579 m 521 579 l 579 579 l 579 521 l 521 521 l 521 579 m 694 579 l 752 579 l 752 521 l 694 521 l 694 579 m 752 579 l 810 579 l 810 521 l 752 521 l 752 579 m 347 694 l 405 694 l 405 637 l 347 637 l 347 694 m 347 521 l 405 521 l 405 463 l 347 463 l 347 521 m 289 521 l 347 521 l 347 463 l 289 463 l 289 521 m 289 694 l 347 694 l 347 637 l 289 637 l 289 694 m 231 694 l 289 694 l 289 637 l 231 637 l 231 694 m 231 521 l 289 521 l 289 463 l 231 463 l 231 521 m 174 694 l 231 694 l 231 637 l 174 637 l 174 694 m 174 521 l 231 521 l 231 463 l 174 463 l 174 521 m 868 694 l 926 694 l 926 637 l 868 637 l 868 694 m 868 521 l 926 521 l 926 463 l 868 463 l 868 521 m 926 521 l 984 521 l 984 463 l 926 463 l 926 521 m 984 521 l 1042 521 l 1042 463 l 984 463 l 984 521 m 1042 521 l 1100 521 l 1100 463 l 1042 463 l 1042 521 m 1042 694 l 1100 694 l 1100 637 l 1042 637 l 1042 694 m 984 694 l 1042 694 l 1042 637 l 984 637 l 984 694 m 926 694 l 984 694 l 984 637 l 926 637 l 926 694 m 521 868 l 579 868 l 579 810 l 521 810 l 521 868 m 694 868 l 752 868 l 752 810 l 694 810 l 694 868 m 694 926 l 752 926 l 752 868 l 694 868 l 694 926 m 694 984 l 752 984 l 752 926 l 694 926 l 694 984 m 694 1042 l 752 1042 l 752 984 l 694 984 l 694 1042 m 521 1042 l 579 1042 l 579 984 l 521 984 l 521 1042 m 521 984 l 579 984 l 579 926 l 521 926 l 521 984 m 521 926 l 579 926 l 579 868 l 521 868 l 521 926 m 521 347 l 579 347 l 579 289 l 521 289 l 521 347 m 521 289 l 579 289 l 579 231 l 521 231 l 521 289 m 521 231 l 579 231 l 579 174 l 521 174 l 521 231 m 521 174 l 579 174 l 579 116 l 521 116 l 521 174 m 694 174 l 752 174 l 752 116 l 694 116 l 694 174 m 694 231 l 752 231 l 752 174 l 694 174 l 694 231 m 694 289 l 752 289 l 752 231 l 694 231 l 694 289 m 694 347 l 752 347 l 752 289 l 694 289 l 694 347 m 637 810 l 694 810 l 694 752 l 637 752 l 637 810 m 579 810 l 637 810 l 637 752 l 579 752 l 579 810 m 289 752 l 347 752 l 347 694 l 289 694 l 289 752 m 231 752 l 289 752 l 289 694 l 231 694 l 231 752 m 174 752 l 231 752 l 231 694 l 174 694 l 174 752 m 116 752 l 174 752 l 174 694 l 116 694 l 116 752 m 116 463 l 174 463 l 174 405 l 116 405 l 116 463 m 174 463 l 231 463 l 231 405 l 174 405 l 174 463 m 231 463 l 289 463 l 289 405 l 231 405 l 231 463 m 289 463 l 347 463 l 347 405 l 289 405 l 289 463 m 752 1100 l 810 1100 l 810 1042 l 752 1042 l 752 1100 m 752 1042 l 810 1042 l 810 984 l 752 984 l 752 1042 m 752 984 l 810 984 l 810 926 l 752 926 l 752 984 m 752 926 l 810 926 l 810 868 l 752 868 l 752 926 m 463 1100 l 521 1100 l 521 1042 l 463 1042 l 463 1100 m 463 1042 l 521 1042 l 521 984 l 463 984 l 463 1042 m 463 984 l 521 984 l 521 926 l 463 926 l 463 984 m 463 926 l 521 926 l 521 868 l 463 868 l 463 926 m 1100 463 l 1157 463 l 1157 405 l 1100 405 l 1100 463 m 1042 463 l 1100 463 l 1100 405 l 1042 405 l 1042 463 m 984 463 l 1042 463 l 1042 405 l 984 405 l 984 463 m 926 463 l 984 463 l 984 405 l 926 405 l 926 463 m 1100 752 l 1157 752 l 1157 694 l 1100 694 l 1100 752 m 1042 752 l 1100 752 l 1100 694 l 1042 694 l 1042 752 m 984 752 l 1042 752 l 1042 694 l 984 694 l 984 752 m 926 752 l 984 752 l 984 694 l 926 694 l 926 752 m 463 289 l 521 289 l 521 231 l 463 231 l 463 289 m 463 231 l 521 231 l 521 174 l 463 174 l 463 231 m 463 174 l 521 174 l 521 116 l 463 116 l 463 174 m 463 116 l 521 116 l 521 58 l 463 58 l 463 116 m 752 289 l 810 289 l 810 231 l 752 231 l 752 289 m 752 231 l 810 231 l 810 174 l 752 174 l 752 231 m 752 174 l 810 174 l 810 116 l 752 116 l 752 174 m 752 116 l 810 116 l 810 58 l 752 58 l 752 116 m 174 405 l 231 405 l 231 347 l 174 347 l 174 405 m 231 405 l 289 405 l 289 347 l 231 347 l 231 405 m 174 810 l 231 810 l 231 752 l 174 752 l 174 810 m 231 810 l 289 810 l 289 752 l 231 752 l 231 810 m 405 231 l 463 231 l 463 174 l 405 174 l 405 231 m 405 174 l 463 174 l 463 116 l 405 116 l 405 174 m 810 231 l 868 231 l 868 174 l 810 174 l 810 231 m 810 174 l 868 174 l 868 116 l 810 116 l 810 174 m 984 405 l 1042 405 l 1042 347 l 984 347 l 984 405 m 1042 405 l 1100 405 l 1100 347 l 1042 347 l 1042 405 m 984 810 l 1042 810 l 1042 752 l 984 752 l 984 810 m 1042 810 l 1100 810 l 1100 752 l 1042 752 l 1042 810 m 810 1042 l 868 1042 l 868 984 l 810 984 l 810 1042 m 810 984 l 868 984 l 868 926 l 810 926 l 810 984 m 405 1042 l 463 1042 l 463 984 l 405 984 l 405 1042 m 405 984 l 463 984 l 463 926 l 405 926 l 405 984 m 405 521 l 463 521 l 463 463 l 405 463 l 405 521 m 347 463 l 405 463 l 405 405 l 347 405 l 347 463 m 289 405 l 347 405 l 347 347 l 289 347 l 289 405 m 405 694 l 463 694 l 463 637 l 405 637 l 405 694 m 347 752 l 405 752 l 405 694 l 347 694 l 347 752 m 289 810 l 347 810 l 347 752 l 289 752 l 289 810 m 521 810 l 579 810 l 579 752 l 521 752 l 521 810 m 463 868 l 521 868 l 521 810 l 463 810 l 463 868 m 405 926 l 463 926 l 463 868 l 405 868 l 405 926 m 694 810 l 752 810 l 752 752 l 694 752 l 694 810 m 752 868 l 810 868 l 810 810 l 752 810 l 752 868 m 810 926 l 868 926 l 868 868 l 810 868 l 810 926 m 810 694 l 868 694 l 868 637 l 810 637 l 810 694 m 868 752 l 926 752 l 926 694 l 868 694 l 868 752 m 926 810 l 984 810 l 984 752 l 926 752 l 926 810 m 810 521 l 868 521 l 868 463 l 810 463 l 810 521 m 868 463 l 926 463 l 926 405 l 868 405 l 868 463 m 926 405 l 984 405 l 984 347 l 926 347 l 926 405 m 694 405 l 752 405 l 752 347 l 694 347 l 694 405 m 752 347 l 810 347 l 810 289 l 752 289 l 752 347 m 810 289 l 868 289 l 868 231 l 810 231 l 810 289 m 521 405 l 579 405 l 579 347 l 521 347 l 521 405 m 463 347 l 521 347 l 521 289 l 463 289 l 463 347 m 405 289 l 463 289 l 463 231 l 405 231 l 405 289 z "},"H":{"ha":1273,"x_min":58,"x_max":1215,"o":"m 58 637 l 116 637 l 116 579 l 58 579 l 58 637 m 116 637 l 174 637 l 174 579 l 116 579 l 116 637 m 174 637 l 231 637 l 231 579 l 174 579 l 174 637 m 231 637 l 289 637 l 289 579 l 231 579 l 231 637 m 231 579 l 289 579 l 289 521 l 231 521 l 231 579 m 174 579 l 231 579 l 231 521 l 174 521 l 174 579 m 116 579 l 174 579 l 174 521 l 116 521 l 116 579 m 58 579 l 116 579 l 116 521 l 58 521 l 58 579 m 289 637 l 347 637 l 347 579 l 289 579 l 289 637 m 347 637 l 405 637 l 405 579 l 347 579 l 347 637 m 405 637 l 463 637 l 463 579 l 405 579 l 405 637 m 463 637 l 521 637 l 521 579 l 463 579 l 463 637 m 463 579 l 521 579 l 521 521 l 463 521 l 463 579 m 405 579 l 463 579 l 463 521 l 405 521 l 405 579 m 347 579 l 405 579 l 405 521 l 347 521 l 347 579 m 289 579 l 347 579 l 347 521 l 289 521 l 289 579 m 752 579 l 810 579 l 810 521 l 752 521 l 752 579 m 752 637 l 810 637 l 810 579 l 752 579 l 752 637 m 810 637 l 868 637 l 868 579 l 810 579 l 810 637 m 868 637 l 926 637 l 926 579 l 868 579 l 868 637 m 926 637 l 984 637 l 984 579 l 926 579 l 926 637 m 984 637 l 1042 637 l 1042 579 l 984 579 l 984 637 m 984 579 l 1042 579 l 1042 521 l 984 521 l 984 579 m 926 579 l 984 579 l 984 521 l 926 521 l 926 579 m 868 579 l 926 579 l 926 521 l 868 521 l 868 579 m 810 579 l 868 579 l 868 521 l 810 521 l 810 579 m 1042 637 l 1100 637 l 1100 579 l 1042 579 l 1042 637 m 1100 637 l 1157 637 l 1157 579 l 1100 579 l 1100 637 m 1157 637 l 1215 637 l 1215 579 l 1157 579 l 1157 637 m 1157 579 l 1215 579 l 1215 521 l 1157 521 l 1157 579 m 1100 579 l 1157 579 l 1157 521 l 1100 521 l 1100 579 m 1042 579 l 1100 579 l 1100 521 l 1042 521 l 1042 579 m 579 637 l 637 637 l 637 579 l 579 579 l 579 637 m 637 637 l 694 637 l 694 579 l 637 579 l 637 637 m 637 579 l 694 579 l 694 521 l 637 521 l 637 579 m 579 579 l 637 579 l 637 521 l 579 521 l 579 579 m 579 752 l 637 752 l 637 694 l 579 694 l 579 752 m 579 810 l 637 810 l 637 752 l 579 752 l 579 810 m 579 868 l 637 868 l 637 810 l 579 810 l 579 868 m 637 868 l 694 868 l 694 810 l 637 810 l 637 868 m 637 926 l 694 926 l 694 868 l 637 868 l 637 926 m 637 810 l 694 810 l 694 752 l 637 752 l 637 810 m 637 752 l 694 752 l 694 694 l 637 694 l 637 752 m 579 926 l 637 926 l 637 868 l 579 868 l 579 926 m 579 984 l 637 984 l 637 926 l 579 926 l 579 984 m 579 1042 l 637 1042 l 637 984 l 579 984 l 579 1042 m 637 1042 l 694 1042 l 694 984 l 637 984 l 637 1042 m 637 984 l 694 984 l 694 926 l 637 926 l 637 984 m 637 1100 l 694 1100 l 694 1042 l 637 1042 l 637 1100 m 579 1100 l 637 1100 l 637 1042 l 579 1042 l 579 1100 m 579 463 l 637 463 l 637 405 l 579 405 l 579 463 m 637 463 l 694 463 l 694 405 l 637 405 l 637 463 m 637 405 l 694 405 l 694 347 l 637 347 l 637 405 m 637 347 l 694 347 l 694 289 l 637 289 l 637 347 m 637 289 l 694 289 l 694 231 l 637 231 l 637 289 m 637 231 l 694 231 l 694 174 l 637 174 l 637 231 m 637 174 l 694 174 l 694 116 l 637 116 l 637 174 m 637 116 l 694 116 l 694 58 l 637 58 l 637 116 m 579 116 l 637 116 l 637 58 l 579 58 l 579 116 m 579 174 l 637 174 l 637 116 l 579 116 l 579 174 m 579 231 l 637 231 l 637 174 l 579 174 l 579 231 m 579 289 l 637 289 l 637 231 l 579 231 l 579 289 m 579 347 l 637 347 l 637 289 l 579 289 l 579 347 m 579 405 l 637 405 l 637 347 l 579 347 l 579 405 m 637 58 l 694 58 l 694 0 l 637 0 l 637 58 m 579 58 l 637 58 l 637 0 l 579 0 l 579 58 m 637 1157 l 694 1157 l 694 1100 l 637 1100 l 637 1157 m 579 1157 l 637 1157 l 637 1100 l 579 1100 l 579 1157 m 752 752 l 810 752 l 810 694 l 752 694 l 752 752 m 752 810 l 810 810 l 810 752 l 752 752 l 752 810 m 810 810 l 868 810 l 868 752 l 810 752 l 810 810 m 810 752 l 868 752 l 868 694 l 810 694 l 810 752 m 463 752 l 521 752 l 521 694 l 463 694 l 463 752 m 405 752 l 463 752 l 463 694 l 405 694 l 405 752 m 405 810 l 463 810 l 463 752 l 405 752 l 405 810 m 463 810 l 521 810 l 521 752 l 463 752 l 463 810 m 405 868 l 463 868 l 463 810 l 405 810 l 405 868 m 347 868 l 405 868 l 405 810 l 347 810 l 347 868 m 347 810 l 405 810 l 405 752 l 347 752 l 347 810 m 347 926 l 405 926 l 405 868 l 347 868 l 347 926 m 289 926 l 347 926 l 347 868 l 289 868 l 289 926 m 289 868 l 347 868 l 347 810 l 289 810 l 289 868 m 289 984 l 347 984 l 347 926 l 289 926 l 289 984 m 231 984 l 289 984 l 289 926 l 231 926 l 231 984 m 231 926 l 289 926 l 289 868 l 231 868 l 231 926 m 463 463 l 521 463 l 521 405 l 463 405 l 463 463 m 405 463 l 463 463 l 463 405 l 405 405 l 405 463 m 405 405 l 463 405 l 463 347 l 405 347 l 405 405 m 463 405 l 521 405 l 521 347 l 463 347 l 463 405 m 752 405 l 810 405 l 810 347 l 752 347 l 752 405 m 752 463 l 810 463 l 810 405 l 752 405 l 752 463 m 810 463 l 868 463 l 868 405 l 810 405 l 810 463 m 810 405 l 868 405 l 868 347 l 810 347 l 810 405 m 694 694 l 752 694 l 752 637 l 694 637 l 694 694 m 637 694 l 694 694 l 694 637 l 637 637 l 637 694 m 579 694 l 637 694 l 637 637 l 579 637 l 579 694 m 521 694 l 579 694 l 579 637 l 521 637 l 521 694 m 521 637 l 579 637 l 579 579 l 521 579 l 521 637 m 521 579 l 579 579 l 579 521 l 521 521 l 521 579 m 521 521 l 579 521 l 579 463 l 521 463 l 521 521 m 579 521 l 637 521 l 637 463 l 579 463 l 579 521 m 637 521 l 694 521 l 694 463 l 637 463 l 637 521 m 694 521 l 752 521 l 752 463 l 694 463 l 694 521 m 694 579 l 752 579 l 752 521 l 694 521 l 694 579 m 694 637 l 752 637 l 752 579 l 694 579 l 694 637 m 463 694 l 521 694 l 521 637 l 463 637 l 463 694 m 521 752 l 579 752 l 579 694 l 521 694 l 521 752 m 463 521 l 521 521 l 521 463 l 463 463 l 463 521 m 521 463 l 579 463 l 579 405 l 521 405 l 521 463 m 694 463 l 752 463 l 752 405 l 694 405 l 694 463 m 752 521 l 810 521 l 810 463 l 752 463 l 752 521 m 752 694 l 810 694 l 810 637 l 752 637 l 752 694 m 694 752 l 752 752 l 752 694 l 694 694 l 694 752 m 58 694 l 116 694 l 116 637 l 58 637 l 58 694 m 58 521 l 116 521 l 116 463 l 58 463 l 58 521 m 116 521 l 174 521 l 174 463 l 116 463 l 116 521 m 174 521 l 231 521 l 231 463 l 174 463 l 174 521 m 174 694 l 231 694 l 231 637 l 174 637 l 174 694 m 116 694 l 174 694 l 174 637 l 116 637 l 116 694 m 231 521 l 289 521 l 289 463 l 231 463 l 231 521 m 231 694 l 289 694 l 289 637 l 231 637 l 231 694 m 116 463 l 174 463 l 174 405 l 116 405 l 116 463 m 174 463 l 231 463 l 231 405 l 174 405 l 174 463 m 116 752 l 174 752 l 174 694 l 116 694 l 116 752 m 174 752 l 231 752 l 231 694 l 174 694 l 174 752 m 1157 694 l 1215 694 l 1215 637 l 1157 637 l 1157 694 m 1100 694 l 1157 694 l 1157 637 l 1100 637 l 1100 694 m 1100 521 l 1157 521 l 1157 463 l 1100 463 l 1100 521 m 1157 521 l 1215 521 l 1215 463 l 1157 463 l 1157 521 m 1042 694 l 1100 694 l 1100 637 l 1042 637 l 1042 694 m 984 694 l 1042 694 l 1042 637 l 984 637 l 984 694 m 984 521 l 1042 521 l 1042 463 l 984 463 l 984 521 m 1042 521 l 1100 521 l 1100 463 l 1042 463 l 1042 521 m 1042 463 l 1100 463 l 1100 405 l 1042 405 l 1042 463 m 1100 463 l 1157 463 l 1157 405 l 1100 405 l 1100 463 m 1042 752 l 1100 752 l 1100 694 l 1042 694 l 1042 752 m 1100 752 l 1157 752 l 1157 694 l 1100 694 l 1100 752 m 521 58 l 579 58 l 579 0 l 521 0 l 521 58 m 521 116 l 579 116 l 579 58 l 521 58 l 521 116 m 521 174 l 579 174 l 579 116 l 521 116 l 521 174 m 521 231 l 579 231 l 579 174 l 521 174 l 521 231 m 694 231 l 752 231 l 752 174 l 694 174 l 694 231 m 694 174 l 752 174 l 752 116 l 694 116 l 694 174 m 694 116 l 752 116 l 752 58 l 694 58 l 694 116 m 694 58 l 752 58 l 752 0 l 694 0 l 694 58 m 752 116 l 810 116 l 810 58 l 752 58 l 752 116 m 752 174 l 810 174 l 810 116 l 752 116 l 752 174 m 463 116 l 521 116 l 521 58 l 463 58 l 463 116 m 463 174 l 521 174 l 521 116 l 463 116 l 463 174 m 521 1157 l 579 1157 l 579 1100 l 521 1100 l 521 1157 m 521 1100 l 579 1100 l 579 1042 l 521 1042 l 521 1100 m 694 1100 l 752 1100 l 752 1042 l 694 1042 l 694 1100 m 694 1157 l 752 1157 l 752 1100 l 694 1100 l 694 1157 m 694 1042 l 752 1042 l 752 984 l 694 984 l 694 1042 m 694 984 l 752 984 l 752 926 l 694 926 l 694 984 m 521 984 l 579 984 l 579 926 l 521 926 l 521 984 m 521 1042 l 579 1042 l 579 984 l 521 984 l 521 1042 m 463 1100 l 521 1100 l 521 1042 l 463 1042 l 463 1100 m 463 1042 l 521 1042 l 521 984 l 463 984 l 463 1042 m 752 1100 l 810 1100 l 810 1042 l 752 1042 l 752 1100 m 752 1042 l 810 1042 l 810 984 l 752 984 l 752 1042 m 289 810 l 347 810 l 347 752 l 289 752 l 289 810 m 231 810 l 289 810 l 289 752 l 231 752 l 231 810 m 405 926 l 463 926 l 463 868 l 405 868 l 405 926 m 405 984 l 463 984 l 463 926 l 405 926 l 405 984 m 347 984 l 405 984 l 405 926 l 347 926 l 347 984 m 231 868 l 289 868 l 289 810 l 231 810 l 231 868 m 174 868 l 231 868 l 231 810 l 174 810 l 174 868 m 174 926 l 231 926 l 231 868 l 174 868 l 174 926 m 174 984 l 231 984 l 231 926 l 174 926 l 174 984 m 231 1042 l 289 1042 l 289 984 l 231 984 l 231 1042 m 289 1042 l 347 1042 l 347 984 l 289 984 l 289 1042 m 347 1042 l 405 1042 l 405 984 l 347 984 l 347 1042 m 405 347 l 463 347 l 463 289 l 405 289 l 405 347 m 405 289 l 463 289 l 463 231 l 405 231 l 405 289 m 405 231 l 463 231 l 463 174 l 405 174 l 405 231 m 347 405 l 405 405 l 405 347 l 347 347 l 347 405 m 289 405 l 347 405 l 347 347 l 289 347 l 289 405 m 231 405 l 289 405 l 289 347 l 231 347 l 231 405 m 231 347 l 289 347 l 289 289 l 231 289 l 231 347 m 231 289 l 289 289 l 289 231 l 231 231 l 231 289 m 289 289 l 347 289 l 347 231 l 289 231 l 289 289 m 347 289 l 405 289 l 405 231 l 347 231 l 347 289 m 347 347 l 405 347 l 405 289 l 347 289 l 347 347 m 289 347 l 347 347 l 347 289 l 289 289 l 289 347 m 289 231 l 347 231 l 347 174 l 289 174 l 289 231 m 347 231 l 405 231 l 405 174 l 347 174 l 347 231 m 231 231 l 289 231 l 289 174 l 231 174 l 231 231 m 347 174 l 405 174 l 405 116 l 347 116 l 347 174 m 289 174 l 347 174 l 347 116 l 289 116 l 289 174 m 231 174 l 289 174 l 289 116 l 231 116 l 231 174 m 174 231 l 231 231 l 231 174 l 174 174 l 174 231 m 174 289 l 231 289 l 231 231 l 174 231 l 174 289 m 174 347 l 231 347 l 231 289 l 174 289 l 174 347 m 868 405 l 926 405 l 926 347 l 868 347 l 868 405 m 926 405 l 984 405 l 984 347 l 926 347 l 926 405 m 984 405 l 1042 405 l 1042 347 l 984 347 l 984 405 m 984 347 l 1042 347 l 1042 289 l 984 289 l 984 347 m 984 289 l 1042 289 l 1042 231 l 984 231 l 984 289 m 984 231 l 1042 231 l 1042 174 l 984 174 l 984 231 m 926 231 l 984 231 l 984 174 l 926 174 l 926 231 m 868 231 l 926 231 l 926 174 l 868 174 l 868 231 m 810 231 l 868 231 l 868 174 l 810 174 l 810 231 m 810 289 l 868 289 l 868 231 l 810 231 l 810 289 m 810 347 l 868 347 l 868 289 l 810 289 l 810 347 m 868 347 l 926 347 l 926 289 l 868 289 l 868 347 m 926 347 l 984 347 l 984 289 l 926 289 l 926 347 m 926 289 l 984 289 l 984 231 l 926 231 l 926 289 m 868 289 l 926 289 l 926 231 l 868 231 l 868 289 m 1042 347 l 1100 347 l 1100 289 l 1042 289 l 1042 347 m 1042 289 l 1100 289 l 1100 231 l 1042 231 l 1042 289 m 1042 231 l 1100 231 l 1100 174 l 1042 174 l 1042 231 m 984 174 l 1042 174 l 1042 116 l 984 116 l 984 174 m 926 174 l 984 174 l 984 116 l 926 116 l 926 174 m 868 174 l 926 174 l 926 116 l 868 116 l 868 174 m 926 810 l 984 810 l 984 752 l 926 752 l 926 810 m 984 810 l 1042 810 l 1042 752 l 984 752 l 984 810 m 868 810 l 926 810 l 926 752 l 868 752 l 868 810 m 868 868 l 926 868 l 926 810 l 868 810 l 868 868 m 810 868 l 868 868 l 868 810 l 810 810 l 810 868 m 810 926 l 868 926 l 868 868 l 810 868 l 810 926 m 810 984 l 868 984 l 868 926 l 810 926 l 810 984 m 868 984 l 926 984 l 926 926 l 868 926 l 868 984 m 926 984 l 984 984 l 984 926 l 926 926 l 926 984 m 984 984 l 1042 984 l 1042 926 l 984 926 l 984 984 m 984 926 l 1042 926 l 1042 868 l 984 868 l 984 926 m 984 868 l 1042 868 l 1042 810 l 984 810 l 984 868 m 926 868 l 984 868 l 984 810 l 926 810 l 926 868 m 926 926 l 984 926 l 984 868 l 926 868 l 926 926 m 868 926 l 926 926 l 926 868 l 868 868 l 868 926 m 868 1042 l 926 1042 l 926 984 l 868 984 l 868 1042 m 926 1042 l 984 1042 l 984 984 l 926 984 l 926 1042 m 984 1042 l 1042 1042 l 1042 984 l 984 984 l 984 1042 m 1042 984 l 1100 984 l 1100 926 l 1042 926 l 1042 984 m 1042 926 l 1100 926 l 1100 868 l 1042 868 l 1042 926 m 1042 868 l 1100 868 l 1100 810 l 1042 810 l 1042 868 z "},"I":{"ha":1273,"x_min":58,"x_max":1215,"o":"m 58 637 l 116 637 l 116 579 l 58 579 l 58 637 m 116 637 l 174 637 l 174 579 l 116 579 l 116 637 m 174 637 l 231 637 l 231 579 l 174 579 l 174 637 m 231 637 l 289 637 l 289 579 l 231 579 l 231 637 m 231 579 l 289 579 l 289 521 l 231 521 l 231 579 m 174 579 l 231 579 l 231 521 l 174 521 l 174 579 m 116 579 l 174 579 l 174 521 l 116 521 l 116 579 m 58 579 l 116 579 l 116 521 l 58 521 l 58 579 m 289 637 l 347 637 l 347 579 l 289 579 l 289 637 m 347 637 l 405 637 l 405 579 l 347 579 l 347 637 m 463 637 l 521 637 l 521 579 l 463 579 l 463 637 m 463 579 l 521 579 l 521 521 l 463 521 l 463 579 m 347 579 l 405 579 l 405 521 l 347 521 l 347 579 m 289 579 l 347 579 l 347 521 l 289 521 l 289 579 m 752 579 l 810 579 l 810 521 l 752 521 l 752 579 m 752 637 l 810 637 l 810 579 l 752 579 l 752 637 m 868 637 l 926 637 l 926 579 l 868 579 l 868 637 m 926 637 l 984 637 l 984 579 l 926 579 l 926 637 m 984 637 l 1042 637 l 1042 579 l 984 579 l 984 637 m 984 579 l 1042 579 l 1042 521 l 984 521 l 984 579 m 926 579 l 984 579 l 984 521 l 926 521 l 926 579 m 868 579 l 926 579 l 926 521 l 868 521 l 868 579 m 1042 637 l 1100 637 l 1100 579 l 1042 579 l 1042 637 m 1100 637 l 1157 637 l 1157 579 l 1100 579 l 1100 637 m 1157 637 l 1215 637 l 1215 579 l 1157 579 l 1157 637 m 1157 579 l 1215 579 l 1215 521 l 1157 521 l 1157 579 m 1100 579 l 1157 579 l 1157 521 l 1100 521 l 1100 579 m 1042 579 l 1100 579 l 1100 521 l 1042 521 l 1042 579 m 579 637 l 637 637 l 637 579 l 579 579 l 579 637 m 637 637 l 694 637 l 694 579 l 637 579 l 637 637 m 637 579 l 694 579 l 694 521 l 637 521 l 637 579 m 579 579 l 637 579 l 637 521 l 579 521 l 579 579 m 579 752 l 637 752 l 637 694 l 579 694 l 579 752 m 579 868 l 637 868 l 637 810 l 579 810 l 579 868 m 637 868 l 694 868 l 694 810 l 637 810 l 637 868 m 637 926 l 694 926 l 694 868 l 637 868 l 637 926 m 637 752 l 694 752 l 694 694 l 637 694 l 637 752 m 579 926 l 637 926 l 637 868 l 579 868 l 579 926 m 579 984 l 637 984 l 637 926 l 579 926 l 579 984 m 579 1042 l 637 1042 l 637 984 l 579 984 l 579 1042 m 637 1042 l 694 1042 l 694 984 l 637 984 l 637 1042 m 637 984 l 694 984 l 694 926 l 637 926 l 637 984 m 637 1100 l 694 1100 l 694 1042 l 637 1042 l 637 1100 m 579 1100 l 637 1100 l 637 1042 l 579 1042 l 579 1100 m 579 463 l 637 463 l 637 405 l 579 405 l 579 463 m 637 463 l 694 463 l 694 405 l 637 405 l 637 463 m 637 347 l 694 347 l 694 289 l 637 289 l 637 347 m 637 289 l 694 289 l 694 231 l 637 231 l 637 289 m 637 231 l 694 231 l 694 174 l 637 174 l 637 231 m 637 174 l 694 174 l 694 116 l 637 116 l 637 174 m 637 116 l 694 116 l 694 58 l 637 58 l 637 116 m 579 116 l 637 116 l 637 58 l 579 58 l 579 116 m 579 174 l 637 174 l 637 116 l 579 116 l 579 174 m 579 231 l 637 231 l 637 174 l 579 174 l 579 231 m 579 289 l 637 289 l 637 231 l 579 231 l 579 289 m 579 347 l 637 347 l 637 289 l 579 289 l 579 347 m 637 58 l 694 58 l 694 0 l 637 0 l 637 58 m 579 58 l 637 58 l 637 0 l 579 0 l 579 58 m 637 1157 l 694 1157 l 694 1100 l 637 1100 l 637 1157 m 579 1157 l 637 1157 l 637 1100 l 579 1100 l 579 1157 m 752 752 l 810 752 l 810 694 l 752 694 l 752 752 m 810 810 l 868 810 l 868 752 l 810 752 l 810 810 m 463 752 l 521 752 l 521 694 l 463 694 l 463 752 m 405 810 l 463 810 l 463 752 l 405 752 l 405 810 m 405 868 l 463 868 l 463 810 l 405 810 l 405 868 m 347 868 l 405 868 l 405 810 l 347 810 l 347 868 m 347 810 l 405 810 l 405 752 l 347 752 l 347 810 m 347 926 l 405 926 l 405 868 l 347 868 l 347 926 m 289 926 l 347 926 l 347 868 l 289 868 l 289 926 m 289 868 l 347 868 l 347 810 l 289 810 l 289 868 m 289 984 l 347 984 l 347 926 l 289 926 l 289 984 m 231 984 l 289 984 l 289 926 l 231 926 l 231 984 m 231 926 l 289 926 l 289 868 l 231 868 l 231 926 m 463 463 l 521 463 l 521 405 l 463 405 l 463 463 m 405 405 l 463 405 l 463 347 l 405 347 l 405 405 m 752 463 l 810 463 l 810 405 l 752 405 l 752 463 m 810 405 l 868 405 l 868 347 l 810 347 l 810 405 m 694 694 l 752 694 l 752 637 l 694 637 l 694 694 m 637 694 l 694 694 l 694 637 l 637 637 l 637 694 m 579 694 l 637 694 l 637 637 l 579 637 l 579 694 m 521 694 l 579 694 l 579 637 l 521 637 l 521 694 m 521 637 l 579 637 l 579 579 l 521 579 l 521 637 m 521 579 l 579 579 l 579 521 l 521 521 l 521 579 m 521 521 l 579 521 l 579 463 l 521 463 l 521 521 m 579 521 l 637 521 l 637 463 l 579 463 l 579 521 m 637 521 l 694 521 l 694 463 l 637 463 l 637 521 m 694 521 l 752 521 l 752 463 l 694 463 l 694 521 m 694 579 l 752 579 l 752 521 l 694 521 l 694 579 m 694 637 l 752 637 l 752 579 l 694 579 l 694 637 m 463 694 l 521 694 l 521 637 l 463 637 l 463 694 m 521 752 l 579 752 l 579 694 l 521 694 l 521 752 m 463 521 l 521 521 l 521 463 l 463 463 l 463 521 m 521 463 l 579 463 l 579 405 l 521 405 l 521 463 m 694 463 l 752 463 l 752 405 l 694 405 l 694 463 m 752 521 l 810 521 l 810 463 l 752 463 l 752 521 m 752 694 l 810 694 l 810 637 l 752 637 l 752 694 m 694 752 l 752 752 l 752 694 l 694 694 l 694 752 m 58 694 l 116 694 l 116 637 l 58 637 l 58 694 m 58 521 l 116 521 l 116 463 l 58 463 l 58 521 m 116 521 l 174 521 l 174 463 l 116 463 l 116 521 m 174 521 l 231 521 l 231 463 l 174 463 l 174 521 m 174 694 l 231 694 l 231 637 l 174 637 l 174 694 m 116 694 l 174 694 l 174 637 l 116 637 l 116 694 m 231 521 l 289 521 l 289 463 l 231 463 l 231 521 m 231 694 l 289 694 l 289 637 l 231 637 l 231 694 m 116 463 l 174 463 l 174 405 l 116 405 l 116 463 m 174 463 l 231 463 l 231 405 l 174 405 l 174 463 m 116 752 l 174 752 l 174 694 l 116 694 l 116 752 m 174 752 l 231 752 l 231 694 l 174 694 l 174 752 m 1157 694 l 1215 694 l 1215 637 l 1157 637 l 1157 694 m 1100 694 l 1157 694 l 1157 637 l 1100 637 l 1100 694 m 1100 521 l 1157 521 l 1157 463 l 1100 463 l 1100 521 m 1157 521 l 1215 521 l 1215 463 l 1157 463 l 1157 521 m 1042 694 l 1100 694 l 1100 637 l 1042 637 l 1042 694 m 984 694 l 1042 694 l 1042 637 l 984 637 l 984 694 m 984 521 l 1042 521 l 1042 463 l 984 463 l 984 521 m 1042 521 l 1100 521 l 1100 463 l 1042 463 l 1042 521 m 1042 463 l 1100 463 l 1100 405 l 1042 405 l 1042 463 m 1100 463 l 1157 463 l 1157 405 l 1100 405 l 1100 463 m 1042 752 l 1100 752 l 1100 694 l 1042 694 l 1042 752 m 1100 752 l 1157 752 l 1157 694 l 1100 694 l 1100 752 m 521 58 l 579 58 l 579 0 l 521 0 l 521 58 m 521 116 l 579 116 l 579 58 l 521 58 l 521 116 m 521 174 l 579 174 l 579 116 l 521 116 l 521 174 m 521 231 l 579 231 l 579 174 l 521 174 l 521 231 m 694 231 l 752 231 l 752 174 l 694 174 l 694 231 m 694 174 l 752 174 l 752 116 l 694 116 l 694 174 m 694 116 l 752 116 l 752 58 l 694 58 l 694 116 m 694 58 l 752 58 l 752 0 l 694 0 l 694 58 m 752 116 l 810 116 l 810 58 l 752 58 l 752 116 m 752 174 l 810 174 l 810 116 l 752 116 l 752 174 m 463 116 l 521 116 l 521 58 l 463 58 l 463 116 m 463 174 l 521 174 l 521 116 l 463 116 l 463 174 m 521 1157 l 579 1157 l 579 1100 l 521 1100 l 521 1157 m 521 1100 l 579 1100 l 579 1042 l 521 1042 l 521 1100 m 694 1100 l 752 1100 l 752 1042 l 694 1042 l 694 1100 m 694 1157 l 752 1157 l 752 1100 l 694 1100 l 694 1157 m 694 1042 l 752 1042 l 752 984 l 694 984 l 694 1042 m 694 984 l 752 984 l 752 926 l 694 926 l 694 984 m 521 984 l 579 984 l 579 926 l 521 926 l 521 984 m 521 1042 l 579 1042 l 579 984 l 521 984 l 521 1042 m 463 1100 l 521 1100 l 521 1042 l 463 1042 l 463 1100 m 463 1042 l 521 1042 l 521 984 l 463 984 l 463 1042 m 752 1100 l 810 1100 l 810 1042 l 752 1042 l 752 1100 m 752 1042 l 810 1042 l 810 984 l 752 984 l 752 1042 m 289 810 l 347 810 l 347 752 l 289 752 l 289 810 m 231 810 l 289 810 l 289 752 l 231 752 l 231 810 m 405 926 l 463 926 l 463 868 l 405 868 l 405 926 m 405 984 l 463 984 l 463 926 l 405 926 l 405 984 m 347 984 l 405 984 l 405 926 l 347 926 l 347 984 m 231 868 l 289 868 l 289 810 l 231 810 l 231 868 m 174 868 l 231 868 l 231 810 l 174 810 l 174 868 m 174 926 l 231 926 l 231 868 l 174 868 l 174 926 m 174 984 l 231 984 l 231 926 l 174 926 l 174 984 m 231 1042 l 289 1042 l 289 984 l 231 984 l 231 1042 m 289 1042 l 347 1042 l 347 984 l 289 984 l 289 1042 m 347 1042 l 405 1042 l 405 984 l 347 984 l 347 1042 m 405 347 l 463 347 l 463 289 l 405 289 l 405 347 m 405 289 l 463 289 l 463 231 l 405 231 l 405 289 m 405 231 l 463 231 l 463 174 l 405 174 l 405 231 m 347 405 l 405 405 l 405 347 l 347 347 l 347 405 m 289 405 l 347 405 l 347 347 l 289 347 l 289 405 m 231 405 l 289 405 l 289 347 l 231 347 l 231 405 m 231 347 l 289 347 l 289 289 l 231 289 l 231 347 m 231 289 l 289 289 l 289 231 l 231 231 l 231 289 m 289 289 l 347 289 l 347 231 l 289 231 l 289 289 m 347 289 l 405 289 l 405 231 l 347 231 l 347 289 m 347 347 l 405 347 l 405 289 l 347 289 l 347 347 m 289 347 l 347 347 l 347 289 l 289 289 l 289 347 m 289 231 l 347 231 l 347 174 l 289 174 l 289 231 m 347 231 l 405 231 l 405 174 l 347 174 l 347 231 m 231 231 l 289 231 l 289 174 l 231 174 l 231 231 m 347 174 l 405 174 l 405 116 l 347 116 l 347 174 m 289 174 l 347 174 l 347 116 l 289 116 l 289 174 m 231 174 l 289 174 l 289 116 l 231 116 l 231 174 m 174 231 l 231 231 l 231 174 l 174 174 l 174 231 m 174 289 l 231 289 l 231 231 l 174 231 l 174 289 m 174 347 l 231 347 l 231 289 l 174 289 l 174 347 m 868 405 l 926 405 l 926 347 l 868 347 l 868 405 m 926 405 l 984 405 l 984 347 l 926 347 l 926 405 m 984 405 l 1042 405 l 1042 347 l 984 347 l 984 405 m 984 347 l 1042 347 l 1042 289 l 984 289 l 984 347 m 984 289 l 1042 289 l 1042 231 l 984 231 l 984 289 m 984 231 l 1042 231 l 1042 174 l 984 174 l 984 231 m 926 231 l 984 231 l 984 174 l 926 174 l 926 231 m 868 231 l 926 231 l 926 174 l 868 174 l 868 231 m 810 231 l 868 231 l 868 174 l 810 174 l 810 231 m 810 289 l 868 289 l 868 231 l 810 231 l 810 289 m 810 347 l 868 347 l 868 289 l 810 289 l 810 347 m 868 347 l 926 347 l 926 289 l 868 289 l 868 347 m 926 347 l 984 347 l 984 289 l 926 289 l 926 347 m 926 289 l 984 289 l 984 231 l 926 231 l 926 289 m 868 289 l 926 289 l 926 231 l 868 231 l 868 289 m 1042 347 l 1100 347 l 1100 289 l 1042 289 l 1042 347 m 1042 289 l 1100 289 l 1100 231 l 1042 231 l 1042 289 m 1042 231 l 1100 231 l 1100 174 l 1042 174 l 1042 231 m 984 174 l 1042 174 l 1042 116 l 984 116 l 984 174 m 926 174 l 984 174 l 984 116 l 926 116 l 926 174 m 868 174 l 926 174 l 926 116 l 868 116 l 868 174 m 926 810 l 984 810 l 984 752 l 926 752 l 926 810 m 984 810 l 1042 810 l 1042 752 l 984 752 l 984 810 m 868 810 l 926 810 l 926 752 l 868 752 l 868 810 m 868 868 l 926 868 l 926 810 l 868 810 l 868 868 m 810 868 l 868 868 l 868 810 l 810 810 l 810 868 m 810 926 l 868 926 l 868 868 l 810 868 l 810 926 m 810 984 l 868 984 l 868 926 l 810 926 l 810 984 m 868 984 l 926 984 l 926 926 l 868 926 l 868 984 m 926 984 l 984 984 l 984 926 l 926 926 l 926 984 m 984 984 l 1042 984 l 1042 926 l 984 926 l 984 984 m 984 926 l 1042 926 l 1042 868 l 984 868 l 984 926 m 984 868 l 1042 868 l 1042 810 l 984 810 l 984 868 m 926 868 l 984 868 l 984 810 l 926 810 l 926 868 m 926 926 l 984 926 l 984 868 l 926 868 l 926 926 m 868 926 l 926 926 l 926 868 l 868 868 l 868 926 m 868 1042 l 926 1042 l 926 984 l 868 984 l 868 1042 m 926 1042 l 984 1042 l 984 984 l 926 984 l 926 1042 m 984 1042 l 1042 1042 l 1042 984 l 984 984 l 984 1042 m 1042 984 l 1100 984 l 1100 926 l 1042 926 l 1042 984 m 1042 926 l 1100 926 l 1100 868 l 1042 868 l 1042 926 m 1042 868 l 1100 868 l 1100 810 l 1042 810 l 1042 868 z "},"J":{"ha":1215,"x_min":58,"x_max":1157,"o":"m 58 521 l 116 521 l 116 463 l 58 463 l 58 521 m 116 521 l 174 521 l 174 463 l 116 463 l 116 521 m 174 521 l 231 521 l 231 463 l 174 463 l 174 521 m 231 521 l 289 521 l 289 463 l 231 463 l 231 521 m 289 521 l 347 521 l 347 463 l 289 463 l 289 521 m 347 521 l 405 521 l 405 463 l 347 463 l 347 521 m 405 521 l 463 521 l 463 463 l 405 463 l 405 521 m 405 694 l 463 694 l 463 637 l 405 637 l 405 694 m 347 694 l 405 694 l 405 637 l 347 637 l 347 694 m 289 694 l 347 694 l 347 637 l 289 637 l 289 694 m 231 694 l 289 694 l 289 637 l 231 637 l 231 694 m 174 694 l 231 694 l 231 637 l 174 637 l 174 694 m 116 694 l 174 694 l 174 637 l 116 637 l 116 694 m 58 694 l 116 694 l 116 637 l 58 637 l 58 694 m 463 405 l 521 405 l 521 347 l 463 347 l 463 405 m 463 347 l 521 347 l 521 289 l 463 289 l 463 347 m 463 289 l 521 289 l 521 231 l 463 231 l 463 289 m 463 231 l 521 231 l 521 174 l 463 174 l 463 231 m 463 174 l 521 174 l 521 116 l 463 116 l 463 174 m 463 116 l 521 116 l 521 58 l 463 58 l 463 116 m 637 116 l 694 116 l 694 58 l 637 58 l 637 116 m 637 174 l 694 174 l 694 116 l 637 116 l 637 174 m 637 231 l 694 231 l 694 174 l 637 174 l 637 231 m 637 289 l 694 289 l 694 231 l 637 231 l 637 289 m 637 347 l 694 347 l 694 289 l 637 289 l 637 347 m 637 405 l 694 405 l 694 347 l 637 347 l 637 405 m 521 405 l 579 405 l 579 347 l 521 347 l 521 405 m 521 347 l 579 347 l 579 289 l 521 289 l 521 347 m 521 289 l 579 289 l 579 231 l 521 231 l 521 289 m 521 231 l 579 231 l 579 174 l 521 174 l 521 231 m 521 174 l 579 174 l 579 116 l 521 116 l 521 174 m 521 116 l 579 116 l 579 58 l 521 58 l 521 116 m 463 752 l 521 752 l 521 694 l 463 694 l 463 752 m 521 752 l 579 752 l 579 694 l 521 694 l 521 752 m 637 752 l 694 752 l 694 694 l 637 694 l 637 752 m 637 810 l 694 810 l 694 752 l 637 752 l 637 810 m 637 868 l 694 868 l 694 810 l 637 810 l 637 868 m 637 926 l 694 926 l 694 868 l 637 868 l 637 926 m 637 984 l 694 984 l 694 926 l 637 926 l 637 984 m 637 1042 l 694 1042 l 694 984 l 637 984 l 637 1042 m 637 1100 l 694 1100 l 694 1042 l 637 1042 l 637 1100 m 463 810 l 521 810 l 521 752 l 463 752 l 463 810 m 463 868 l 521 868 l 521 810 l 463 810 l 463 868 m 463 926 l 521 926 l 521 868 l 463 868 l 463 926 m 463 984 l 521 984 l 521 926 l 463 926 l 463 984 m 463 1042 l 521 1042 l 521 984 l 463 984 l 463 1042 m 463 1100 l 521 1100 l 521 1042 l 463 1042 l 463 1100 m 521 1100 l 579 1100 l 579 1042 l 521 1042 l 521 1100 m 521 810 l 579 810 l 579 752 l 521 752 l 521 810 m 521 868 l 579 868 l 579 810 l 521 810 l 521 868 m 521 926 l 579 926 l 579 868 l 521 868 l 521 926 m 521 984 l 579 984 l 579 926 l 521 926 l 521 984 m 521 1042 l 579 1042 l 579 984 l 521 984 l 521 1042 m 752 521 l 810 521 l 810 463 l 752 463 l 752 521 m 810 521 l 868 521 l 868 463 l 810 463 l 810 521 m 868 521 l 926 521 l 926 463 l 868 463 l 868 521 m 926 521 l 984 521 l 984 463 l 926 463 l 926 521 m 984 521 l 1042 521 l 1042 463 l 984 463 l 984 521 m 1042 521 l 1100 521 l 1100 463 l 1042 463 l 1042 521 m 1042 694 l 1100 694 l 1100 637 l 1042 637 l 1042 694 m 984 694 l 1042 694 l 1042 637 l 984 637 l 984 694 m 926 694 l 984 694 l 984 637 l 926 637 l 926 694 m 868 694 l 926 694 l 926 637 l 868 637 l 868 694 m 810 694 l 868 694 l 868 637 l 810 637 l 810 694 m 752 694 l 810 694 l 810 637 l 752 637 l 752 694 m 694 116 l 752 116 l 752 58 l 694 58 l 694 116 m 694 231 l 752 231 l 752 174 l 694 174 l 694 231 m 694 289 l 752 289 l 752 231 l 694 231 l 694 289 m 694 347 l 752 347 l 752 289 l 694 289 l 694 347 m 694 405 l 752 405 l 752 347 l 694 347 l 694 405 m 694 174 l 752 174 l 752 116 l 694 116 l 694 174 m 463 463 l 521 463 l 521 405 l 463 405 l 463 463 m 463 521 l 521 521 l 521 463 l 463 463 l 463 521 m 521 521 l 579 521 l 579 463 l 521 463 l 521 521 m 521 463 l 579 463 l 579 405 l 521 405 l 521 463 m 637 463 l 694 463 l 694 405 l 637 405 l 637 463 m 694 463 l 752 463 l 752 405 l 694 405 l 694 463 m 694 521 l 752 521 l 752 463 l 694 463 l 694 521 m 637 521 l 694 521 l 694 463 l 637 463 l 637 521 m 694 752 l 752 752 l 752 694 l 694 694 l 694 752 m 694 810 l 752 810 l 752 752 l 694 752 l 694 810 m 694 868 l 752 868 l 752 810 l 694 810 l 694 868 m 694 926 l 752 926 l 752 868 l 694 868 l 694 926 m 694 984 l 752 984 l 752 926 l 694 926 l 694 984 m 694 1100 l 752 1100 l 752 1042 l 694 1042 l 694 1100 m 694 1042 l 752 1042 l 752 984 l 694 984 l 694 1042 m 463 694 l 521 694 l 521 637 l 463 637 l 463 694 m 521 694 l 579 694 l 579 637 l 521 637 l 521 694 m 637 694 l 694 694 l 694 637 l 637 637 l 637 694 m 694 694 l 752 694 l 752 637 l 694 637 l 694 694 m 463 58 l 521 58 l 521 0 l 463 0 l 463 58 m 521 58 l 579 58 l 579 0 l 521 0 l 521 58 m 637 58 l 694 58 l 694 0 l 637 0 l 637 58 m 694 58 l 752 58 l 752 0 l 694 0 l 694 58 m 58 463 l 116 463 l 116 405 l 58 405 l 58 463 m 116 463 l 174 463 l 174 405 l 116 405 l 116 463 m 174 463 l 231 463 l 231 405 l 174 405 l 174 463 m 231 463 l 289 463 l 289 405 l 231 405 l 231 463 m 289 463 l 347 463 l 347 405 l 289 405 l 289 463 m 347 463 l 405 463 l 405 405 l 347 405 l 347 463 m 405 463 l 463 463 l 463 405 l 405 405 l 405 463 m 752 463 l 810 463 l 810 405 l 752 405 l 752 463 m 810 463 l 868 463 l 868 405 l 810 405 l 810 463 m 868 463 l 926 463 l 926 405 l 868 405 l 868 463 m 926 463 l 984 463 l 984 405 l 926 405 l 926 463 m 984 463 l 1042 463 l 1042 405 l 984 405 l 984 463 m 1042 463 l 1100 463 l 1100 405 l 1042 405 l 1042 463 m 58 637 l 116 637 l 116 579 l 58 579 l 58 637 m 116 637 l 174 637 l 174 579 l 116 579 l 116 637 m 174 637 l 231 637 l 231 579 l 174 579 l 174 637 m 289 637 l 347 637 l 347 579 l 289 579 l 289 637 m 347 637 l 405 637 l 405 579 l 347 579 l 347 637 m 405 637 l 463 637 l 463 579 l 405 579 l 405 637 m 463 637 l 521 637 l 521 579 l 463 579 l 463 637 m 521 637 l 579 637 l 579 579 l 521 579 l 521 637 m 231 637 l 289 637 l 289 579 l 231 579 l 231 637 m 637 637 l 694 637 l 694 579 l 637 579 l 637 637 m 694 637 l 752 637 l 752 579 l 694 579 l 694 637 m 752 637 l 810 637 l 810 579 l 752 579 l 752 637 m 810 637 l 868 637 l 868 579 l 810 579 l 810 637 m 868 637 l 926 637 l 926 579 l 868 579 l 868 637 m 926 637 l 984 637 l 984 579 l 926 579 l 926 637 m 984 637 l 1042 637 l 1042 579 l 984 579 l 984 637 m 1042 637 l 1100 637 l 1100 579 l 1042 579 l 1042 637 m 1100 463 l 1157 463 l 1157 405 l 1100 405 l 1100 463 m 1100 521 l 1157 521 l 1157 463 l 1100 463 l 1100 521 m 1100 637 l 1157 637 l 1157 579 l 1100 579 l 1100 637 m 1100 694 l 1157 694 l 1157 637 l 1100 637 l 1100 694 z "},"K":{"ha":810,"x_min":58,"x_max":752,"o":"m 289 694 l 347 694 l 347 637 l 289 637 l 289 694 m 347 694 l 405 694 l 405 637 l 347 637 l 347 694 m 405 694 l 463 694 l 463 637 l 405 637 l 405 694 m 463 694 l 521 694 l 521 637 l 463 637 l 463 694 m 463 637 l 521 637 l 521 579 l 463 579 l 463 637 m 463 579 l 521 579 l 521 521 l 463 521 l 463 579 m 463 521 l 521 521 l 521 463 l 463 463 l 463 521 m 405 521 l 463 521 l 463 463 l 405 463 l 405 521 m 347 521 l 405 521 l 405 463 l 347 463 l 347 521 m 289 521 l 347 521 l 347 463 l 289 463 l 289 521 m 289 579 l 347 579 l 347 521 l 289 521 l 289 579 m 289 637 l 347 637 l 347 579 l 289 579 l 289 637 m 347 637 l 405 637 l 405 579 l 347 579 l 347 637 m 347 579 l 405 579 l 405 521 l 347 521 l 347 579 m 405 579 l 463 579 l 463 521 l 405 521 l 405 579 m 405 637 l 463 637 l 463 579 l 405 579 l 405 637 m 231 521 l 289 521 l 289 463 l 231 463 l 231 521 m 289 463 l 347 463 l 347 405 l 289 405 l 289 463 m 231 463 l 289 463 l 289 405 l 231 405 l 231 463 m 174 463 l 231 463 l 231 405 l 174 405 l 174 463 m 174 405 l 231 405 l 231 347 l 174 347 l 174 405 m 231 405 l 289 405 l 289 347 l 231 347 l 231 405 m 116 405 l 174 405 l 174 347 l 116 347 l 116 405 m 116 347 l 174 347 l 174 289 l 116 289 l 116 347 m 174 347 l 231 347 l 231 289 l 174 289 l 174 347 m 58 347 l 116 347 l 116 289 l 58 289 l 58 347 m 116 289 l 174 289 l 174 231 l 116 231 l 116 289 m 463 463 l 521 463 l 521 405 l 463 405 l 463 463 m 521 463 l 579 463 l 579 405 l 521 405 l 521 463 m 521 521 l 579 521 l 579 463 l 521 463 l 521 521 m 579 463 l 637 463 l 637 405 l 579 405 l 579 463 m 579 405 l 637 405 l 637 347 l 579 347 l 579 405 m 521 405 l 579 405 l 579 347 l 521 347 l 521 405 m 637 405 l 694 405 l 694 347 l 637 347 l 637 405 m 637 347 l 694 347 l 694 289 l 637 289 l 637 347 m 579 347 l 637 347 l 637 289 l 579 289 l 579 347 m 694 347 l 752 347 l 752 289 l 694 289 l 694 347 m 637 289 l 694 289 l 694 231 l 637 231 l 637 289 m 463 752 l 521 752 l 521 694 l 463 694 l 463 752 m 521 752 l 579 752 l 579 694 l 521 694 l 521 752 m 521 694 l 579 694 l 579 637 l 521 637 l 521 694 m 521 810 l 579 810 l 579 752 l 521 752 l 521 810 m 579 810 l 637 810 l 637 752 l 579 752 l 579 810 m 579 752 l 637 752 l 637 694 l 579 694 l 579 752 m 579 868 l 637 868 l 637 810 l 579 810 l 579 868 m 637 868 l 694 868 l 694 810 l 637 810 l 637 868 m 637 810 l 694 810 l 694 752 l 637 752 l 637 810 m 637 926 l 694 926 l 694 868 l 637 868 l 637 926 m 694 868 l 752 868 l 752 810 l 694 810 l 694 868 m 289 752 l 347 752 l 347 694 l 289 694 l 289 752 m 231 694 l 289 694 l 289 637 l 231 637 l 231 694 m 231 752 l 289 752 l 289 694 l 231 694 l 231 752 m 231 810 l 289 810 l 289 752 l 231 752 l 231 810 m 174 752 l 231 752 l 231 694 l 174 694 l 174 752 m 174 810 l 231 810 l 231 752 l 174 752 l 174 810 m 174 868 l 231 868 l 231 810 l 174 810 l 174 868 m 116 868 l 174 868 l 174 810 l 116 810 l 116 868 m 116 810 l 174 810 l 174 752 l 116 752 l 116 810 m 116 926 l 174 926 l 174 868 l 116 868 l 116 926 m 58 868 l 116 868 l 116 810 l 58 810 l 58 868 z "},"L":{"ha":1157,"x_min":58,"x_max":1100,"o":"m 463 694 l 521 694 l 521 637 l 463 637 l 463 694 m 521 694 l 579 694 l 579 637 l 521 637 l 521 694 m 579 694 l 637 694 l 637 637 l 579 637 l 579 694 m 637 694 l 694 694 l 694 637 l 637 637 l 637 694 m 637 637 l 694 637 l 694 579 l 637 579 l 637 637 m 637 579 l 694 579 l 694 521 l 637 521 l 637 579 m 637 521 l 694 521 l 694 463 l 637 463 l 637 521 m 579 521 l 637 521 l 637 463 l 579 463 l 579 521 m 521 521 l 579 521 l 579 463 l 521 463 l 521 521 m 463 521 l 521 521 l 521 463 l 463 463 l 463 521 m 463 579 l 521 579 l 521 521 l 463 521 l 463 579 m 463 637 l 521 637 l 521 579 l 463 579 l 463 637 m 521 637 l 579 637 l 579 579 l 521 579 l 521 637 m 521 579 l 579 579 l 579 521 l 521 521 l 521 579 m 579 579 l 637 579 l 637 521 l 579 521 l 579 579 m 579 637 l 637 637 l 637 579 l 579 579 l 579 637 m 405 521 l 463 521 l 463 463 l 405 463 l 405 521 m 463 463 l 521 463 l 521 405 l 463 405 l 463 463 m 405 463 l 463 463 l 463 405 l 405 405 l 405 463 m 347 463 l 405 463 l 405 405 l 347 405 l 347 463 m 347 405 l 405 405 l 405 347 l 347 347 l 347 405 m 405 405 l 463 405 l 463 347 l 405 347 l 405 405 m 289 405 l 347 405 l 347 347 l 289 347 l 289 405 m 289 347 l 347 347 l 347 289 l 289 289 l 289 347 m 347 347 l 405 347 l 405 289 l 347 289 l 347 347 m 231 347 l 289 347 l 289 289 l 231 289 l 231 347 m 289 289 l 347 289 l 347 231 l 289 231 l 289 289 m 637 463 l 694 463 l 694 405 l 637 405 l 637 463 m 694 463 l 752 463 l 752 405 l 694 405 l 694 463 m 694 521 l 752 521 l 752 463 l 694 463 l 694 521 m 752 463 l 810 463 l 810 405 l 752 405 l 752 463 m 752 405 l 810 405 l 810 347 l 752 347 l 752 405 m 694 405 l 752 405 l 752 347 l 694 347 l 694 405 m 810 405 l 868 405 l 868 347 l 810 347 l 810 405 m 810 347 l 868 347 l 868 289 l 810 289 l 810 347 m 752 347 l 810 347 l 810 289 l 752 289 l 752 347 m 868 347 l 926 347 l 926 289 l 868 289 l 868 347 m 810 289 l 868 289 l 868 231 l 810 231 l 810 289 m 637 752 l 694 752 l 694 694 l 637 694 l 637 752 m 694 752 l 752 752 l 752 694 l 694 694 l 694 752 m 694 694 l 752 694 l 752 637 l 694 637 l 694 694 m 694 810 l 752 810 l 752 752 l 694 752 l 694 810 m 752 810 l 810 810 l 810 752 l 752 752 l 752 810 m 752 752 l 810 752 l 810 694 l 752 694 l 752 752 m 752 868 l 810 868 l 810 810 l 752 810 l 752 868 m 810 868 l 868 868 l 868 810 l 810 810 l 810 868 m 810 810 l 868 810 l 868 752 l 810 752 l 810 810 m 810 926 l 868 926 l 868 868 l 810 868 l 810 926 m 868 868 l 926 868 l 926 810 l 868 810 l 868 868 m 463 752 l 521 752 l 521 694 l 463 694 l 463 752 m 405 694 l 463 694 l 463 637 l 405 637 l 405 694 m 405 752 l 463 752 l 463 694 l 405 694 l 405 752 m 405 810 l 463 810 l 463 752 l 405 752 l 405 810 m 347 752 l 405 752 l 405 694 l 347 694 l 347 752 m 347 810 l 405 810 l 405 752 l 347 752 l 347 810 m 347 868 l 405 868 l 405 810 l 347 810 l 347 868 m 289 868 l 347 868 l 347 810 l 289 810 l 289 868 m 289 810 l 347 810 l 347 752 l 289 752 l 289 810 m 289 926 l 347 926 l 347 868 l 289 868 l 289 926 m 231 868 l 289 868 l 289 810 l 231 810 l 231 868 m 868 289 l 926 289 l 926 231 l 868 231 l 868 289 m 868 231 l 926 231 l 926 174 l 868 174 l 868 231 m 926 231 l 984 231 l 984 174 l 926 174 l 926 231 m 926 289 l 984 289 l 984 231 l 926 231 l 926 289 m 984 231 l 1042 231 l 1042 174 l 984 174 l 984 231 m 984 174 l 1042 174 l 1042 116 l 984 116 l 984 174 m 926 174 l 984 174 l 984 116 l 926 116 l 926 174 m 1042 174 l 1100 174 l 1100 116 l 1042 116 l 1042 174 m 1042 116 l 1100 116 l 1100 58 l 1042 58 l 1042 116 m 984 116 l 1042 116 l 1042 58 l 984 58 l 984 116 m 231 289 l 289 289 l 289 231 l 231 231 l 231 289 m 174 289 l 231 289 l 231 231 l 174 231 l 174 289 m 174 231 l 231 231 l 231 174 l 174 174 l 174 231 m 231 231 l 289 231 l 289 174 l 231 174 l 231 231 m 116 231 l 174 231 l 174 174 l 116 174 l 116 231 m 174 174 l 231 174 l 231 116 l 174 116 l 174 174 m 116 174 l 174 174 l 174 116 l 116 116 l 116 174 m 58 174 l 116 174 l 116 116 l 58 116 l 58 174 m 116 116 l 174 116 l 174 58 l 116 58 l 116 116 m 58 116 l 116 116 l 116 58 l 58 58 l 58 116 m 231 926 l 289 926 l 289 868 l 231 868 l 231 926 m 231 984 l 289 984 l 289 926 l 231 926 l 231 984 m 174 984 l 231 984 l 231 926 l 174 926 l 174 984 m 174 926 l 231 926 l 231 868 l 174 868 l 174 926 m 868 926 l 926 926 l 926 868 l 868 868 l 868 926 m 868 984 l 926 984 l 926 926 l 868 926 l 868 984 m 926 984 l 984 984 l 984 926 l 926 926 l 926 984 m 926 926 l 984 926 l 984 868 l 926 868 l 926 926 m 926 1042 l 984 1042 l 984 984 l 926 984 l 926 1042 m 984 1042 l 1042 1042 l 1042 984 l 984 984 l 984 1042 m 984 984 l 1042 984 l 1042 926 l 984 926 l 984 984 m 174 1042 l 231 1042 l 231 984 l 174 984 l 174 1042 m 116 1042 l 174 1042 l 174 984 l 116 984 l 116 1042 m 116 984 l 174 984 l 174 926 l 116 926 l 116 984 m 984 1100 l 1042 1100 l 1042 1042 l 984 1042 l 984 1100 m 1042 1100 l 1100 1100 l 1100 1042 l 1042 1042 l 1042 1100 m 1042 1042 l 1100 1042 l 1100 984 l 1042 984 l 1042 1042 m 116 1100 l 174 1100 l 174 1042 l 116 1042 l 116 1100 m 58 1100 l 116 1100 l 116 1042 l 58 1042 l 58 1100 m 58 1042 l 116 1042 l 116 984 l 58 984 l 58 1042 z "},"M":{"ha":1157,"x_min":58,"x_max":1100,"o":"m 463 694 l 521 694 l 521 637 l 463 637 l 463 694 m 521 694 l 579 694 l 579 637 l 521 637 l 521 694 m 579 694 l 637 694 l 637 637 l 579 637 l 579 694 m 637 694 l 694 694 l 694 637 l 637 637 l 637 694 m 637 637 l 694 637 l 694 579 l 637 579 l 637 637 m 637 579 l 694 579 l 694 521 l 637 521 l 637 579 m 637 521 l 694 521 l 694 463 l 637 463 l 637 521 m 579 521 l 637 521 l 637 463 l 579 463 l 579 521 m 521 521 l 579 521 l 579 463 l 521 463 l 521 521 m 463 521 l 521 521 l 521 463 l 463 463 l 463 521 m 463 579 l 521 579 l 521 521 l 463 521 l 463 579 m 463 637 l 521 637 l 521 579 l 463 579 l 463 637 m 521 637 l 579 637 l 579 579 l 521 579 l 521 637 m 521 579 l 579 579 l 579 521 l 521 521 l 521 579 m 579 579 l 637 579 l 637 521 l 579 521 l 579 579 m 579 637 l 637 637 l 637 579 l 579 579 l 579 637 m 405 463 l 463 463 l 463 405 l 405 405 l 405 463 m 347 405 l 405 405 l 405 347 l 347 347 l 347 405 m 289 405 l 347 405 l 347 347 l 289 347 l 289 405 m 289 347 l 347 347 l 347 289 l 289 289 l 289 347 m 347 347 l 405 347 l 405 289 l 347 289 l 347 347 m 231 347 l 289 347 l 289 289 l 231 289 l 231 347 m 289 289 l 347 289 l 347 231 l 289 231 l 289 289 m 694 463 l 752 463 l 752 405 l 694 405 l 694 463 m 752 405 l 810 405 l 810 347 l 752 347 l 752 405 m 810 405 l 868 405 l 868 347 l 810 347 l 810 405 m 810 347 l 868 347 l 868 289 l 810 289 l 810 347 m 752 347 l 810 347 l 810 289 l 752 289 l 752 347 m 868 347 l 926 347 l 926 289 l 868 289 l 868 347 m 810 289 l 868 289 l 868 231 l 810 231 l 810 289 m 694 752 l 752 752 l 752 694 l 694 694 l 694 752 m 752 810 l 810 810 l 810 752 l 752 752 l 752 810 m 752 868 l 810 868 l 810 810 l 752 810 l 752 868 m 810 868 l 868 868 l 868 810 l 810 810 l 810 868 m 810 810 l 868 810 l 868 752 l 810 752 l 810 810 m 810 926 l 868 926 l 868 868 l 810 868 l 810 926 m 868 868 l 926 868 l 926 810 l 868 810 l 868 868 m 405 752 l 463 752 l 463 694 l 405 694 l 405 752 m 347 810 l 405 810 l 405 752 l 347 752 l 347 810 m 347 868 l 405 868 l 405 810 l 347 810 l 347 868 m 289 868 l 347 868 l 347 810 l 289 810 l 289 868 m 289 810 l 347 810 l 347 752 l 289 752 l 289 810 m 289 926 l 347 926 l 347 868 l 289 868 l 289 926 m 231 868 l 289 868 l 289 810 l 231 810 l 231 868 m 868 289 l 926 289 l 926 231 l 868 231 l 868 289 m 868 231 l 926 231 l 926 174 l 868 174 l 868 231 m 926 231 l 984 231 l 984 174 l 926 174 l 926 231 m 926 289 l 984 289 l 984 231 l 926 231 l 926 289 m 984 231 l 1042 231 l 1042 174 l 984 174 l 984 231 m 984 174 l 1042 174 l 1042 116 l 984 116 l 984 174 m 926 174 l 984 174 l 984 116 l 926 116 l 926 174 m 1042 174 l 1100 174 l 1100 116 l 1042 116 l 1042 174 m 1042 116 l 1100 116 l 1100 58 l 1042 58 l 1042 116 m 984 116 l 1042 116 l 1042 58 l 984 58 l 984 116 m 231 289 l 289 289 l 289 231 l 231 231 l 231 289 m 174 289 l 231 289 l 231 231 l 174 231 l 174 289 m 174 231 l 231 231 l 231 174 l 174 174 l 174 231 m 231 231 l 289 231 l 289 174 l 231 174 l 231 231 m 116 231 l 174 231 l 174 174 l 116 174 l 116 231 m 174 174 l 231 174 l 231 116 l 174 116 l 174 174 m 116 174 l 174 174 l 174 116 l 116 116 l 116 174 m 58 174 l 116 174 l 116 116 l 58 116 l 58 174 m 116 116 l 174 116 l 174 58 l 116 58 l 116 116 m 58 116 l 116 116 l 116 58 l 58 58 l 58 116 m 231 926 l 289 926 l 289 868 l 231 868 l 231 926 m 231 984 l 289 984 l 289 926 l 231 926 l 231 984 m 174 984 l 231 984 l 231 926 l 174 926 l 174 984 m 174 926 l 231 926 l 231 868 l 174 868 l 174 926 m 868 926 l 926 926 l 926 868 l 868 868 l 868 926 m 868 984 l 926 984 l 926 926 l 868 926 l 868 984 m 926 984 l 984 984 l 984 926 l 926 926 l 926 984 m 926 926 l 984 926 l 984 868 l 926 868 l 926 926 m 926 1042 l 984 1042 l 984 984 l 926 984 l 926 1042 m 984 1042 l 1042 1042 l 1042 984 l 984 984 l 984 1042 m 984 984 l 1042 984 l 1042 926 l 984 926 l 984 984 m 174 1042 l 231 1042 l 231 984 l 174 984 l 174 1042 m 116 1042 l 174 1042 l 174 984 l 116 984 l 116 1042 m 116 984 l 174 984 l 174 926 l 116 926 l 116 984 m 984 1100 l 1042 1100 l 1042 1042 l 984 1042 l 984 1100 m 1042 1100 l 1100 1100 l 1100 1042 l 1042 1042 l 1042 1100 m 1042 1042 l 1100 1042 l 1100 984 l 1042 984 l 1042 1042 m 116 1100 l 174 1100 l 174 1042 l 116 1042 l 116 1100 m 58 1100 l 116 1100 l 116 1042 l 58 1042 l 58 1100 m 58 1042 l 116 1042 l 116 984 l 58 984 l 58 1042 z "},"N":{"ha":810,"x_min":58,"x_max":752,"o":"m 289 694 l 347 694 l 347 637 l 289 637 l 289 694 m 347 694 l 405 694 l 405 637 l 347 637 l 347 694 m 405 694 l 463 694 l 463 637 l 405 637 l 405 694 m 463 694 l 521 694 l 521 637 l 463 637 l 463 694 m 463 637 l 521 637 l 521 579 l 463 579 l 463 637 m 463 579 l 521 579 l 521 521 l 463 521 l 463 579 m 463 521 l 521 521 l 521 463 l 463 463 l 463 521 m 405 521 l 463 521 l 463 463 l 405 463 l 405 521 m 347 521 l 405 521 l 405 463 l 347 463 l 347 521 m 289 579 l 347 579 l 347 521 l 289 521 l 289 579 m 289 637 l 347 637 l 347 579 l 289 579 l 289 637 m 347 637 l 405 637 l 405 579 l 347 579 l 347 637 m 347 579 l 405 579 l 405 521 l 347 521 l 347 579 m 405 579 l 463 579 l 463 521 l 405 521 l 405 579 m 405 637 l 463 637 l 463 579 l 405 579 l 405 637 m 231 463 l 289 463 l 289 405 l 231 405 l 231 463 m 174 405 l 231 405 l 231 347 l 174 347 l 174 405 m 116 405 l 174 405 l 174 347 l 116 347 l 116 405 m 116 347 l 174 347 l 174 289 l 116 289 l 116 347 m 174 347 l 231 347 l 231 289 l 174 289 l 174 347 m 58 347 l 116 347 l 116 289 l 58 289 l 58 347 m 116 289 l 174 289 l 174 231 l 116 231 l 116 289 m 521 463 l 579 463 l 579 405 l 521 405 l 521 463 m 579 405 l 637 405 l 637 347 l 579 347 l 579 405 m 637 405 l 694 405 l 694 347 l 637 347 l 637 405 m 637 347 l 694 347 l 694 289 l 637 289 l 637 347 m 579 347 l 637 347 l 637 289 l 579 289 l 579 347 m 694 347 l 752 347 l 752 289 l 694 289 l 694 347 m 637 289 l 694 289 l 694 231 l 637 231 l 637 289 m 521 752 l 579 752 l 579 694 l 521 694 l 521 752 m 579 810 l 637 810 l 637 752 l 579 752 l 579 810 m 579 868 l 637 868 l 637 810 l 579 810 l 579 868 m 637 868 l 694 868 l 694 810 l 637 810 l 637 868 m 637 810 l 694 810 l 694 752 l 637 752 l 637 810 m 637 926 l 694 926 l 694 868 l 637 868 l 637 926 m 694 868 l 752 868 l 752 810 l 694 810 l 694 868 m 231 752 l 289 752 l 289 694 l 231 694 l 231 752 m 174 810 l 231 810 l 231 752 l 174 752 l 174 810 m 174 868 l 231 868 l 231 810 l 174 810 l 174 868 m 116 868 l 174 868 l 174 810 l 116 810 l 116 868 m 116 810 l 174 810 l 174 752 l 116 752 l 116 810 m 116 926 l 174 926 l 174 868 l 116 868 l 116 926 m 58 868 l 116 868 l 116 810 l 58 810 l 58 868 m 289 521 l 347 521 l 347 463 l 289 463 l 289 521 z "},"O":{"ha":984,"x_min":58,"x_max":926,"o":"m 347 579 l 405 579 l 405 521 l 347 521 l 347 579 m 405 579 l 463 579 l 463 521 l 405 521 l 405 579 m 463 579 l 521 579 l 521 521 l 463 521 l 463 579 m 521 579 l 579 579 l 579 521 l 521 521 l 521 579 m 579 579 l 637 579 l 637 521 l 579 521 l 579 579 m 521 637 l 579 637 l 579 579 l 521 579 l 521 637 m 579 637 l 637 637 l 637 579 l 579 579 l 579 637 m 637 637 l 694 637 l 694 579 l 637 579 l 637 637 m 405 637 l 463 637 l 463 579 l 405 579 l 405 637 m 347 637 l 405 637 l 405 579 l 347 579 l 347 637 m 289 637 l 347 637 l 347 579 l 289 579 l 289 637 m 463 694 l 521 694 l 521 637 l 463 637 l 463 694 m 405 752 l 463 752 l 463 694 l 405 694 l 405 752 m 463 752 l 521 752 l 521 694 l 463 694 l 463 752 m 521 752 l 579 752 l 579 694 l 521 694 l 521 752 m 347 810 l 405 810 l 405 752 l 347 752 l 347 810 m 405 810 l 463 810 l 463 752 l 405 752 l 405 810 m 463 810 l 521 810 l 521 752 l 463 752 l 463 810 m 521 810 l 579 810 l 579 752 l 521 752 l 521 810 m 579 810 l 637 810 l 637 752 l 579 752 l 579 810 m 347 694 l 405 694 l 405 637 l 347 637 l 347 694 m 289 694 l 347 694 l 347 637 l 289 637 l 289 694 m 231 694 l 289 694 l 289 637 l 231 637 l 231 694 m 289 752 l 347 752 l 347 694 l 289 694 l 289 752 m 231 752 l 289 752 l 289 694 l 231 694 l 231 752 m 174 752 l 231 752 l 231 694 l 174 694 l 174 752 m 579 694 l 637 694 l 637 637 l 579 637 l 579 694 m 637 694 l 694 694 l 694 637 l 637 637 l 637 694 m 694 694 l 752 694 l 752 637 l 694 637 l 694 694 m 637 752 l 694 752 l 694 694 l 637 694 l 637 752 m 694 752 l 752 752 l 752 694 l 694 694 l 694 752 m 752 752 l 810 752 l 810 694 l 752 694 l 752 752 m 694 810 l 752 810 l 752 752 l 694 752 l 694 810 m 752 810 l 810 810 l 810 752 l 752 752 l 752 810 m 810 810 l 868 810 l 868 752 l 810 752 l 810 810 m 521 868 l 579 868 l 579 810 l 521 810 l 521 868 m 579 868 l 637 868 l 637 810 l 579 810 l 579 868 m 637 868 l 694 868 l 694 810 l 637 810 l 637 868 m 405 868 l 463 868 l 463 810 l 405 810 l 405 868 m 347 868 l 405 868 l 405 810 l 347 810 l 347 868 m 289 868 l 347 868 l 347 810 l 289 810 l 289 868 m 347 926 l 405 926 l 405 868 l 347 868 l 347 926 m 289 926 l 347 926 l 347 868 l 289 868 l 289 926 m 231 926 l 289 926 l 289 868 l 231 868 l 231 926 m 289 984 l 347 984 l 347 926 l 289 926 l 289 984 m 231 984 l 289 984 l 289 926 l 231 926 l 231 984 m 579 926 l 637 926 l 637 868 l 579 868 l 579 926 m 637 926 l 694 926 l 694 868 l 637 868 l 637 926 m 694 926 l 752 926 l 752 868 l 694 868 l 694 926 m 637 984 l 694 984 l 694 926 l 637 926 l 637 984 m 694 984 l 752 984 l 752 926 l 694 926 l 694 984 m 752 868 l 810 868 l 810 810 l 752 810 l 752 868 m 810 868 l 868 868 l 868 810 l 810 810 l 810 868 m 231 810 l 289 810 l 289 752 l 231 752 l 231 810 m 174 810 l 231 810 l 231 752 l 174 752 l 174 810 m 116 810 l 174 810 l 174 752 l 116 752 l 116 810 m 174 868 l 231 868 l 231 810 l 174 810 l 174 868 m 116 868 l 174 868 l 174 810 l 116 810 l 116 868 m 58 868 l 116 868 l 116 810 l 58 810 l 58 868 m 231 1042 l 289 1042 l 289 984 l 231 984 l 231 1042 m 116 926 l 174 926 l 174 868 l 116 868 l 116 926 m 58 926 l 116 926 l 116 868 l 58 868 l 58 926 m 174 984 l 231 984 l 231 926 l 174 926 l 174 984 m 174 1042 l 231 1042 l 231 984 l 174 984 l 174 1042 m 694 1042 l 752 1042 l 752 984 l 694 984 l 694 1042 m 868 868 l 926 868 l 926 810 l 868 810 l 868 868 m 752 984 l 810 984 l 810 926 l 752 926 l 752 984 m 752 1042 l 810 1042 l 810 984 l 752 984 l 752 1042 m 810 926 l 868 926 l 868 868 l 810 868 l 810 926 m 868 926 l 926 926 l 926 868 l 868 868 l 868 926 m 521 463 l 521 521 l 579 521 l 579 463 l 521 463 m 579 463 l 579 521 l 637 521 l 637 463 l 579 463 m 637 463 l 637 521 l 694 521 l 694 463 l 637 463 m 405 463 l 405 521 l 463 521 l 463 463 l 405 463 m 347 463 l 347 521 l 405 521 l 405 463 l 347 463 m 289 463 l 289 521 l 347 521 l 347 463 l 289 463 m 463 405 l 463 463 l 521 463 l 521 405 l 463 405 m 405 347 l 405 405 l 463 405 l 463 347 l 405 347 m 463 347 l 463 405 l 521 405 l 521 347 l 463 347 m 521 347 l 521 405 l 579 405 l 579 347 l 521 347 m 347 289 l 347 347 l 405 347 l 405 289 l 347 289 m 405 289 l 405 347 l 463 347 l 463 289 l 405 289 m 463 289 l 463 347 l 521 347 l 521 289 l 463 289 m 521 289 l 521 347 l 579 347 l 579 289 l 521 289 m 579 289 l 579 347 l 637 347 l 637 289 l 579 289 m 347 405 l 347 463 l 405 463 l 405 405 l 347 405 m 289 405 l 289 463 l 347 463 l 347 405 l 289 405 m 231 405 l 231 463 l 289 463 l 289 405 l 231 405 m 289 347 l 289 405 l 347 405 l 347 347 l 289 347 m 231 347 l 231 405 l 289 405 l 289 347 l 231 347 m 174 347 l 174 405 l 231 405 l 231 347 l 174 347 m 579 405 l 579 463 l 637 463 l 637 405 l 579 405 m 637 405 l 637 463 l 694 463 l 694 405 l 637 405 m 694 405 l 694 463 l 752 463 l 752 405 l 694 405 m 637 347 l 637 405 l 694 405 l 694 347 l 637 347 m 694 347 l 694 405 l 752 405 l 752 347 l 694 347 m 752 347 l 752 405 l 810 405 l 810 347 l 752 347 m 694 289 l 694 347 l 752 347 l 752 289 l 694 289 m 752 289 l 752 347 l 810 347 l 810 289 l 752 289 m 810 289 l 810 347 l 868 347 l 868 289 l 810 289 m 521 231 l 521 289 l 579 289 l 579 231 l 521 231 m 579 231 l 579 289 l 637 289 l 637 231 l 579 231 m 637 231 l 637 289 l 694 289 l 694 231 l 637 231 m 405 231 l 405 289 l 463 289 l 463 231 l 405 231 m 347 231 l 347 289 l 405 289 l 405 231 l 347 231 m 289 231 l 289 289 l 347 289 l 347 231 l 289 231 m 347 174 l 347 231 l 405 231 l 405 174 l 347 174 m 289 174 l 289 231 l 347 231 l 347 174 l 289 174 m 231 174 l 231 231 l 289 231 l 289 174 l 231 174 m 289 116 l 289 174 l 347 174 l 347 116 l 289 116 m 231 116 l 231 174 l 289 174 l 289 116 l 231 116 m 579 174 l 579 231 l 637 231 l 637 174 l 579 174 m 637 174 l 637 231 l 694 231 l 694 174 l 637 174 m 694 174 l 694 231 l 752 231 l 752 174 l 694 174 m 637 116 l 637 174 l 694 174 l 694 116 l 637 116 m 694 116 l 694 174 l 752 174 l 752 116 l 694 116 m 752 231 l 752 289 l 810 289 l 810 231 l 752 231 m 810 231 l 810 289 l 868 289 l 868 231 l 810 231 m 231 289 l 231 347 l 289 347 l 289 289 l 231 289 m 174 289 l 174 347 l 231 347 l 231 289 l 174 289 m 116 289 l 116 347 l 174 347 l 174 289 l 116 289 m 174 231 l 174 289 l 231 289 l 231 231 l 174 231 m 116 231 l 116 289 l 174 289 l 174 231 l 116 231 m 58 231 l 58 289 l 116 289 l 116 231 l 58 231 m 231 58 l 231 116 l 289 116 l 289 58 l 231 58 m 116 174 l 116 231 l 174 231 l 174 174 l 116 174 m 58 174 l 58 231 l 116 231 l 116 174 l 58 174 m 174 116 l 174 174 l 231 174 l 231 116 l 174 116 m 174 58 l 174 116 l 231 116 l 231 58 l 174 58 m 694 58 l 694 116 l 752 116 l 752 58 l 694 58 m 868 231 l 868 289 l 926 289 l 926 231 l 868 231 m 752 116 l 752 174 l 810 174 l 810 116 l 752 116 m 752 58 l 752 116 l 810 116 l 810 58 l 752 58 m 810 174 l 810 231 l 868 231 l 868 174 l 810 174 m 868 174 l 868 231 l 926 231 l 926 174 l 868 174 z "},"P":{"ha":1100,"x_min":58,"x_max":1042,"o":"m 58 174 l 116 174 l 116 116 l 58 116 l 58 174 m 58 231 l 116 231 l 116 174 l 58 174 l 58 231 m 58 289 l 116 289 l 116 231 l 58 231 l 58 289 m 116 116 l 174 116 l 174 58 l 116 58 l 116 116 m 174 116 l 231 116 l 231 58 l 174 58 l 174 116 m 231 116 l 289 116 l 289 58 l 231 58 l 231 116 m 116 231 l 174 231 l 174 174 l 116 174 l 116 231 m 116 289 l 174 289 l 174 231 l 116 231 l 116 289 m 116 347 l 174 347 l 174 289 l 116 289 l 116 347 m 174 174 l 231 174 l 231 116 l 174 116 l 174 174 m 231 174 l 289 174 l 289 116 l 231 116 l 231 174 m 289 174 l 347 174 l 347 116 l 289 116 l 289 174 m 174 289 l 231 289 l 231 231 l 174 231 l 174 289 m 174 347 l 231 347 l 231 289 l 174 289 l 174 347 m 174 405 l 231 405 l 231 347 l 174 347 l 174 405 m 231 231 l 289 231 l 289 174 l 231 174 l 231 231 m 289 231 l 347 231 l 347 174 l 289 174 l 289 231 m 347 231 l 405 231 l 405 174 l 347 174 l 347 231 m 231 347 l 289 347 l 289 289 l 231 289 l 231 347 m 231 405 l 289 405 l 289 347 l 231 347 l 231 405 m 289 289 l 347 289 l 347 231 l 289 231 l 289 289 m 347 289 l 405 289 l 405 231 l 347 231 l 347 289 m 347 347 l 405 347 l 405 289 l 347 289 l 347 347 m 289 405 l 347 405 l 347 347 l 289 347 l 289 405 m 289 116 l 347 116 l 347 58 l 289 58 l 289 116 m 347 174 l 405 174 l 405 116 l 347 116 l 347 174 m 405 231 l 463 231 l 463 174 l 405 174 l 405 231 m 405 289 l 463 289 l 463 231 l 405 231 l 405 289 m 405 347 l 463 347 l 463 289 l 405 289 l 405 347 m 463 347 l 521 347 l 521 289 l 463 289 l 463 347 m 463 289 l 521 289 l 521 231 l 463 231 l 463 289 m 58 347 l 116 347 l 116 289 l 58 289 l 58 347 m 116 405 l 174 405 l 174 347 l 116 347 l 116 405 m 174 463 l 231 463 l 231 405 l 174 405 l 174 463 m 231 463 l 289 463 l 289 405 l 231 405 l 231 463 m 231 521 l 289 521 l 289 463 l 231 463 l 231 521 m 289 463 l 347 463 l 347 405 l 289 405 l 289 463 m 289 521 l 347 521 l 347 463 l 289 463 l 289 521 m 347 463 l 405 463 l 405 405 l 347 405 l 347 463 m 347 521 l 405 521 l 405 463 l 347 463 l 347 521 m 405 405 l 463 405 l 463 347 l 405 347 l 405 405 m 463 405 l 521 405 l 521 347 l 463 347 l 463 405 m 405 521 l 463 521 l 463 463 l 405 463 l 405 521 m 463 463 l 521 463 l 521 405 l 463 405 l 463 463 m 1042 174 l 1042 116 l 984 116 l 984 174 l 1042 174 m 1042 231 l 1042 174 l 984 174 l 984 231 l 1042 231 m 1042 289 l 1042 231 l 984 231 l 984 289 l 1042 289 m 984 116 l 984 58 l 926 58 l 926 116 l 984 116 m 926 116 l 926 58 l 868 58 l 868 116 l 926 116 m 868 116 l 868 58 l 810 58 l 810 116 l 868 116 m 984 231 l 984 174 l 926 174 l 926 231 l 984 231 m 984 289 l 984 231 l 926 231 l 926 289 l 984 289 m 984 347 l 984 289 l 926 289 l 926 347 l 984 347 m 926 174 l 926 116 l 868 116 l 868 174 l 926 174 m 868 174 l 868 116 l 810 116 l 810 174 l 868 174 m 810 174 l 810 116 l 752 116 l 752 174 l 810 174 m 926 289 l 926 231 l 868 231 l 868 289 l 926 289 m 926 347 l 926 289 l 868 289 l 868 347 l 926 347 m 926 405 l 926 347 l 868 347 l 868 405 l 926 405 m 868 231 l 868 174 l 810 174 l 810 231 l 868 231 m 810 231 l 810 174 l 752 174 l 752 231 l 810 231 m 752 231 l 752 174 l 694 174 l 694 231 l 752 231 m 868 347 l 868 289 l 810 289 l 810 347 l 868 347 m 868 405 l 868 347 l 810 347 l 810 405 l 868 405 m 810 289 l 810 231 l 752 231 l 752 289 l 810 289 m 752 289 l 752 231 l 694 231 l 694 289 l 752 289 m 752 347 l 752 289 l 694 289 l 694 347 l 752 347 m 810 405 l 810 347 l 752 347 l 752 405 l 810 405 m 810 116 l 810 58 l 752 58 l 752 116 l 810 116 m 752 174 l 752 116 l 694 116 l 694 174 l 752 174 m 694 231 l 694 174 l 637 174 l 637 231 l 694 231 m 694 289 l 694 231 l 637 231 l 637 289 l 694 289 m 694 347 l 694 289 l 637 289 l 637 347 l 694 347 m 637 347 l 637 289 l 579 289 l 579 347 l 637 347 m 637 289 l 637 231 l 579 231 l 579 289 l 637 289 m 1042 347 l 1042 289 l 984 289 l 984 347 l 1042 347 m 984 405 l 984 347 l 926 347 l 926 405 l 984 405 m 926 463 l 926 405 l 868 405 l 868 463 l 926 463 m 868 463 l 868 405 l 810 405 l 810 463 l 868 463 m 868 521 l 868 463 l 810 463 l 810 521 l 868 521 m 810 463 l 810 405 l 752 405 l 752 463 l 810 463 m 810 521 l 810 463 l 752 463 l 752 521 l 810 521 m 752 463 l 752 405 l 694 405 l 694 463 l 752 463 m 752 521 l 752 463 l 694 463 l 694 521 l 752 521 m 694 405 l 694 347 l 637 347 l 637 405 l 694 405 m 637 405 l 637 347 l 579 347 l 579 405 l 637 405 m 694 521 l 694 463 l 637 463 l 637 521 l 694 521 m 637 463 l 637 405 l 579 405 l 579 463 l 637 463 m 58 926 l 58 984 l 116 984 l 116 926 l 58 926 m 58 868 l 58 926 l 116 926 l 116 868 l 58 868 m 58 810 l 58 868 l 116 868 l 116 810 l 58 810 m 116 984 l 116 1042 l 174 1042 l 174 984 l 116 984 m 174 984 l 174 1042 l 231 1042 l 231 984 l 174 984 m 231 984 l 231 1042 l 289 1042 l 289 984 l 231 984 m 116 868 l 116 926 l 174 926 l 174 868 l 116 868 m 116 810 l 116 868 l 174 868 l 174 810 l 116 810 m 116 752 l 116 810 l 174 810 l 174 752 l 116 752 m 174 926 l 174 984 l 231 984 l 231 926 l 174 926 m 231 926 l 231 984 l 289 984 l 289 926 l 231 926 m 289 926 l 289 984 l 347 984 l 347 926 l 289 926 m 174 810 l 174 868 l 231 868 l 231 810 l 174 810 m 174 752 l 174 810 l 231 810 l 231 752 l 174 752 m 174 694 l 174 752 l 231 752 l 231 694 l 174 694 m 231 868 l 231 926 l 289 926 l 289 868 l 231 868 m 289 868 l 289 926 l 347 926 l 347 868 l 289 868 m 347 868 l 347 926 l 405 926 l 405 868 l 347 868 m 231 752 l 231 810 l 289 810 l 289 752 l 231 752 m 231 694 l 231 752 l 289 752 l 289 694 l 231 694 m 289 810 l 289 868 l 347 868 l 347 810 l 289 810 m 347 810 l 347 868 l 405 868 l 405 810 l 347 810 m 347 752 l 347 810 l 405 810 l 405 752 l 347 752 m 289 694 l 289 752 l 347 752 l 347 694 l 289 694 m 289 984 l 289 1042 l 347 1042 l 347 984 l 289 984 m 347 926 l 347 984 l 405 984 l 405 926 l 347 926 m 405 868 l 405 926 l 463 926 l 463 868 l 405 868 m 405 810 l 405 868 l 463 868 l 463 810 l 405 810 m 405 752 l 405 810 l 463 810 l 463 752 l 405 752 m 463 752 l 463 810 l 521 810 l 521 752 l 463 752 m 463 810 l 463 868 l 521 868 l 521 810 l 463 810 m 58 752 l 58 810 l 116 810 l 116 752 l 58 752 m 116 694 l 116 752 l 174 752 l 174 694 l 116 694 m 174 637 l 174 694 l 231 694 l 231 637 l 174 637 m 231 637 l 231 694 l 289 694 l 289 637 l 231 637 m 231 579 l 231 637 l 289 637 l 289 579 l 231 579 m 289 637 l 289 694 l 347 694 l 347 637 l 289 637 m 289 579 l 289 637 l 347 637 l 347 579 l 289 579 m 347 637 l 347 694 l 405 694 l 405 637 l 347 637 m 347 579 l 347 637 l 405 637 l 405 579 l 347 579 m 405 694 l 405 752 l 463 752 l 463 694 l 405 694 m 463 694 l 463 752 l 521 752 l 521 694 l 463 694 m 405 579 l 405 637 l 463 637 l 463 579 l 405 579 m 463 637 l 463 694 l 521 694 l 521 637 l 463 637 m 1042 926 l 984 926 l 984 984 l 1042 984 l 1042 926 m 1042 868 l 984 868 l 984 926 l 1042 926 l 1042 868 m 1042 810 l 984 810 l 984 868 l 1042 868 l 1042 810 m 984 984 l 926 984 l 926 1042 l 984 1042 l 984 984 m 926 984 l 868 984 l 868 1042 l 926 1042 l 926 984 m 868 984 l 810 984 l 810 1042 l 868 1042 l 868 984 m 984 868 l 926 868 l 926 926 l 984 926 l 984 868 m 984 810 l 926 810 l 926 868 l 984 868 l 984 810 m 984 752 l 926 752 l 926 810 l 984 810 l 984 752 m 926 926 l 868 926 l 868 984 l 926 984 l 926 926 m 868 926 l 810 926 l 810 984 l 868 984 l 868 926 m 810 926 l 752 926 l 752 984 l 810 984 l 810 926 m 926 810 l 868 810 l 868 868 l 926 868 l 926 810 m 926 752 l 868 752 l 868 810 l 926 810 l 926 752 m 926 694 l 868 694 l 868 752 l 926 752 l 926 694 m 868 868 l 810 868 l 810 926 l 868 926 l 868 868 m 810 868 l 752 868 l 752 926 l 810 926 l 810 868 m 752 868 l 694 868 l 694 926 l 752 926 l 752 868 m 868 752 l 810 752 l 810 810 l 868 810 l 868 752 m 868 694 l 810 694 l 810 752 l 868 752 l 868 694 m 810 810 l 752 810 l 752 868 l 810 868 l 810 810 m 752 810 l 694 810 l 694 868 l 752 868 l 752 810 m 752 752 l 694 752 l 694 810 l 752 810 l 752 752 m 810 694 l 752 694 l 752 752 l 810 752 l 810 694 m 810 984 l 752 984 l 752 1042 l 810 1042 l 810 984 m 752 926 l 694 926 l 694 984 l 752 984 l 752 926 m 694 868 l 637 868 l 637 926 l 694 926 l 694 868 m 694 810 l 637 810 l 637 868 l 694 868 l 694 810 m 694 752 l 637 752 l 637 810 l 694 810 l 694 752 m 637 752 l 579 752 l 579 810 l 637 810 l 637 752 m 637 810 l 579 810 l 579 868 l 637 868 l 637 810 m 1042 752 l 984 752 l 984 810 l 1042 810 l 1042 752 m 984 694 l 926 694 l 926 752 l 984 752 l 984 694 m 926 637 l 868 637 l 868 694 l 926 694 l 926 637 m 868 637 l 810 637 l 810 694 l 868 694 l 868 637 m 868 579 l 810 579 l 810 637 l 868 637 l 868 579 m 810 637 l 752 637 l 752 694 l 810 694 l 810 637 m 810 579 l 752 579 l 752 637 l 810 637 l 810 579 m 752 637 l 694 637 l 694 694 l 752 694 l 752 637 m 752 579 l 694 579 l 694 637 l 752 637 l 752 579 m 694 694 l 637 694 l 637 752 l 694 752 l 694 694 m 637 694 l 579 694 l 579 752 l 637 752 l 637 694 m 694 579 l 637 579 l 637 637 l 694 637 l 694 579 m 637 637 l 579 637 l 579 694 l 637 694 l 637 637 z "},"Q":{"ha":1273,"x_min":58,"x_max":1215,"o":"m 58 637 l 116 637 l 116 579 l 58 579 l 58 637 m 116 637 l 174 637 l 174 579 l 116 579 l 116 637 m 174 637 l 231 637 l 231 579 l 174 579 l 174 637 m 231 637 l 289 637 l 289 579 l 231 579 l 231 637 m 231 579 l 289 579 l 289 521 l 231 521 l 231 579 m 174 579 l 231 579 l 231 521 l 174 521 l 174 579 m 116 579 l 174 579 l 174 521 l 116 521 l 116 579 m 58 579 l 116 579 l 116 521 l 58 521 l 58 579 m 289 637 l 347 637 l 347 579 l 289 579 l 289 637 m 347 637 l 405 637 l 405 579 l 347 579 l 347 637 m 405 637 l 463 637 l 463 579 l 405 579 l 405 637 m 463 637 l 521 637 l 521 579 l 463 579 l 463 637 m 463 579 l 521 579 l 521 521 l 463 521 l 463 579 m 405 579 l 463 579 l 463 521 l 405 521 l 405 579 m 347 579 l 405 579 l 405 521 l 347 521 l 347 579 m 289 579 l 347 579 l 347 521 l 289 521 l 289 579 m 752 579 l 810 579 l 810 521 l 752 521 l 752 579 m 752 637 l 810 637 l 810 579 l 752 579 l 752 637 m 810 637 l 868 637 l 868 579 l 810 579 l 810 637 m 868 637 l 926 637 l 926 579 l 868 579 l 868 637 m 926 637 l 984 637 l 984 579 l 926 579 l 926 637 m 984 637 l 1042 637 l 1042 579 l 984 579 l 984 637 m 984 579 l 1042 579 l 1042 521 l 984 521 l 984 579 m 926 579 l 984 579 l 984 521 l 926 521 l 926 579 m 868 579 l 926 579 l 926 521 l 868 521 l 868 579 m 810 579 l 868 579 l 868 521 l 810 521 l 810 579 m 1042 637 l 1100 637 l 1100 579 l 1042 579 l 1042 637 m 1100 637 l 1157 637 l 1157 579 l 1100 579 l 1100 637 m 1157 637 l 1215 637 l 1215 579 l 1157 579 l 1157 637 m 1157 579 l 1215 579 l 1215 521 l 1157 521 l 1157 579 m 1100 579 l 1157 579 l 1157 521 l 1100 521 l 1100 579 m 1042 579 l 1100 579 l 1100 521 l 1042 521 l 1042 579 m 579 637 l 637 637 l 637 579 l 579 579 l 579 637 m 637 637 l 694 637 l 694 579 l 637 579 l 637 637 m 637 579 l 694 579 l 694 521 l 637 521 l 637 579 m 579 579 l 637 579 l 637 521 l 579 521 l 579 579 m 579 752 l 637 752 l 637 694 l 579 694 l 579 752 m 579 810 l 637 810 l 637 752 l 579 752 l 579 810 m 579 868 l 637 868 l 637 810 l 579 810 l 579 868 m 637 868 l 694 868 l 694 810 l 637 810 l 637 868 m 637 926 l 694 926 l 694 868 l 637 868 l 637 926 m 637 810 l 694 810 l 694 752 l 637 752 l 637 810 m 637 752 l 694 752 l 694 694 l 637 694 l 637 752 m 579 926 l 637 926 l 637 868 l 579 868 l 579 926 m 579 984 l 637 984 l 637 926 l 579 926 l 579 984 m 579 1042 l 637 1042 l 637 984 l 579 984 l 579 1042 m 637 1042 l 694 1042 l 694 984 l 637 984 l 637 1042 m 637 984 l 694 984 l 694 926 l 637 926 l 637 984 m 637 1100 l 694 1100 l 694 1042 l 637 1042 l 637 1100 m 579 1100 l 637 1100 l 637 1042 l 579 1042 l 579 1100 m 579 463 l 637 463 l 637 405 l 579 405 l 579 463 m 637 463 l 694 463 l 694 405 l 637 405 l 637 463 m 637 405 l 694 405 l 694 347 l 637 347 l 637 405 m 637 347 l 694 347 l 694 289 l 637 289 l 637 347 m 637 289 l 694 289 l 694 231 l 637 231 l 637 289 m 637 231 l 694 231 l 694 174 l 637 174 l 637 231 m 637 174 l 694 174 l 694 116 l 637 116 l 637 174 m 637 116 l 694 116 l 694 58 l 637 58 l 637 116 m 579 116 l 637 116 l 637 58 l 579 58 l 579 116 m 579 174 l 637 174 l 637 116 l 579 116 l 579 174 m 579 231 l 637 231 l 637 174 l 579 174 l 579 231 m 579 289 l 637 289 l 637 231 l 579 231 l 579 289 m 579 347 l 637 347 l 637 289 l 579 289 l 579 347 m 579 405 l 637 405 l 637 347 l 579 347 l 579 405 m 637 58 l 694 58 l 694 0 l 637 0 l 637 58 m 579 58 l 637 58 l 637 0 l 579 0 l 579 58 m 637 1157 l 694 1157 l 694 1100 l 637 1100 l 637 1157 m 579 1157 l 637 1157 l 637 1100 l 579 1100 l 579 1157 m 752 752 l 810 752 l 810 694 l 752 694 l 752 752 m 752 810 l 810 810 l 810 752 l 752 752 l 752 810 m 810 810 l 868 810 l 868 752 l 810 752 l 810 810 m 810 752 l 868 752 l 868 694 l 810 694 l 810 752 m 810 868 l 868 868 l 868 810 l 810 810 l 810 868 m 868 868 l 926 868 l 926 810 l 868 810 l 868 868 m 868 810 l 926 810 l 926 752 l 868 752 l 868 810 m 868 926 l 926 926 l 926 868 l 868 868 l 868 926 m 926 868 l 984 868 l 984 810 l 926 810 l 926 868 m 926 926 l 984 926 l 984 868 l 926 868 l 926 926 m 926 984 l 984 984 l 984 926 l 926 926 l 926 984 m 984 984 l 1042 984 l 1042 926 l 984 926 l 984 984 m 984 926 l 1042 926 l 1042 868 l 984 868 l 984 926 m 984 1042 l 1042 1042 l 1042 984 l 984 984 l 984 1042 m 1042 1042 l 1100 1042 l 1100 984 l 1042 984 l 1042 1042 m 1042 984 l 1100 984 l 1100 926 l 1042 926 l 1042 984 m 1042 1100 l 1100 1100 l 1100 1042 l 1042 1042 l 1042 1100 m 1100 1042 l 1157 1042 l 1157 984 l 1100 984 l 1100 1042 m 463 752 l 521 752 l 521 694 l 463 694 l 463 752 m 405 752 l 463 752 l 463 694 l 405 694 l 405 752 m 405 810 l 463 810 l 463 752 l 405 752 l 405 810 m 463 810 l 521 810 l 521 752 l 463 752 l 463 810 m 405 868 l 463 868 l 463 810 l 405 810 l 405 868 m 347 868 l 405 868 l 405 810 l 347 810 l 347 868 m 347 810 l 405 810 l 405 752 l 347 752 l 347 810 m 347 926 l 405 926 l 405 868 l 347 868 l 347 926 m 289 926 l 347 926 l 347 868 l 289 868 l 289 926 m 289 868 l 347 868 l 347 810 l 289 810 l 289 868 m 289 984 l 347 984 l 347 926 l 289 926 l 289 984 m 231 984 l 289 984 l 289 926 l 231 926 l 231 984 m 231 926 l 289 926 l 289 868 l 231 868 l 231 926 m 231 1042 l 289 1042 l 289 984 l 231 984 l 231 1042 m 174 1042 l 231 1042 l 231 984 l 174 984 l 174 1042 m 174 984 l 231 984 l 231 926 l 174 926 l 174 984 m 174 1100 l 231 1100 l 231 1042 l 174 1042 l 174 1100 m 116 1042 l 174 1042 l 174 984 l 116 984 l 116 1042 m 463 463 l 521 463 l 521 405 l 463 405 l 463 463 m 405 463 l 463 463 l 463 405 l 405 405 l 405 463 m 405 405 l 463 405 l 463 347 l 405 347 l 405 405 m 463 405 l 521 405 l 521 347 l 463 347 l 463 405 m 347 405 l 405 405 l 405 347 l 347 347 l 347 405 m 347 347 l 405 347 l 405 289 l 347 289 l 347 347 m 405 347 l 463 347 l 463 289 l 405 289 l 405 347 m 289 347 l 347 347 l 347 289 l 289 289 l 289 347 m 289 289 l 347 289 l 347 231 l 289 231 l 289 289 m 347 289 l 405 289 l 405 231 l 347 231 l 347 289 m 231 289 l 289 289 l 289 231 l 231 231 l 231 289 m 231 231 l 289 231 l 289 174 l 231 174 l 231 231 m 289 231 l 347 231 l 347 174 l 289 174 l 289 231 m 174 231 l 231 231 l 231 174 l 174 174 l 174 231 m 174 174 l 231 174 l 231 116 l 174 116 l 174 174 m 231 174 l 289 174 l 289 116 l 231 116 l 231 174 m 116 174 l 174 174 l 174 116 l 116 116 l 116 174 m 174 116 l 231 116 l 231 58 l 174 58 l 174 116 m 752 405 l 810 405 l 810 347 l 752 347 l 752 405 m 752 463 l 810 463 l 810 405 l 752 405 l 752 463 m 810 463 l 868 463 l 868 405 l 810 405 l 810 463 m 810 405 l 868 405 l 868 347 l 810 347 l 810 405 m 868 405 l 926 405 l 926 347 l 868 347 l 868 405 m 810 347 l 868 347 l 868 289 l 810 289 l 810 347 m 868 347 l 926 347 l 926 289 l 868 289 l 868 347 m 926 347 l 984 347 l 984 289 l 926 289 l 926 347 m 926 289 l 984 289 l 984 231 l 926 231 l 926 289 m 868 289 l 926 289 l 926 231 l 868 231 l 868 289 m 984 289 l 1042 289 l 1042 231 l 984 231 l 984 289 m 984 231 l 1042 231 l 1042 174 l 984 174 l 984 231 m 926 231 l 984 231 l 984 174 l 926 174 l 926 231 m 1042 231 l 1100 231 l 1100 174 l 1042 174 l 1042 231 m 1042 174 l 1100 174 l 1100 116 l 1042 116 l 1042 174 m 984 174 l 1042 174 l 1042 116 l 984 116 l 984 174 m 1100 174 l 1157 174 l 1157 116 l 1100 116 l 1100 174 m 1042 116 l 1100 116 l 1100 58 l 1042 58 l 1042 116 z "},"R":{"ha":984,"x_min":58,"x_max":926,"o":"m 463 810 l 521 810 l 521 752 l 463 752 l 463 810 m 405 752 l 463 752 l 463 694 l 405 694 l 405 752 m 347 694 l 405 694 l 405 637 l 347 637 l 347 694 m 289 637 l 347 637 l 347 579 l 289 579 l 289 637 m 231 579 l 289 579 l 289 521 l 231 521 l 231 579 m 289 579 l 347 579 l 347 521 l 289 521 l 289 579 m 347 579 l 405 579 l 405 521 l 347 521 l 347 579 m 579 579 l 637 579 l 637 521 l 579 521 l 579 579 m 637 637 l 694 637 l 694 579 l 637 579 l 637 637 m 579 694 l 637 694 l 637 637 l 579 637 l 579 694 m 521 752 l 579 752 l 579 694 l 521 694 l 521 752 m 463 752 l 521 752 l 521 694 l 463 694 l 463 752 m 463 694 l 521 694 l 521 637 l 463 637 l 463 694 m 405 637 l 463 637 l 463 579 l 405 579 l 405 637 m 347 637 l 405 637 l 405 579 l 347 579 l 347 637 m 405 694 l 463 694 l 463 637 l 405 637 l 405 694 m 521 637 l 579 637 l 579 579 l 521 579 l 521 637 m 579 637 l 637 637 l 637 579 l 579 579 l 579 637 m 521 694 l 579 694 l 579 637 l 521 637 l 521 694 m 694 579 l 752 579 l 752 521 l 694 521 l 694 579 m 637 579 l 694 579 l 694 521 l 637 521 l 637 579 m 405 868 l 463 868 l 463 810 l 405 810 l 405 868 m 405 926 l 463 926 l 463 868 l 405 868 l 405 926 m 405 984 l 463 984 l 463 926 l 405 926 l 405 984 m 289 1100 l 347 1100 l 347 1042 l 289 1042 l 289 1100 m 231 1100 l 289 1100 l 289 1042 l 231 1042 l 231 1100 m 58 868 l 116 868 l 116 810 l 58 810 l 58 868 m 521 868 l 579 868 l 579 810 l 521 810 l 521 868 m 521 926 l 579 926 l 579 868 l 521 868 l 521 926 m 521 984 l 579 984 l 579 926 l 521 926 l 521 984 m 347 1042 l 405 1042 l 405 984 l 347 984 l 347 1042 m 579 1042 l 637 1042 l 637 984 l 579 984 l 579 1042 m 637 1100 l 694 1100 l 694 1042 l 637 1042 l 637 1100 m 694 1100 l 752 1100 l 752 1042 l 694 1042 l 694 1100 m 752 1100 l 810 1100 l 810 1042 l 752 1042 l 752 1100 m 810 1042 l 868 1042 l 868 984 l 810 984 l 810 1042 m 174 1100 l 231 1100 l 231 1042 l 174 1042 l 174 1100 m 116 1042 l 174 1042 l 174 984 l 116 984 l 116 1042 m 58 984 l 116 984 l 116 926 l 58 926 l 58 984 m 58 926 l 116 926 l 116 868 l 58 868 l 58 926 m 868 984 l 926 984 l 926 926 l 868 926 l 868 984 m 868 926 l 926 926 l 926 868 l 868 868 l 868 926 m 868 868 l 926 868 l 926 810 l 868 810 l 868 868 m 463 289 l 463 347 l 521 347 l 521 289 l 463 289 m 405 347 l 405 405 l 463 405 l 463 347 l 405 347 m 289 463 l 289 521 l 347 521 l 347 463 l 289 463 m 637 463 l 637 521 l 694 521 l 694 463 l 637 463 m 521 347 l 521 405 l 579 405 l 579 347 l 521 347 m 463 347 l 463 405 l 521 405 l 521 347 l 463 347 m 463 405 l 463 463 l 521 463 l 521 405 l 463 405 m 405 463 l 405 521 l 463 521 l 463 463 l 405 463 m 347 463 l 347 521 l 405 521 l 405 463 l 347 463 m 521 463 l 521 521 l 579 521 l 579 463 l 521 463 m 579 463 l 579 521 l 637 521 l 637 463 l 579 463 m 521 405 l 521 463 l 579 463 l 579 405 l 521 405 m 405 231 l 405 289 l 463 289 l 463 231 l 405 231 m 405 174 l 405 231 l 463 231 l 463 174 l 405 174 m 405 116 l 405 174 l 463 174 l 463 116 l 405 116 m 289 0 l 289 58 l 347 58 l 347 0 l 289 0 m 231 0 l 231 58 l 289 58 l 289 0 l 231 0 m 58 231 l 58 289 l 116 289 l 116 231 l 58 231 m 521 231 l 521 289 l 579 289 l 579 231 l 521 231 m 521 174 l 521 231 l 579 231 l 579 174 l 521 174 m 521 116 l 521 174 l 579 174 l 579 116 l 521 116 m 347 58 l 347 116 l 405 116 l 405 58 l 347 58 m 579 58 l 579 116 l 637 116 l 637 58 l 579 58 m 637 0 l 637 58 l 694 58 l 694 0 l 637 0 m 694 0 l 694 58 l 752 58 l 752 0 l 694 0 m 752 0 l 752 58 l 810 58 l 810 0 l 752 0 m 810 58 l 810 116 l 868 116 l 868 58 l 810 58 m 174 0 l 174 58 l 231 58 l 231 0 l 174 0 m 116 58 l 116 116 l 174 116 l 174 58 l 116 58 m 58 116 l 58 174 l 116 174 l 116 116 l 58 116 m 58 174 l 58 231 l 116 231 l 116 174 l 58 174 m 868 116 l 868 174 l 926 174 l 926 116 l 868 116 m 868 174 l 868 231 l 926 231 l 926 174 l 868 174 m 868 231 l 868 289 l 926 289 l 926 231 l 868 231 m 405 463 l 463 463 l 463 405 l 405 405 l 405 463 m 347 463 l 405 463 l 405 405 l 347 405 l 347 463 m 579 463 l 637 463 l 637 405 l 579 405 l 579 463 m 174 752 l 231 752 l 231 694 l 174 694 l 174 752 m 231 752 l 289 752 l 289 694 l 231 694 l 231 752 m 116 810 l 174 810 l 174 752 l 116 752 l 116 810 m 116 694 l 174 694 l 174 637 l 116 637 l 116 694 m 810 810 l 868 810 l 868 752 l 810 752 l 810 810 m 694 752 l 752 752 l 752 694 l 694 694 l 694 752 m 752 752 l 810 752 l 810 694 l 752 694 l 752 752 m 810 694 l 868 694 l 868 637 l 810 637 l 810 694 m 116 347 l 174 347 l 174 289 l 116 289 l 116 347 m 174 405 l 231 405 l 231 347 l 174 347 l 174 405 m 231 405 l 289 405 l 289 347 l 231 347 l 231 405 m 116 463 l 174 463 l 174 405 l 116 405 l 116 463 m 810 347 l 868 347 l 868 289 l 810 289 l 810 347 m 752 405 l 810 405 l 810 347 l 752 347 l 752 405 m 694 405 l 752 405 l 752 347 l 694 347 l 694 405 m 810 463 l 868 463 l 868 405 l 810 405 l 810 463 m 116 289 l 174 289 l 174 231 l 116 231 l 116 289 m 116 231 l 174 231 l 174 174 l 116 174 l 116 231 m 116 174 l 174 174 l 174 116 l 116 116 l 116 174 m 174 116 l 231 116 l 231 58 l 174 58 l 174 116 m 231 116 l 289 116 l 289 58 l 231 58 l 231 116 m 289 116 l 347 116 l 347 58 l 289 58 l 289 116 m 347 174 l 405 174 l 405 116 l 347 116 l 347 174 m 347 231 l 405 231 l 405 174 l 347 174 l 347 231 m 347 289 l 405 289 l 405 231 l 347 231 l 347 289 m 231 347 l 289 347 l 289 289 l 231 289 l 231 347 m 174 347 l 231 347 l 231 289 l 174 289 l 174 347 m 579 289 l 637 289 l 637 231 l 579 231 l 579 289 m 579 231 l 637 231 l 637 174 l 579 174 l 579 231 m 579 174 l 637 174 l 637 116 l 579 116 l 579 174 m 637 116 l 694 116 l 694 58 l 637 58 l 637 116 m 694 116 l 752 116 l 752 58 l 694 58 l 694 116 m 752 116 l 810 116 l 810 58 l 752 58 l 752 116 m 810 174 l 868 174 l 868 116 l 810 116 l 810 174 m 810 231 l 868 231 l 868 174 l 810 174 l 810 231 m 810 289 l 868 289 l 868 231 l 810 231 l 810 289 m 752 347 l 810 347 l 810 289 l 752 289 l 752 347 m 694 347 l 752 347 l 752 289 l 694 289 l 694 347 m 752 463 l 810 463 l 810 405 l 752 405 l 752 463 m 174 463 l 231 463 l 231 405 l 174 405 l 174 463 m 694 810 l 752 810 l 752 752 l 694 752 l 694 810 m 810 868 l 868 868 l 868 810 l 810 810 l 810 868 m 810 926 l 868 926 l 868 868 l 810 868 l 810 926 m 810 984 l 868 984 l 868 926 l 810 926 l 810 984 m 752 1042 l 810 1042 l 810 984 l 752 984 l 752 1042 m 694 1042 l 752 1042 l 752 984 l 694 984 l 694 1042 m 637 1042 l 694 1042 l 694 984 l 637 984 l 637 1042 m 579 984 l 637 984 l 637 926 l 579 926 l 579 984 m 579 926 l 637 926 l 637 868 l 579 868 l 579 926 m 579 868 l 637 868 l 637 810 l 579 810 l 579 868 m 347 868 l 405 868 l 405 810 l 347 810 l 347 868 m 347 926 l 405 926 l 405 868 l 347 868 l 347 926 m 347 984 l 405 984 l 405 926 l 347 926 l 347 984 m 289 1042 l 347 1042 l 347 984 l 289 984 l 289 1042 m 231 1042 l 289 1042 l 289 984 l 231 984 l 231 1042 m 174 1042 l 231 1042 l 231 984 l 174 984 l 174 1042 m 116 984 l 174 984 l 174 926 l 116 926 l 116 984 m 116 926 l 174 926 l 174 868 l 116 868 l 116 926 m 116 868 l 174 868 l 174 810 l 116 810 l 116 868 m 174 810 l 231 810 l 231 752 l 174 752 l 174 810 m 231 810 l 289 810 l 289 752 l 231 752 l 231 810 m 174 694 l 231 694 l 231 637 l 174 637 l 174 694 m 752 694 l 810 694 l 810 637 l 752 637 l 752 694 m 752 984 l 810 984 l 810 926 l 752 926 l 752 984 m 637 984 l 694 984 l 694 926 l 637 926 l 637 984 m 752 868 l 810 868 l 810 810 l 752 810 l 752 868 m 752 810 l 810 810 l 810 752 l 752 752 l 752 810 m 174 868 l 231 868 l 231 810 l 174 810 l 174 868 m 174 984 l 231 984 l 231 926 l 174 926 l 174 984 m 289 984 l 347 984 l 347 926 l 289 926 l 289 984 m 174 174 l 231 174 l 231 116 l 174 116 l 174 174 m 174 289 l 231 289 l 231 231 l 174 231 l 174 289 m 289 174 l 347 174 l 347 116 l 289 116 l 289 174 m 637 174 l 694 174 l 694 116 l 637 116 l 637 174 m 752 174 l 810 174 l 810 116 l 752 116 l 752 174 m 752 289 l 810 289 l 810 231 l 752 231 l 752 289 m 752 521 l 810 521 l 810 463 l 752 463 l 752 521 m 810 521 l 868 521 l 868 463 l 810 463 l 810 521 m 752 637 l 810 637 l 810 579 l 752 579 l 752 637 m 810 637 l 868 637 l 868 579 l 810 579 l 810 637 m 174 637 l 231 637 l 231 579 l 174 579 l 174 637 m 116 637 l 174 637 l 174 579 l 116 579 l 116 637 m 174 521 l 231 521 l 231 463 l 174 463 l 174 521 m 116 521 l 174 521 l 174 463 l 116 463 l 116 521 z "}}}
